<?xml version="1.0" encoding="UTF-8"?>
<svg xmlns="http://www.w3.org/2000/svg" xmlns:xlink="http://www.w3.org/1999/xlink" width="180px" height="153px" viewBox="0 0 180 153" version="1.1">
<g id="surface1">
<path style=" stroke:none;fill-rule:nonzero;fill:rgb(93.725491%,10.588235%,16.470589%);fill-opacity:1;" d="M 87.207031 88.96875 L 21.746094 88.96875 L 72.515625 0.0351562 L 58.847656 0.0351562 L 0.808594 101.472656 L 94.1875 101.472656 Z M 87.207031 88.96875 "/>
<path style=" stroke:none;fill-rule:nonzero;fill:rgb(0.392157%,47.058824%,29.411766%);fill-opacity:1;" d="M 27.183594 86.394531 L 41.65625 86.394531 L 74.425781 23.722656 L 124.238281 116.847656 L 131.582031 104.046875 L 75.527344 0.0351562 Z M 27.183594 86.394531 "/>
<path style=" stroke:none;fill-rule:nonzero;fill:rgb(9.803922%,3.921569%,35.294119%);fill-opacity:1;" d="M 67.222656 42.996094 L 74.277344 30.046875 L 120.710938 116.847656 L 7.273438 116.847656 L 0 104.5625 L 98.667969 104.5625 Z M 67.222656 42.996094 "/>
<path style=" stroke:none;fill-rule:nonzero;fill:rgb(0%,0%,0%);fill-opacity:1;" d="M 13.445312 140.089844 C 12.417969 141.5625 11.242188 142.296875 9.917969 142.296875 C 9.109375 142.296875 8.375 142.148438 7.714844 141.929688 C 7.054688 141.636719 6.464844 141.339844 5.878906 140.828125 C 5.289062 140.386719 4.847656 139.871094 4.40625 139.207031 C 3.96875 138.621094 3.601562 137.957031 3.234375 137.222656 C 2.867188 136.484375 2.570312 135.75 2.351562 135.015625 C 2.128906 134.28125 1.910156 133.46875 1.691406 132.734375 L 3.234375 132.21875 C 3.378906 132.808594 3.527344 133.398438 3.746094 134.058594 C 3.96875 134.722656 4.1875 135.308594 4.480469 135.972656 C 4.777344 136.632812 5.070312 137.222656 5.4375 137.808594 C 5.804688 138.398438 6.171875 138.914062 6.6875 139.28125 C 7.125 139.722656 7.640625 140.015625 8.15625 140.3125 C 8.667969 140.605469 9.257812 140.679688 9.84375 140.679688 C 10.285156 140.679688 10.652344 140.605469 10.945312 140.386719 C 11.3125 140.238281 11.609375 139.945312 11.828125 139.722656 C 12.050781 139.429688 12.269531 139.132812 12.417969 138.691406 C 12.5625 138.324219 12.636719 137.882812 12.636719 137.515625 C 12.636719 137.148438 12.5625 136.707031 12.417969 136.339844 C 12.269531 135.898438 12.050781 135.53125 11.753906 135.234375 C 11.460938 134.867188 11.167969 134.574219 10.800781 134.425781 C 10.433594 134.207031 10.066406 134.132812 9.625 134.132812 C 9.257812 134.132812 8.890625 134.28125 8.597656 134.574219 C 8.300781 134.867188 8.082031 135.308594 7.933594 135.898438 L 6.539062 135.53125 C 6.90625 133.542969 7.933594 132.515625 9.625 132.515625 C 10.210938 132.515625 10.800781 132.660156 11.3125 132.957031 C 11.902344 133.25 12.34375 133.617188 12.785156 134.132812 C 13.222656 134.574219 13.519531 135.164062 13.8125 135.675781 C 14.105469 136.265625 14.179688 136.855469 14.179688 137.441406 C 14.179688 137.589844 14.179688 137.738281 14.179688 137.808594 C 14.179688 137.957031 14.105469 138.105469 14.105469 138.25 L 15.941406 140.972656 L 15.941406 131.484375 L 0.0742188 131.484375 L 0.0742188 129.941406 L 19.691406 129.941406 L 19.691406 131.484375 L 17.484375 131.484375 L 17.484375 146.636719 L 16.015625 146.636719 L 16.015625 143.914062 Z M 13.445312 140.089844 "/>
<path style=" stroke:none;fill-rule:nonzero;fill:rgb(0%,0%,0%);fill-opacity:1;" d="M 21.894531 146.636719 L 21.894531 131.484375 L 19.324219 131.484375 L 19.324219 129.941406 L 21.527344 129.941406 L 20.277344 128.175781 C 20.351562 127.4375 20.644531 126.777344 21.011719 126.1875 C 21.378906 125.527344 21.894531 125.011719 22.480469 124.570312 C 23.070312 124.128906 23.65625 123.761719 24.390625 123.464844 C 25.054688 123.171875 25.789062 123.023438 26.523438 123.023438 C 28.285156 123.023438 29.976562 123.464844 31.664062 124.347656 C 32.253906 124.644531 32.914062 125.085938 33.648438 125.601562 C 34.382812 126.113281 35.191406 126.777344 36.074219 127.511719 L 35.042969 128.617188 C 33.574219 127.21875 32.179688 126.1875 30.785156 125.527344 C 29.386719 124.863281 27.992188 124.496094 26.597656 124.496094 C 26.082031 124.496094 25.566406 124.570312 25.054688 124.789062 C 24.539062 125.011719 24.023438 125.230469 23.582031 125.601562 C 23.144531 125.96875 22.777344 126.335938 22.480469 126.777344 C 22.1875 127.21875 21.96875 127.734375 21.894531 128.246094 C 21.894531 128.320312 22.039062 128.46875 22.335938 128.761719 C 22.628906 129.058594 22.921875 129.425781 23.363281 129.867188 L 25.714844 129.867188 L 25.714844 131.410156 L 23.511719 131.410156 L 23.511719 146.5625 L 21.894531 146.5625 Z M 21.894531 146.636719 "/>
<path style=" stroke:none;fill-rule:nonzero;fill:rgb(0%,0%,0%);fill-opacity:1;" d="M 36.660156 146.636719 L 35.117188 146.636719 L 35.117188 143.988281 C 35.042969 143.695312 34.824219 143.328125 34.605469 142.960938 C 34.308594 142.589844 34.015625 142.222656 33.648438 141.78125 C 33.28125 141.339844 32.839844 140.972656 32.398438 140.605469 C 31.960938 140.238281 31.445312 139.871094 31.003906 139.574219 C 30.5625 139.28125 30.050781 138.988281 29.609375 138.839844 C 29.167969 138.621094 28.726562 138.546875 28.359375 138.546875 C 28.285156 138.546875 28.210938 138.546875 28.140625 138.546875 C 28.066406 138.546875 27.992188 138.546875 27.992188 138.621094 L 26.964844 137 C 29.460938 135.089844 32.179688 133.691406 35.117188 132.808594 L 35.117188 131.558594 L 25.492188 131.558594 L 25.492188 130.011719 L 38.792969 130.011719 L 38.792969 131.558594 L 36.660156 131.558594 Z M 35.117188 134.28125 C 34.898438 134.351562 34.675781 134.425781 34.308594 134.574219 C 33.941406 134.722656 33.648438 134.867188 33.28125 135.015625 C 32.914062 135.164062 32.546875 135.382812 32.105469 135.605469 C 31.664062 135.824219 31.296875 136.046875 30.929688 136.191406 C 30.5625 136.414062 30.269531 136.558594 29.976562 136.78125 C 29.679688 137 29.460938 137.148438 29.3125 137.296875 C 29.535156 137.296875 29.902344 137.441406 30.195312 137.515625 C 30.5625 137.664062 30.929688 137.808594 31.296875 138.03125 C 31.664062 138.25 32.105469 138.472656 32.472656 138.765625 C 32.839844 139.0625 33.207031 139.355469 33.574219 139.648438 C 33.941406 139.945312 34.238281 140.238281 34.457031 140.53125 C 34.75 140.828125 34.898438 141.046875 34.972656 141.339844 L 34.972656 134.28125 Z M 35.117188 134.28125 "/>
<path style=" stroke:none;fill-rule:nonzero;fill:rgb(0%,0%,0%);fill-opacity:1;" d="M 50.03125 146.636719 L 48.488281 146.636719 L 48.488281 143.988281 C 48.417969 143.695312 48.195312 143.328125 47.976562 142.960938 C 47.679688 142.589844 47.386719 142.222656 47.019531 141.78125 C 46.652344 141.339844 46.210938 140.972656 45.769531 140.605469 C 45.332031 140.238281 44.816406 139.871094 44.375 139.574219 C 43.933594 139.28125 43.421875 138.988281 42.980469 138.839844 C 42.539062 138.621094 42.097656 138.546875 41.730469 138.546875 C 41.65625 138.546875 41.582031 138.546875 41.511719 138.546875 C 41.4375 138.546875 41.363281 138.546875 41.363281 138.621094 L 40.335938 137 C 42.832031 135.089844 45.550781 133.691406 48.488281 132.808594 L 48.488281 131.558594 L 38.867188 131.558594 L 38.867188 130.011719 L 52.164062 130.011719 L 52.164062 131.558594 L 50.03125 131.558594 Z M 48.488281 134.28125 C 48.269531 134.351562 48.050781 134.425781 47.679688 134.574219 C 47.3125 134.722656 47.019531 134.867188 46.652344 135.015625 C 46.285156 135.164062 45.917969 135.382812 45.476562 135.605469 C 45.035156 135.824219 44.667969 136.046875 44.300781 136.191406 C 43.933594 136.414062 43.640625 136.558594 43.347656 136.78125 C 43.054688 137 42.832031 137.148438 42.6875 137.296875 C 42.90625 137.296875 43.273438 137.441406 43.566406 137.515625 C 43.933594 137.664062 44.300781 137.808594 44.667969 138.03125 C 45.035156 138.25 45.476562 138.472656 45.84375 138.765625 C 46.210938 139.0625 46.578125 139.355469 46.945312 139.648438 C 47.3125 139.945312 47.609375 140.238281 47.828125 140.53125 C 48.121094 140.828125 48.269531 141.046875 48.34375 141.339844 L 48.34375 134.28125 Z M 44.449219 142.078125 C 44.964844 142.078125 45.332031 142.222656 45.625 142.519531 C 45.917969 142.8125 46.066406 143.253906 46.066406 143.769531 C 46.066406 144.285156 45.917969 144.652344 45.625 145.019531 C 45.332031 145.3125 44.890625 145.460938 44.449219 145.460938 C 43.933594 145.460938 43.566406 145.3125 43.199219 145.019531 C 42.90625 144.726562 42.757812 144.285156 42.757812 143.769531 C 42.757812 143.253906 42.90625 142.886719 43.199219 142.519531 C 43.492188 142.222656 43.933594 142.078125 44.449219 142.078125 Z M 44.449219 142.078125 "/>
<path style=" stroke:none;fill-rule:nonzero;fill:rgb(0%,0%,0%);fill-opacity:1;" d="M 50.765625 129.941406 L 52.898438 129.941406 C 53.042969 130.011719 53.191406 130.085938 53.339844 130.234375 C 53.484375 130.308594 53.558594 130.453125 53.707031 130.601562 C 53.851562 130.75 54 130.894531 54.148438 131.042969 C 54.292969 131.191406 54.441406 131.410156 54.660156 131.632812 L 54.660156 127.511719 L 56.203125 127.511719 L 56.203125 130.011719 L 58.847656 130.011719 L 58.847656 131.558594 L 56.203125 131.558594 L 56.203125 146.710938 L 54.660156 146.710938 L 54.660156 133.765625 C 54.441406 133.25 54.148438 132.808594 53.78125 132.367188 C 53.414062 132 52.972656 131.703125 52.457031 131.558594 L 50.839844 131.558594 L 50.839844 129.941406 Z M 50.765625 129.941406 "/>
<path style=" stroke:none;fill-rule:nonzero;fill:rgb(0%,0%,0%);fill-opacity:1;" d="M 71.117188 131.484375 L 71.117188 146.636719 L 69.574219 146.636719 L 69.574219 141.488281 C 69.574219 141.265625 69.503906 141.046875 69.355469 140.679688 C 69.207031 140.386719 69.0625 140.015625 68.839844 139.648438 C 68.621094 139.28125 68.398438 138.914062 68.105469 138.621094 C 67.8125 138.25 67.519531 137.957031 67.222656 137.664062 C 66.929688 137.367188 66.636719 137.148438 66.34375 136.925781 C 66.050781 136.707031 65.828125 136.632812 65.535156 136.632812 C 64.507812 136.632812 63.625 136.925781 63.035156 137.515625 C 62.449219 138.105469 62.082031 138.914062 62.082031 139.945312 C 62.082031 141.488281 62.890625 142.445312 64.578125 142.8125 L 63.917969 144.136719 L 63.769531 144.136719 C 63.332031 144.136719 62.890625 143.988281 62.523438 143.695312 C 62.15625 143.402344 61.789062 143.105469 61.492188 142.664062 C 61.199219 142.222656 60.980469 141.78125 60.757812 141.339844 C 60.613281 140.828125 60.539062 140.457031 60.539062 140.015625 C 60.539062 137.296875 61.933594 135.675781 64.652344 135.089844 C 64.507812 134.722656 64.359375 134.425781 64.210938 134.207031 C 63.992188 133.984375 63.769531 133.765625 63.402344 133.542969 C 63.035156 133.324219 62.597656 133.175781 62.082031 133.027344 C 61.566406 132.882812 60.832031 132.660156 60.023438 132.515625 L 60.023438 131.484375 L 58.039062 131.484375 L 58.039062 129.941406 L 73.101562 129.941406 L 73.101562 131.484375 Z M 66.488281 135.234375 C 67.078125 135.457031 67.59375 135.75 68.105469 136.265625 C 68.621094 136.78125 69.132812 137.367188 69.574219 138.179688 L 69.574219 131.484375 L 62.523438 131.484375 C 63.109375 131.703125 63.625 131.851562 63.992188 132.074219 C 64.433594 132.292969 64.800781 132.515625 65.09375 132.808594 C 65.386719 133.101562 65.679688 133.46875 65.902344 133.839844 C 66.121094 134.28125 66.34375 134.722656 66.488281 135.234375 Z M 66.488281 135.234375 "/>
<path style=" stroke:none;fill-rule:nonzero;fill:rgb(0%,0%,0%);fill-opacity:1;" d="M 90.585938 146.636719 L 89.042969 146.636719 L 89.042969 143.988281 C 88.972656 143.695312 88.75 143.328125 88.53125 142.960938 C 88.238281 142.589844 87.941406 142.222656 87.574219 141.78125 C 87.207031 141.339844 86.765625 140.972656 86.328125 140.605469 C 85.886719 140.238281 85.371094 139.871094 84.929688 139.574219 C 84.488281 139.28125 83.976562 138.988281 83.535156 138.839844 C 83.09375 138.621094 82.652344 138.546875 82.285156 138.546875 C 82.210938 138.546875 82.140625 138.546875 82.066406 138.546875 C 81.992188 138.546875 81.917969 138.546875 81.917969 138.621094 L 80.890625 137 C 83.386719 135.089844 86.105469 133.691406 89.042969 132.808594 L 89.042969 131.558594 L 79.421875 131.558594 L 79.421875 130.011719 L 92.71875 130.011719 L 92.71875 131.558594 L 90.585938 131.558594 Z M 89.042969 134.28125 C 88.824219 134.351562 88.605469 134.425781 88.238281 134.574219 C 87.871094 134.722656 87.574219 134.867188 87.207031 135.015625 C 86.839844 135.164062 86.472656 135.382812 86.03125 135.605469 C 85.59375 135.824219 85.222656 136.046875 84.855469 136.191406 C 84.488281 136.414062 84.195312 136.558594 83.902344 136.78125 C 83.609375 137 83.386719 137.148438 83.242188 137.296875 C 83.460938 137.296875 83.828125 137.441406 84.121094 137.515625 C 84.488281 137.664062 84.855469 137.808594 85.222656 138.03125 C 85.59375 138.25 86.03125 138.472656 86.398438 138.765625 C 86.765625 139.0625 87.132812 139.355469 87.503906 139.648438 C 87.871094 139.945312 88.164062 140.238281 88.382812 140.53125 C 88.675781 140.828125 88.824219 141.046875 88.898438 141.339844 L 88.898438 134.28125 Z M 89.042969 134.28125 "/>
<path style=" stroke:none;fill-rule:nonzero;fill:rgb(0%,0%,0%);fill-opacity:1;" d="M 91.394531 129.941406 L 93.527344 129.941406 C 93.671875 130.011719 93.820312 130.085938 93.96875 130.234375 C 94.113281 130.308594 94.1875 130.453125 94.335938 130.601562 C 94.480469 130.75 94.628906 130.894531 94.777344 131.042969 C 94.921875 131.191406 95.070312 131.410156 95.289062 131.632812 L 95.289062 127.511719 L 96.832031 127.511719 L 96.832031 130.011719 L 99.476562 130.011719 L 99.476562 131.558594 L 96.832031 131.558594 L 96.832031 146.710938 L 95.289062 146.710938 L 95.289062 133.765625 C 95.070312 133.25 94.777344 132.808594 94.40625 132.367188 C 94.039062 132 93.601562 131.703125 93.085938 131.558594 L 91.46875 131.558594 L 91.46875 129.941406 Z M 91.394531 129.941406 "/>
<path style=" stroke:none;fill-rule:nonzero;fill:rgb(0%,0%,0%);fill-opacity:1;" d="M 107.707031 146.5625 L 99.550781 138.621094 L 100.800781 137.367188 L 108.957031 145.3125 Z M 103.445312 136.265625 C 102.929688 136.265625 102.488281 136.191406 102.050781 135.972656 C 101.609375 135.75 101.242188 135.53125 100.945312 135.234375 C 100.652344 134.941406 100.359375 134.574219 100.210938 134.132812 C 100.066406 133.691406 99.992188 133.25 99.992188 132.808594 C 99.992188 131.925781 100.210938 131.265625 100.726562 130.824219 C 101.242188 130.382812 101.902344 130.160156 102.785156 130.160156 C 103.296875 130.160156 103.738281 130.234375 104.179688 130.382812 C 104.621094 130.527344 104.988281 130.824219 105.28125 131.117188 C 105.574219 131.410156 105.871094 131.777344 106.089844 132.21875 C 106.308594 132.660156 106.382812 133.101562 106.382812 133.617188 C 106.382812 134.5 106.089844 135.164062 105.574219 135.605469 C 105.0625 136.046875 104.328125 136.265625 103.445312 136.265625 Z M 104.839844 133.46875 C 104.839844 132.957031 104.695312 132.515625 104.328125 132.144531 C 103.960938 131.777344 103.519531 131.632812 103.003906 131.632812 C 101.976562 131.632812 101.535156 132.074219 101.535156 132.882812 C 101.535156 133.101562 101.609375 133.398438 101.679688 133.617188 C 101.828125 133.839844 101.976562 134.058594 102.121094 134.207031 C 102.34375 134.351562 102.488281 134.5 102.710938 134.574219 C 102.929688 134.648438 103.152344 134.722656 103.445312 134.722656 C 104.398438 134.722656 104.839844 134.28125 104.839844 133.46875 Z M 104.839844 133.46875 "/>
<path style=" stroke:none;fill-rule:nonzero;fill:rgb(0%,0%,0%);fill-opacity:1;" d="M 112.996094 142.222656 C 112.335938 142.222656 111.746094 142.078125 111.304688 141.855469 C 110.792969 141.636719 110.425781 141.265625 110.128906 140.898438 C 109.835938 140.457031 109.542969 140.015625 109.394531 139.503906 C 109.25 138.988281 109.175781 138.472656 109.175781 137.882812 C 109.175781 137.367188 109.25 136.78125 109.394531 136.265625 C 109.542969 135.75 109.761719 135.308594 110.128906 134.867188 C 110.425781 134.425781 110.867188 134.132812 111.304688 133.839844 C 111.820312 133.617188 112.335938 133.46875 112.996094 133.46875 C 114.171875 133.46875 115.125 134.058594 115.859375 135.164062 C 116.007812 134.648438 116.300781 134.28125 116.667969 134.058594 C 117.035156 133.839844 117.402344 133.691406 117.84375 133.691406 C 118.066406 133.691406 118.359375 133.765625 118.578125 133.839844 C 118.800781 133.910156 119.019531 134.058594 119.242188 134.207031 C 119.460938 134.351562 119.679688 134.574219 119.828125 134.792969 C 119.976562 135.015625 120.121094 135.308594 120.269531 135.53125 L 120.269531 131.484375 L 107.632812 131.484375 L 107.632812 129.941406 L 124.089844 129.941406 L 124.089844 131.484375 L 121.738281 131.484375 L 121.738281 146.636719 L 120.195312 146.636719 L 120.195312 138.324219 C 120.050781 137.664062 119.902344 137.148438 119.753906 136.78125 C 119.609375 136.414062 119.386719 136.117188 119.167969 135.824219 C 118.945312 135.53125 118.652344 135.382812 118.433594 135.234375 C 118.140625 135.164062 117.992188 135.089844 117.84375 135.089844 C 117.625 135.089844 117.476562 135.164062 117.332031 135.234375 C 117.183594 135.382812 117.035156 135.53125 116.964844 135.675781 C 116.890625 135.824219 116.816406 136.046875 116.742188 136.265625 C 116.742188 136.484375 116.667969 136.78125 116.742188 137.148438 C 116.742188 137.515625 116.742188 137.738281 116.816406 137.808594 L 115.566406 138.03125 C 115.566406 137.664062 115.492188 137.296875 115.421875 136.78125 C 115.273438 136.339844 115.125 135.972656 114.90625 135.75 C 114.6875 135.53125 114.464844 135.308594 114.171875 135.164062 C 113.878906 135.015625 113.582031 134.941406 113.214844 134.941406 C 112.777344 134.941406 112.480469 135.015625 112.113281 135.164062 C 111.820312 135.308594 111.527344 135.53125 111.378906 135.824219 C 111.160156 136.117188 111.011719 136.414062 110.9375 136.707031 C 110.867188 137.074219 110.792969 137.367188 110.792969 137.738281 C 110.792969 138.105469 110.867188 138.472656 110.9375 138.839844 C 111.085938 139.207031 111.234375 139.503906 111.453125 139.796875 C 111.671875 140.089844 111.96875 140.3125 112.261719 140.457031 C 112.554688 140.605469 112.921875 140.679688 113.363281 140.679688 C 113.4375 140.679688 113.511719 140.679688 113.582031 140.679688 C 113.65625 140.679688 113.730469 140.679688 113.730469 140.679688 L 113.214844 142.078125 L 112.996094 142.078125 Z M 112.996094 142.222656 "/>
<path style=" stroke:none;fill-rule:nonzero;fill:rgb(0%,0%,0%);fill-opacity:1;" d="M 122.546875 129.941406 L 124.675781 129.941406 C 124.824219 130.011719 124.972656 130.085938 125.117188 130.234375 C 125.265625 130.308594 125.339844 130.453125 125.484375 130.601562 C 125.632812 130.75 125.78125 130.894531 125.925781 131.042969 C 126.074219 131.191406 126.21875 131.410156 126.441406 131.632812 L 126.441406 127.511719 L 127.984375 127.511719 L 127.984375 130.011719 L 130.628906 130.011719 L 130.628906 131.558594 L 127.984375 131.558594 L 127.984375 146.710938 L 126.441406 146.710938 L 126.441406 133.765625 C 126.21875 133.25 125.925781 132.808594 125.558594 132.367188 C 125.191406 132 124.75 131.703125 124.238281 131.558594 L 122.621094 131.558594 L 122.621094 129.941406 Z M 122.546875 129.941406 "/>
<path style=" stroke:none;fill-rule:nonzero;fill:rgb(0%,0%,0%);fill-opacity:1;" d="M 141.0625 146.636719 L 139.519531 146.636719 L 139.519531 143.988281 C 139.445312 143.695312 139.222656 143.328125 139.003906 142.960938 C 138.710938 142.589844 138.417969 142.222656 138.050781 141.78125 C 137.679688 141.339844 137.242188 140.972656 136.800781 140.605469 C 136.359375 140.238281 135.84375 139.871094 135.402344 139.574219 C 134.964844 139.28125 134.449219 138.988281 134.007812 138.839844 C 133.566406 138.621094 133.125 138.546875 132.757812 138.546875 C 132.6875 138.546875 132.613281 138.546875 132.539062 138.546875 C 132.464844 138.546875 132.390625 138.546875 132.390625 138.621094 L 131.363281 137 C 133.859375 135.089844 136.578125 133.691406 139.519531 132.808594 L 139.519531 131.558594 L 129.894531 131.558594 L 129.894531 130.011719 L 143.191406 130.011719 L 143.191406 131.558594 L 141.0625 131.558594 Z M 139.519531 134.28125 C 139.296875 134.351562 139.078125 134.425781 138.710938 134.574219 C 138.34375 134.722656 138.050781 134.867188 137.679688 135.015625 C 137.3125 135.164062 136.945312 135.382812 136.507812 135.605469 C 136.066406 135.824219 135.699219 136.046875 135.332031 136.191406 C 134.964844 136.414062 134.667969 136.558594 134.375 136.78125 C 134.082031 137 133.859375 137.148438 133.714844 137.296875 C 133.933594 137.296875 134.300781 137.441406 134.597656 137.515625 C 134.964844 137.664062 135.332031 137.808594 135.699219 138.03125 C 136.066406 138.25 136.507812 138.472656 136.875 138.765625 C 137.242188 139.0625 137.609375 139.355469 137.976562 139.648438 C 138.34375 139.945312 138.636719 140.238281 138.855469 140.53125 C 139.152344 140.828125 139.296875 141.046875 139.371094 141.339844 L 139.371094 134.28125 Z M 135.476562 142.078125 C 135.992188 142.078125 136.359375 142.222656 136.652344 142.519531 C 136.945312 142.8125 137.09375 143.253906 137.09375 143.769531 C 137.09375 144.285156 136.945312 144.652344 136.652344 145.019531 C 136.359375 145.3125 135.917969 145.460938 135.476562 145.460938 C 134.964844 145.460938 134.597656 145.3125 134.230469 145.019531 C 133.933594 144.726562 133.789062 144.285156 133.789062 143.769531 C 133.789062 143.253906 133.933594 142.886719 134.230469 142.519531 C 134.597656 142.222656 134.964844 142.078125 135.476562 142.078125 Z M 135.476562 142.078125 "/>
<path style=" stroke:none;fill-rule:nonzero;fill:rgb(0%,0%,0%);fill-opacity:1;" d="M 162.292969 131.484375 L 162.292969 146.636719 L 160.75 146.636719 L 160.75 141.488281 C 160.75 141.265625 160.675781 141.046875 160.53125 140.679688 C 160.382812 140.386719 160.238281 140.015625 160.015625 139.648438 C 159.796875 139.28125 159.574219 138.914062 159.28125 138.621094 C 158.988281 138.25 158.695312 137.957031 158.398438 137.664062 C 158.105469 137.367188 157.8125 137.148438 157.519531 136.925781 C 157.222656 136.707031 157.003906 136.632812 156.710938 136.632812 C 155.679688 136.632812 154.800781 136.925781 154.210938 137.515625 C 153.625 138.105469 153.257812 138.914062 153.257812 139.945312 C 153.257812 141.488281 154.066406 142.445312 155.753906 142.8125 L 155.09375 144.136719 L 154.945312 144.136719 C 154.507812 144.136719 154.066406 143.988281 153.699219 143.695312 C 153.332031 143.402344 152.964844 143.105469 152.667969 142.664062 C 152.375 142.222656 152.15625 141.78125 151.933594 141.339844 C 151.789062 140.828125 151.714844 140.457031 151.714844 140.015625 C 151.714844 137.296875 153.109375 135.675781 155.828125 135.089844 C 155.679688 134.722656 155.535156 134.425781 155.386719 134.207031 C 155.167969 133.984375 154.945312 133.765625 154.578125 133.542969 C 154.210938 133.324219 153.769531 133.175781 153.257812 133.027344 C 152.742188 132.882812 152.007812 132.660156 151.199219 132.515625 L 151.199219 131.484375 L 149.214844 131.484375 L 149.214844 129.941406 L 164.277344 129.941406 L 164.277344 131.484375 Z M 157.738281 135.234375 C 158.328125 135.457031 158.839844 135.75 159.355469 136.265625 C 159.871094 136.78125 160.382812 137.367188 160.824219 138.179688 L 160.824219 131.484375 L 153.769531 131.484375 C 154.359375 131.703125 154.875 131.851562 155.242188 132.074219 C 155.679688 132.292969 156.050781 132.515625 156.34375 132.808594 C 156.636719 133.101562 156.929688 133.46875 157.152344 133.839844 C 157.371094 134.28125 157.519531 134.722656 157.738281 135.234375 Z M 157.738281 135.234375 "/>
<path style=" stroke:none;fill-rule:nonzero;fill:rgb(0%,0%,0%);fill-opacity:1;" d="M 161.851562 144.355469 C 162.074219 144.945312 162.21875 145.460938 162.292969 145.902344 C 162.367188 146.34375 162.441406 146.636719 162.441406 146.859375 C 162.441406 146.929688 162.441406 147.003906 162.441406 147.152344 C 162.441406 147.300781 162.367188 147.519531 162.367188 147.742188 C 162.734375 148.035156 163.027344 148.253906 163.324219 148.476562 C 163.617188 148.695312 163.835938 148.917969 164.058594 149.066406 C 164.277344 149.285156 164.496094 149.433594 164.644531 149.652344 C 164.792969 149.875 165.011719 150.019531 165.160156 150.242188 C 165.378906 150.460938 165.527344 150.683594 165.746094 150.976562 C 165.96875 151.269531 166.1875 151.566406 166.480469 152.007812 L 165.304688 152.964844 C 164.203125 151.269531 162.957031 149.949219 161.558594 149.066406 C 160.972656 149.726562 160.457031 150.242188 159.871094 150.460938 C 159.28125 150.683594 158.695312 150.828125 158.105469 150.828125 C 157.8125 150.828125 157.519531 150.757812 157.222656 150.609375 C 156.929688 150.460938 156.710938 150.316406 156.488281 150.09375 C 156.269531 149.875 156.121094 149.652344 156.050781 149.359375 C 155.976562 149.066406 155.902344 148.769531 155.902344 148.402344 C 155.902344 148.035156 155.976562 147.742188 156.121094 147.445312 C 156.269531 147.152344 156.488281 146.929688 156.785156 146.710938 C 157.078125 146.488281 157.371094 146.34375 157.664062 146.195312 C 158.03125 146.046875 158.398438 146.046875 158.765625 146.046875 C 158.988281 146.046875 159.207031 146.121094 159.574219 146.195312 C 159.941406 146.34375 160.382812 146.488281 160.898438 146.785156 L 160.898438 146.488281 C 160.898438 146.195312 160.75 145.753906 160.53125 145.167969 Z M 158.695312 149.285156 C 158.839844 149.285156 158.988281 149.285156 159.207031 149.210938 C 159.355469 149.136719 159.503906 149.066406 159.648438 148.992188 C 159.796875 148.917969 159.941406 148.769531 160.015625 148.625 C 160.164062 148.476562 160.238281 148.328125 160.308594 148.109375 C 160.089844 147.886719 159.871094 147.742188 159.574219 147.667969 C 159.28125 147.59375 159.0625 147.519531 158.765625 147.519531 C 158.621094 147.519531 158.472656 147.519531 158.328125 147.59375 C 158.179688 147.59375 158.03125 147.667969 157.886719 147.742188 C 157.738281 147.8125 157.664062 147.886719 157.59375 148.035156 C 157.519531 148.183594 157.445312 148.328125 157.445312 148.476562 C 157.445312 148.769531 157.59375 148.992188 157.8125 149.066406 C 158.03125 149.210938 158.328125 149.285156 158.695312 149.285156 Z M 158.695312 149.285156 "/>
<path style=" stroke:none;fill-rule:nonzero;fill:rgb(0%,0%,0%);fill-opacity:1;" d="M 175.960938 144.136719 C 175.8125 143.84375 175.59375 143.472656 175.296875 143.03125 C 174.929688 142.664062 174.5625 142.222656 174.121094 141.855469 C 173.679688 141.488281 173.242188 141.046875 172.726562 140.679688 C 172.210938 140.3125 171.699219 139.945312 171.183594 139.648438 C 170.667969 139.355469 170.15625 139.0625 169.714844 138.914062 C 169.273438 138.691406 168.832031 138.621094 168.464844 138.546875 L 167.878906 137.074219 C 168.171875 137 168.464844 137 168.832031 136.855469 C 169.199219 136.78125 169.566406 136.632812 169.933594 136.484375 C 170.300781 136.339844 170.667969 136.191406 171.035156 135.972656 C 171.402344 135.75 171.699219 135.605469 171.992188 135.308594 C 172.285156 135.089844 172.507812 134.792969 172.652344 134.5 C 172.800781 134.207031 172.875 133.910156 172.875 133.617188 C 172.875 133.101562 172.578125 132.585938 172.066406 132.074219 C 171.84375 132.515625 171.625 132.882812 171.402344 133.25 C 171.183594 133.617188 170.964844 133.910156 170.667969 134.132812 C 170.375 134.351562 170.082031 134.574219 169.789062 134.722656 C 169.421875 134.867188 169.054688 134.941406 168.539062 134.941406 C 168.171875 134.941406 167.878906 134.867188 167.511719 134.792969 C 167.214844 134.648438 166.921875 134.5 166.703125 134.351562 C 166.480469 134.132812 166.261719 133.910156 166.113281 133.691406 C 165.96875 133.398438 165.894531 133.101562 165.894531 132.808594 C 165.894531 132.074219 166.113281 131.484375 166.554688 130.96875 L 167.730469 131.632812 C 167.582031 131.851562 167.511719 132.074219 167.4375 132.21875 C 167.4375 132.441406 167.363281 132.585938 167.363281 132.660156 C 167.363281 132.734375 167.363281 132.734375 167.4375 132.882812 C 167.511719 132.957031 167.511719 133.027344 167.65625 133.101562 C 167.730469 133.175781 167.878906 133.25 168.023438 133.324219 C 168.171875 133.398438 168.320312 133.398438 168.539062 133.398438 C 168.757812 133.398438 168.980469 133.398438 169.125 133.25 C 169.347656 133.175781 169.492188 133.027344 169.714844 132.808594 C 169.933594 132.585938 170.15625 132.21875 170.449219 131.777344 C 170.742188 131.335938 171.035156 130.75 171.332031 129.941406 C 171.699219 130.085938 172.066406 130.308594 172.359375 130.527344 C 172.726562 130.824219 173.019531 131.117188 173.3125 131.410156 C 173.609375 131.777344 173.828125 132.144531 174.050781 132.515625 C 174.269531 132.882812 174.34375 133.324219 174.34375 133.691406 C 174.34375 134.132812 174.195312 134.574219 173.976562 135.015625 C 173.753906 135.457031 173.460938 135.824219 173.09375 136.191406 C 172.726562 136.558594 172.359375 136.855469 171.917969 137.074219 C 171.476562 137.296875 171.035156 137.515625 170.667969 137.589844 C 171.476562 137.882812 172.285156 138.324219 173.167969 138.988281 C 174.050781 139.574219 174.929688 140.386719 175.960938 141.339844 L 175.960938 127.21875 L 177.503906 127.21875 L 177.503906 129.71875 L 180 129.71875 L 180 131.265625 L 177.503906 131.265625 L 177.503906 146.417969 L 175.960938 146.417969 Z M 175.960938 144.136719 "/>
<path style=" stroke:none;fill-rule:nonzero;fill:rgb(100%,81.176472%,5.490196%);fill-opacity:1;" d="M 81.476562 79.183594 L 66.929688 79.183594 L 64.875 86.027344 L 51.796875 86.027344 L 67.371094 44.464844 L 81.332031 44.464844 L 96.90625 86.027344 L 83.460938 86.027344 Z M 78.757812 70.210938 L 74.203125 55.277344 L 69.648438 70.210938 Z M 78.757812 70.210938 "/>
<path style=" stroke:none;fill-rule:nonzero;fill:rgb(100%,81.176472%,5.490196%);fill-opacity:1;" d="M 94.628906 44.539062 L 133.640625 44.539062 L 133.640625 54.765625 L 120.5625 54.765625 L 120.5625 86.097656 L 107.707031 86.097656 L 107.707031 54.835938 L 94.628906 54.835938 Z M 94.628906 44.539062 "/>
<path style=" stroke:none;fill-rule:nonzero;fill:rgb(100%,81.176472%,5.490196%);fill-opacity:1;" d="M 140.03125 44.539062 L 152.007812 44.539062 L 167.65625 67.5625 L 167.65625 44.539062 L 179.78125 44.539062 L 179.78125 86.097656 L 167.65625 86.097656 L 152.082031 63.296875 L 152.082031 86.097656 L 140.03125 86.097656 Z M 140.03125 44.539062 "/>
<path style=" stroke:none;fill-rule:nonzero;fill:rgb(100%,81.176472%,5.490196%);fill-opacity:1;" d="M 51.503906 94.558594 L 62.964844 94.558594 C 64.875 94.558594 66.34375 95.074219 67.371094 96.03125 C 68.398438 96.984375 68.914062 98.164062 68.914062 99.632812 C 68.914062 100.8125 68.546875 101.839844 67.8125 102.722656 C 67.296875 103.3125 66.636719 103.753906 65.679688 104.046875 C 67.078125 104.414062 68.179688 105.003906 68.839844 105.8125 C 69.503906 106.695312 69.871094 107.726562 69.871094 108.976562 C 69.871094 110.003906 69.648438 110.960938 69.132812 111.769531 C 68.621094 112.578125 68.03125 113.242188 67.152344 113.757812 C 66.636719 114.050781 65.828125 114.273438 64.800781 114.417969 C 63.402344 114.566406 62.523438 114.714844 62.082031 114.714844 L 51.503906 114.714844 Z M 57.671875 102.429688 L 60.320312 102.429688 C 61.273438 102.429688 61.933594 102.28125 62.300781 101.914062 C 62.667969 101.546875 62.890625 101.105469 62.890625 100.441406 C 62.890625 99.855469 62.667969 99.414062 62.300781 99.046875 C 61.933594 98.75 61.273438 98.53125 60.320312 98.53125 L 57.671875 98.53125 Z M 57.671875 110.375 L 60.832031 110.375 C 61.859375 110.375 62.667969 110.152344 63.035156 109.785156 C 63.476562 109.417969 63.699219 108.902344 63.699219 108.238281 C 63.699219 107.652344 63.476562 107.136719 63.035156 106.769531 C 62.597656 106.402344 61.859375 106.253906 60.757812 106.253906 L 57.671875 106.253906 Z M 57.671875 110.375 "/>
<path style=" stroke:none;fill-rule:nonzero;fill:rgb(100%,81.176472%,5.490196%);fill-opacity:1;" d="M 85.003906 111.402344 L 78.023438 111.402344 L 77.070312 114.714844 L 70.824219 114.714844 L 78.320312 94.558594 L 85.003906 94.558594 L 92.496094 114.714844 L 86.105469 114.714844 Z M 83.753906 106.988281 L 81.550781 99.78125 L 79.347656 106.988281 Z M 83.753906 106.988281 "/>
<path style=" stroke:none;fill-rule:nonzero;fill:rgb(100%,81.176472%,5.490196%);fill-opacity:1;" d="M 94.703125 94.558594 L 100.433594 94.558594 L 107.925781 105.738281 L 107.925781 94.558594 L 113.730469 94.558594 L 113.730469 114.714844 L 107.925781 114.714844 L 100.507812 103.679688 L 100.507812 114.714844 L 94.703125 114.714844 Z M 94.703125 94.558594 "/>
<path style=" stroke:none;fill-rule:nonzero;fill:rgb(100%,81.176472%,5.490196%);fill-opacity:1;" d="M 127.984375 107.429688 L 127.984375 103.238281 L 137.460938 103.238281 L 137.460938 111.84375 C 135.625 113.09375 134.007812 113.976562 132.613281 114.417969 C 131.214844 114.859375 129.601562 115.082031 127.617188 115.082031 C 125.265625 115.082031 123.355469 114.640625 121.886719 113.832031 C 120.417969 113.019531 119.242188 111.769531 118.433594 110.152344 C 117.625 108.535156 117.183594 106.695312 117.183594 104.636719 C 117.183594 102.429688 117.625 100.515625 118.507812 98.898438 C 119.386719 97.28125 120.710938 96.03125 122.398438 95.21875 C 123.722656 94.558594 125.558594 94.265625 127.835938 94.265625 C 130.039062 94.265625 131.65625 94.484375 132.757812 94.851562 C 133.859375 95.21875 134.742188 95.882812 135.476562 96.765625 C 136.210938 97.648438 136.726562 98.675781 137.09375 100 L 131.144531 101.105469 C 130.921875 100.371094 130.480469 99.78125 129.894531 99.339844 C 129.304688 98.972656 128.570312 98.75 127.691406 98.75 C 126.367188 98.75 125.265625 99.191406 124.457031 100.148438 C 123.648438 101.105469 123.28125 102.578125 123.28125 104.636719 C 123.28125 106.84375 123.648438 108.386719 124.457031 109.34375 C 125.265625 110.300781 126.367188 110.742188 127.835938 110.742188 C 128.496094 110.742188 129.160156 110.667969 129.820312 110.445312 C 130.40625 110.226562 131.144531 109.933594 131.949219 109.417969 L 131.949219 107.429688 Z M 127.984375 107.429688 "/>
<path style=" stroke:none;fill-rule:nonzero;fill:rgb(100%,81.176472%,5.490196%);fill-opacity:1;" d="M 141.355469 94.558594 L 147.453125 94.558594 L 147.453125 109.710938 L 157.003906 109.710938 L 157.003906 114.640625 L 141.28125 114.640625 L 141.28125 94.558594 Z M 141.355469 94.558594 "/>
<path style=" stroke:none;fill-rule:nonzero;fill:rgb(100%,81.176472%,5.490196%);fill-opacity:1;" d="M 172.285156 111.402344 L 165.304688 111.402344 L 164.351562 114.714844 L 158.105469 114.714844 L 165.601562 94.558594 L 172.285156 94.558594 L 179.78125 114.714844 L 173.386719 114.714844 Z M 171.035156 106.988281 L 168.832031 99.78125 L 166.628906 106.988281 Z M 171.035156 106.988281 "/>
<path style=" stroke:none;fill-rule:nonzero;fill:rgb(0%,0%,0%);fill-opacity:1;" d="M 97.347656 86.320312 L 83.386719 86.320312 L 81.332031 79.480469 L 67.152344 79.480469 L 65.09375 86.320312 L 51.429688 86.320312 L 67.222656 44.246094 L 81.550781 44.246094 L 81.625 44.390625 Z M 83.679688 85.804688 L 96.539062 85.804688 L 81.109375 44.761719 L 67.445312 44.761719 L 52.015625 85.804688 L 64.578125 85.804688 L 66.636719 78.964844 L 81.550781 78.964844 Z M 79.125 70.503906 L 69.28125 70.503906 L 74.128906 54.394531 Z M 70.015625 69.988281 L 78.464844 69.988281 L 74.203125 56.234375 Z M 70.015625 69.988281 "/>
<path style=" stroke:none;fill-rule:nonzero;fill:rgb(0%,0%,0%);fill-opacity:1;" d="M 120.785156 86.320312 L 107.414062 86.320312 L 107.414062 55.058594 L 94.40625 55.058594 L 94.40625 44.246094 L 133.933594 44.246094 L 133.933594 55.058594 L 120.855469 55.058594 L 120.855469 86.320312 Z M 108 85.804688 L 120.34375 85.804688 L 120.34375 54.542969 L 133.347656 54.542969 L 133.347656 44.832031 L 94.847656 44.832031 L 94.847656 54.542969 L 107.925781 54.542969 L 107.925781 85.804688 Z M 108 85.804688 "/>
<path style=" stroke:none;fill-rule:nonzero;fill:rgb(0%,0%,0%);fill-opacity:1;" d="M 180 86.320312 L 167.511719 86.320312 L 167.4375 86.171875 L 152.375 64.03125 L 152.375 86.246094 L 139.8125 86.246094 L 139.8125 44.171875 L 152.15625 44.171875 L 152.230469 44.320312 L 167.363281 66.605469 L 167.363281 44.171875 L 180 44.171875 Z M 167.804688 85.804688 L 179.484375 85.804688 L 179.484375 44.761719 L 167.878906 44.761719 L 167.878906 68.296875 L 151.859375 44.761719 L 140.253906 44.761719 L 140.253906 85.804688 L 151.789062 85.804688 L 151.789062 62.414062 Z M 167.804688 85.804688 "/>
<path style=" stroke:none;fill-rule:nonzero;fill:rgb(0%,0%,0%);fill-opacity:1;" d="M 62.082031 114.859375 L 51.28125 114.859375 L 51.28125 94.335938 L 62.964844 94.335938 C 64.945312 94.335938 66.417969 94.851562 67.519531 95.808594 C 68.546875 96.839844 69.132812 98.089844 69.132812 99.558594 C 69.132812 100.8125 68.765625 101.839844 67.960938 102.722656 C 67.519531 103.164062 67.003906 103.605469 66.269531 103.898438 C 67.445312 104.269531 68.328125 104.855469 68.988281 105.59375 C 69.648438 106.476562 70.015625 107.578125 70.015625 108.902344 C 70.015625 110.003906 69.796875 110.960938 69.28125 111.84375 C 68.765625 112.726562 68.105469 113.390625 67.222656 113.902344 C 66.710938 114.199219 65.902344 114.417969 64.800781 114.566406 C 63.476562 114.785156 62.523438 114.859375 62.082031 114.859375 Z M 51.722656 114.492188 L 62.082031 114.492188 C 62.523438 114.492188 63.476562 114.417969 64.800781 114.199219 C 65.828125 114.050781 66.5625 113.832031 67.078125 113.535156 C 67.886719 113.09375 68.546875 112.433594 68.988281 111.625 C 69.429688 110.816406 69.648438 109.933594 69.648438 108.902344 C 69.648438 107.652344 69.355469 106.621094 68.695312 105.8125 C 68.03125 105.003906 67.003906 104.414062 65.679688 104.121094 L 65.019531 103.972656 L 65.609375 103.753906 C 66.488281 103.457031 67.222656 103.015625 67.664062 102.429688 C 68.328125 101.621094 68.695312 100.664062 68.695312 99.488281 C 68.695312 98.164062 68.179688 96.984375 67.222656 96.03125 C 66.269531 95.074219 64.800781 94.632812 62.964844 94.632812 L 51.648438 94.632812 L 51.648438 114.492188 Z M 60.832031 110.59375 L 57.527344 110.59375 L 57.527344 106.105469 L 60.832031 106.105469 C 61.933594 106.105469 62.742188 106.328125 63.183594 106.695312 C 63.625 107.0625 63.917969 107.652344 63.917969 108.3125 C 63.917969 108.976562 63.699219 109.5625 63.183594 110.003906 C 62.667969 110.375 61.933594 110.59375 60.832031 110.59375 Z M 57.894531 110.152344 L 60.832031 110.152344 C 61.859375 110.152344 62.523438 110.003906 62.964844 109.636719 C 63.332031 109.269531 63.550781 108.828125 63.550781 108.238281 C 63.550781 107.726562 63.332031 107.285156 62.964844 106.917969 C 62.597656 106.621094 61.859375 106.402344 60.832031 106.402344 L 57.894531 106.402344 Z M 60.320312 102.648438 L 57.453125 102.648438 L 57.453125 98.457031 L 60.390625 98.457031 C 61.347656 98.457031 62.082031 98.605469 62.449219 98.972656 C 62.890625 99.339844 63.109375 99.855469 63.109375 100.515625 C 63.109375 101.179688 62.890625 101.765625 62.449219 102.136719 C 62.082031 102.429688 61.347656 102.648438 60.320312 102.648438 Z M 57.894531 102.28125 L 60.390625 102.28125 C 61.273438 102.28125 61.933594 102.136719 62.230469 101.839844 C 62.597656 101.546875 62.742188 101.105469 62.742188 100.515625 C 62.742188 100 62.597656 99.558594 62.230469 99.265625 C 61.859375 98.972656 61.273438 98.824219 60.390625 98.824219 L 57.894531 98.824219 Z M 57.894531 102.28125 "/>
<path style=" stroke:none;fill-rule:nonzero;fill:rgb(0%,0%,0%);fill-opacity:1;" d="M 92.71875 114.859375 L 85.886719 114.859375 L 84.855469 111.550781 L 78.246094 111.550781 L 77.289062 114.859375 L 70.605469 114.859375 L 78.246094 94.335938 L 85.222656 94.335938 Z M 86.179688 114.492188 L 92.203125 114.492188 L 84.855469 94.707031 L 78.464844 94.707031 L 71.117188 114.492188 L 76.921875 114.492188 L 77.878906 111.183594 L 85.152344 111.183594 Z M 84.050781 107.210938 L 79.199219 107.210938 L 81.625 99.117188 Z M 79.640625 106.84375 L 83.460938 106.84375 L 81.550781 100.441406 Z M 79.640625 106.84375 "/>
<path style=" stroke:none;fill-rule:nonzero;fill:rgb(0%,0%,0%);fill-opacity:1;" d="M 113.878906 114.859375 L 107.78125 114.859375 L 107.707031 114.785156 L 100.652344 104.269531 L 100.652344 114.859375 L 94.480469 114.859375 L 94.480469 94.335938 L 100.507812 94.335938 L 107.707031 105.078125 L 107.707031 94.335938 L 113.878906 94.335938 Z M 108 114.492188 L 113.511719 114.492188 L 113.511719 94.707031 L 108.148438 94.707031 L 108.148438 106.328125 L 100.285156 94.707031 L 94.847656 94.707031 L 94.847656 114.492188 L 100.210938 114.492188 L 100.210938 103.015625 Z M 108 114.492188 "/>
<path style=" stroke:none;fill-rule:nonzero;fill:rgb(0%,0%,0%);fill-opacity:1;" d="M 127.691406 115.226562 C 125.339844 115.226562 123.355469 114.785156 121.8125 113.976562 C 120.269531 113.167969 119.09375 111.917969 118.285156 110.226562 C 117.476562 108.609375 117.035156 106.695312 117.035156 104.5625 C 117.035156 102.355469 117.476562 100.371094 118.433594 98.75 C 119.3125 97.132812 120.710938 95.808594 122.472656 95 C 123.871094 94.335938 125.707031 93.96875 127.984375 93.96875 C 130.1875 93.96875 131.878906 94.191406 132.980469 94.558594 C 134.082031 95 135.035156 95.589844 135.769531 96.472656 C 136.507812 97.355469 137.09375 98.457031 137.460938 99.78125 L 137.535156 100 L 131.214844 101.179688 L 131.144531 101.03125 C 130.921875 100.296875 130.554688 99.78125 129.96875 99.414062 C 129.453125 99.046875 128.71875 98.824219 127.835938 98.824219 C 126.515625 98.824219 125.558594 99.265625 124.75 100.148438 C 124.015625 101.03125 123.574219 102.503906 123.574219 104.488281 C 123.574219 106.621094 123.941406 108.167969 124.75 109.050781 C 125.484375 109.933594 126.585938 110.375 127.984375 110.375 C 128.644531 110.375 129.304688 110.300781 129.894531 110.078125 C 130.480469 109.859375 131.144531 109.5625 131.878906 109.121094 L 131.878906 107.503906 L 127.761719 107.503906 L 127.761719 103.015625 L 137.609375 103.015625 L 137.609375 111.917969 L 137.535156 111.992188 C 135.699219 113.242188 134.082031 114.125 132.6875 114.566406 C 131.289062 115.007812 129.601562 115.226562 127.691406 115.226562 Z M 127.910156 94.410156 C 125.707031 94.410156 123.871094 94.707031 122.546875 95.367188 C 120.855469 96.175781 119.609375 97.425781 118.726562 98.972656 C 117.84375 100.589844 117.402344 102.429688 117.402344 104.636719 C 117.402344 106.695312 117.84375 108.535156 118.578125 110.078125 C 119.386719 111.625 120.488281 112.875 121.960938 113.609375 C 123.429688 114.417969 125.339844 114.785156 127.617188 114.785156 C 129.527344 114.785156 131.144531 114.566406 132.539062 114.125 C 133.859375 113.683594 135.476562 112.875 137.242188 111.625 L 137.242188 103.3125 L 128.203125 103.3125 L 128.203125 107.136719 L 132.320312 107.136719 L 132.320312 109.34375 L 132.246094 109.417969 C 131.4375 109.933594 130.703125 110.226562 130.039062 110.445312 C 129.378906 110.667969 128.71875 110.742188 127.984375 110.742188 C 126.515625 110.742188 125.265625 110.226562 124.457031 109.269531 C 123.648438 108.3125 123.207031 106.695312 123.207031 104.488281 C 123.207031 102.429688 123.648438 100.8125 124.457031 99.855469 C 125.265625 98.898438 126.441406 98.382812 127.835938 98.382812 C 128.792969 98.382812 129.527344 98.605469 130.1875 99.046875 C 130.777344 99.414062 131.214844 100 131.4375 100.738281 L 136.945312 99.707031 C 136.578125 98.53125 136.066406 97.574219 135.402344 96.765625 C 134.742188 95.957031 133.859375 95.367188 132.757812 94.925781 C 131.730469 94.558594 130.113281 94.410156 127.910156 94.410156 Z M 127.910156 94.410156 "/>
<path style=" stroke:none;fill-rule:nonzero;fill:rgb(0%,0%,0%);fill-opacity:1;" d="M 157.222656 114.859375 L 141.132812 114.859375 L 141.132812 94.335938 L 147.671875 94.335938 L 147.671875 109.492188 L 157.222656 109.492188 Z M 141.574219 114.492188 L 156.855469 114.492188 L 156.855469 109.933594 L 147.304688 109.933594 L 147.304688 94.777344 L 141.574219 94.777344 Z M 141.574219 114.492188 "/>
<path style=" stroke:none;fill-rule:nonzero;fill:rgb(0%,0%,0%);fill-opacity:1;" d="M 180 114.859375 L 173.167969 114.859375 L 172.140625 111.550781 L 165.453125 111.550781 L 164.496094 114.859375 L 157.8125 114.859375 L 165.453125 94.335938 L 172.433594 94.335938 Z M 173.460938 114.492188 L 179.484375 114.492188 L 172.140625 94.707031 L 165.671875 94.707031 L 158.328125 114.492188 L 164.128906 114.492188 L 165.085938 111.183594 L 172.359375 111.183594 Z M 171.257812 107.210938 L 166.40625 107.210938 L 168.832031 99.117188 Z M 166.921875 106.84375 L 170.742188 106.84375 L 168.832031 100.441406 Z M 166.921875 106.84375 "/>
</g>
</svg>
