<?xml version="1.0" encoding="UTF-8"?>
<svg xmlns="http://www.w3.org/2000/svg" xmlns:xlink="http://www.w3.org/1999/xlink" width="180px" height="150px" viewBox="0 0 180 150" version="1.1">
<g id="surface1">
<path style=" stroke:none;fill-rule:nonzero;fill:rgb(9.019608%,8.235294%,52.549022%);fill-opacity:1;" d="M 46.046875 134.753906 L 44.210938 134.753906 L 44.210938 146.222656 L 32.167969 146.222656 L 32.167969 136.445312 L 41.714844 136.445312 L 41.714844 134.753906 L 30.625 134.753906 L 30.625 133.066406 L 46.046875 133.066406 Z M 41.714844 144.53125 L 41.714844 138.210938 L 34.515625 138.210938 L 34.515625 144.605469 L 41.714844 144.605469 Z M 41.714844 144.53125 "/>
<path style=" stroke:none;fill-rule:nonzero;fill:rgb(9.019608%,8.235294%,52.549022%);fill-opacity:1;" d="M 51.921875 134.753906 L 49.867188 134.753906 L 49.867188 146.074219 L 47.589844 146.074219 L 47.589844 134.753906 L 44.796875 134.753906 L 44.796875 133.066406 L 51.921875 133.066406 Z M 51.921875 134.753906 "/>
<path style=" stroke:none;fill-rule:nonzero;fill:rgb(9.019608%,8.235294%,52.549022%);fill-opacity:1;" d="M 61.542969 146 L 59.191406 146 L 59.191406 142.105469 L 52.289062 142.105469 L 52.289062 140.414062 L 61.46875 140.414062 L 61.46875 146 Z M 60.808594 137.988281 L 52.730469 137.988281 L 52.730469 133.136719 L 60.808594 133.136719 Z M 58.457031 136.296875 L 58.457031 134.828125 L 55.078125 134.828125 L 55.078125 136.296875 Z M 58.457031 136.296875 "/>
<path style=" stroke:none;fill-rule:nonzero;fill:rgb(9.019608%,8.235294%,52.549022%);fill-opacity:1;" d="M 79.976562 134.753906 L 77.917969 134.753906 L 77.917969 146.660156 L 75.570312 146.660156 L 75.570312 137.769531 L 73.511719 137.769531 L 70.941406 139.3125 L 68.296875 137.695312 L 66.460938 137.695312 L 66.460938 141.003906 L 70.648438 141.003906 L 70.648438 142.691406 L 64.113281 142.691406 L 64.113281 136.003906 L 69.105469 136.003906 L 70.941406 137.105469 L 72.632812 136.078125 L 75.570312 136.078125 L 75.570312 134.753906 L 63.15625 134.753906 L 63.15625 132.992188 L 79.976562 132.992188 Z M 79.976562 134.753906 "/>
<path style=" stroke:none;fill-rule:nonzero;fill:rgb(9.019608%,8.235294%,52.549022%);fill-opacity:1;" d="M 85.777344 134.753906 L 83.722656 134.753906 L 83.722656 146.074219 L 81.445312 146.074219 L 81.445312 134.753906 L 78.652344 134.753906 L 78.652344 133.066406 L 85.777344 133.066406 Z M 85.777344 134.753906 "/>
<path style=" stroke:none;fill-rule:nonzero;fill:rgb(9.019608%,8.235294%,52.549022%);fill-opacity:1;" d="M 98.921875 134.753906 L 97.527344 134.753906 L 97.527344 146.292969 L 85.628906 146.292969 L 85.628906 136.445312 L 95.25 136.445312 L 95.25 134.828125 L 84.527344 134.828125 L 84.527344 133.066406 L 98.921875 133.066406 Z M 95.25 144.605469 L 95.25 138.136719 L 88.054688 138.136719 L 88.054688 144.605469 Z M 93.339844 149.894531 L 88.347656 149.894531 L 88.347656 147.25 L 93.339844 147.25 Z M 90.992188 148.941406 L 90.992188 148.574219 L 90.625 148.574219 L 90.625 148.941406 Z M 90.992188 148.941406 "/>
<path style=" stroke:none;fill-rule:nonzero;fill:rgb(9.019608%,8.235294%,52.549022%);fill-opacity:1;" d="M 120 145.925781 L 107.589844 145.925781 L 107.589844 138.796875 L 117.136719 138.796875 L 117.136719 136.738281 L 106.195312 134.242188 L 107.074219 132.625 L 119.484375 135.417969 L 119.484375 140.414062 L 110.011719 140.414062 L 110.011719 144.164062 L 120.074219 144.164062 L 120.074219 145.925781 Z M 120 145.925781 "/>
<path style=" stroke:none;fill-rule:nonzero;fill:rgb(9.019608%,8.235294%,52.549022%);fill-opacity:1;" d="M 134.613281 146 L 122.71875 146 L 122.71875 140.265625 L 126.242188 138.722656 L 122.496094 137.179688 L 122.496094 133.066406 L 134.46875 133.066406 L 134.46875 137.105469 L 130.867188 138.722656 L 134.613281 140.265625 Z M 132.191406 136.226562 L 132.191406 134.828125 L 124.921875 134.828125 L 124.921875 136.296875 L 128.664062 137.695312 Z M 132.265625 144.308594 L 132.265625 141.222656 C 131.75 141.003906 130.5 140.488281 128.59375 139.605469 L 125.066406 141.222656 L 125.066406 144.308594 Z M 132.265625 144.308594 "/>
<path style=" stroke:none;fill-rule:nonzero;fill:rgb(9.019608%,8.235294%,52.549022%);fill-opacity:1;" d="M 158.1875 134.753906 L 156.574219 134.753906 L 156.574219 145.78125 L 144.824219 145.78125 L 144.824219 140.707031 L 147.6875 139.238281 L 144.894531 139.238281 L 144.894531 135.929688 L 147.394531 134.679688 L 142.914062 134.679688 L 142.914062 133.066406 L 158.1875 133.066406 Z M 154.222656 144.089844 L 154.222656 134.753906 L 151.503906 134.753906 L 147.246094 136.886719 L 147.246094 137.621094 L 153.855469 137.621094 L 154.074219 138.210938 L 147.171875 141.664062 L 147.171875 144.089844 Z M 154.222656 144.089844 "/>
<path style=" stroke:none;fill-rule:nonzero;fill:rgb(9.019608%,8.235294%,52.549022%);fill-opacity:1;" d="M 176.179688 134.753906 L 167.589844 134.753906 L 167.589844 144.089844 L 172.875 144.089844 L 172.875 140.636719 L 168.542969 140.636719 L 168.542969 138.945312 L 175.226562 138.945312 L 175.226562 145.78125 L 165.238281 145.78125 L 165.238281 137.621094 L 160.757812 137.621094 L 160.757812 138.945312 L 164.285156 138.945312 L 164.285156 140.636719 L 158.410156 140.636719 L 158.410156 135.929688 L 165.238281 135.929688 L 165.238281 133.066406 L 172.214844 133.066406 L 172.214844 131.960938 L 164.136719 131.960938 L 164.136719 130.273438 L 174.640625 130.273438 L 174.640625 133.066406 L 176.179688 133.066406 Z M 176.179688 134.753906 "/>
<path style=" stroke:none;fill-rule:nonzero;fill:rgb(9.019608%,8.235294%,52.549022%);fill-opacity:1;" d="M 179.925781 134.753906 L 179.925781 146.074219 L 177.648438 146.074219 L 177.648438 134.753906 L 174.859375 134.753906 L 174.859375 133.066406 L 180 133.066406 L 180 134.753906 Z M 179.925781 134.753906 "/>
<path style=" stroke:none;fill-rule:nonzero;fill:rgb(93.725491%,10.588235%,16.470589%);fill-opacity:1;" d="M 68.078125 69.414062 L 16.964844 69.414062 L 56.621094 0.105469 L 45.898438 0.105469 L 0.660156 79.261719 L 73.511719 79.261719 Z M 68.078125 69.414062 "/>
<path style=" stroke:none;fill-rule:nonzero;fill:rgb(0.392157%,47.058824%,29.411766%);fill-opacity:1;" d="M 21.222656 67.429688 L 32.535156 67.429688 L 58.089844 18.550781 L 97.011719 91.242188 L 102.667969 81.246094 L 58.972656 0.105469 Z M 21.222656 67.429688 "/>
<path style=" stroke:none;fill-rule:nonzero;fill:rgb(9.803922%,3.921569%,35.294119%);fill-opacity:1;" d="M 52.507812 33.546875 L 58.015625 23.476562 L 94.222656 91.242188 L 5.726562 91.242188 L 0 81.613281 L 77.039062 81.613281 Z M 52.507812 33.546875 "/>
<path style=" stroke:none;fill-rule:nonzero;fill:rgb(100%,81.176472%,5.490196%);fill-opacity:1;" d="M 65.214844 82.863281 L 48.25 82.863281 L 45.898438 90.875 L 30.625 90.875 L 48.765625 42.511719 L 65.066406 42.511719 L 83.207031 90.875 L 67.5625 90.875 Z M 62.128906 72.425781 L 56.769531 55.007812 L 51.480469 72.425781 Z M 62.128906 72.425781 "/>
<path style=" stroke:none;fill-rule:nonzero;fill:rgb(100%,81.176472%,5.490196%);fill-opacity:1;" d="M 80.5625 42.511719 L 125.949219 42.511719 L 125.949219 54.421875 L 110.746094 54.421875 L 110.746094 90.875 L 95.839844 90.875 L 95.839844 54.421875 L 80.636719 54.421875 L 80.636719 42.511719 Z M 80.5625 42.511719 "/>
<path style=" stroke:none;fill-rule:nonzero;fill:rgb(100%,81.176472%,5.490196%);fill-opacity:1;" d="M 133.4375 42.511719 L 147.394531 42.511719 L 165.605469 69.265625 L 165.605469 42.511719 L 179.707031 42.511719 L 179.707031 90.875 L 165.605469 90.875 L 147.539062 64.34375 L 147.539062 90.875 L 133.511719 90.875 L 133.511719 42.511719 Z M 133.4375 42.511719 "/>
<path style=" stroke:none;fill-rule:nonzero;fill:rgb(0%,0%,0%);fill-opacity:1;" d="M 83.722656 91.167969 L 67.417969 91.167969 L 64.992188 83.160156 L 48.46875 83.160156 L 46.121094 91.167969 L 30.183594 91.167969 L 48.542969 42.21875 L 65.214844 42.21875 L 65.289062 42.441406 Z M 67.859375 90.507812 L 82.839844 90.507812 L 64.921875 42.734375 L 49.058594 42.734375 L 31.136719 90.507812 L 45.753906 90.507812 L 48.101562 82.496094 L 65.507812 82.496094 Z M 62.496094 72.722656 L 51.039062 72.722656 L 56.695312 53.980469 Z M 51.921875 72.058594 L 61.6875 72.058594 L 56.769531 56.039062 Z M 51.921875 72.058594 "/>
<path style=" stroke:none;fill-rule:nonzero;fill:rgb(0%,0%,0%);fill-opacity:1;" d="M 111.039062 91.167969 L 95.472656 91.167969 L 95.472656 54.714844 L 80.269531 54.714844 L 80.269531 42.144531 L 126.242188 42.144531 L 126.242188 54.714844 L 111.039062 54.714844 Z M 96.058594 90.507812 L 110.378906 90.507812 L 110.378906 54.050781 L 125.582031 54.050781 L 125.582031 42.734375 L 80.785156 42.734375 L 80.785156 54.050781 L 95.984375 54.050781 L 95.984375 90.507812 Z M 96.058594 90.507812 "/>
<path style=" stroke:none;fill-rule:nonzero;fill:rgb(0%,0%,0%);fill-opacity:1;" d="M 179.925781 91.167969 L 165.386719 91.167969 L 165.3125 91.023438 L 147.761719 65.296875 L 147.761719 91.167969 L 133.144531 91.167969 L 133.144531 42.21875 L 147.539062 42.21875 L 147.613281 42.367188 L 165.238281 68.3125 L 165.238281 42.21875 L 179.925781 42.21875 Z M 165.679688 90.507812 L 179.265625 90.507812 L 179.265625 42.734375 L 165.828125 42.734375 L 165.828125 70.148438 L 147.171875 42.734375 L 133.660156 42.734375 L 133.660156 90.507812 L 147.097656 90.507812 L 147.097656 63.3125 Z M 165.679688 90.507812 "/>
<path style=" stroke:none;fill-rule:nonzero;fill:rgb(100%,0.784314%,0.784314%);fill-opacity:1;" d="M 30.625 94.625 L 65.949219 94.625 L 65.949219 125.054688 L 30.625 125.054688 Z M 30.625 94.625 "/>
<path style=" stroke:none;fill-rule:nonzero;fill:rgb(100%,100%,100%);fill-opacity:1;" d="M 38.261719 99.179688 L 44.285156 99.179688 L 52.214844 110.792969 L 52.214844 99.179688 L 58.3125 99.179688 L 58.3125 120.203125 L 52.214844 120.203125 L 44.355469 108.664062 L 44.355469 120.203125 L 38.261719 120.203125 Z M 38.261719 99.179688 "/>
<path style=" stroke:none;fill-rule:nonzero;fill:rgb(100%,0.784314%,0.784314%);fill-opacity:1;" d="M 68.664062 94.625 L 103.988281 94.625 L 103.988281 125.054688 L 68.664062 125.054688 Z M 68.664062 94.625 "/>
<path style=" stroke:none;fill-rule:nonzero;fill:rgb(100%,100%,100%);fill-opacity:1;" d="M 77.480469 99.179688 L 94.882812 99.179688 L 94.882812 103.664062 L 84.015625 103.664062 L 84.015625 106.972656 L 94.074219 106.972656 L 94.074219 111.234375 L 84.015625 111.234375 L 84.015625 115.351562 L 95.105469 115.351562 L 95.105469 120.128906 L 77.480469 120.128906 Z M 77.480469 99.179688 "/>
<path style=" stroke:none;fill-rule:nonzero;fill:rgb(100%,0.784314%,0.784314%);fill-opacity:1;" d="M 106.632812 94.625 L 141.957031 94.625 L 141.957031 125.054688 L 106.632812 125.054688 Z M 106.632812 94.625 "/>
<path style=" stroke:none;fill-rule:nonzero;fill:rgb(100%,100%,100%);fill-opacity:1;" d="M 109.570312 99.328125 L 115.742188 99.328125 L 117.945312 111.089844 L 121.175781 99.328125 L 127.34375 99.328125 L 130.574219 111.089844 L 132.777344 99.328125 L 138.875 99.328125 L 134.246094 120.347656 L 127.859375 120.347656 L 124.1875 107.121094 L 120.515625 120.347656 L 114.125 120.347656 Z M 109.570312 99.328125 "/>
<path style=" stroke:none;fill-rule:nonzero;fill:rgb(100%,0.784314%,0.784314%);fill-opacity:1;" d="M 144.601562 94.625 L 179.925781 94.625 L 179.925781 125.054688 L 144.601562 125.054688 Z M 144.601562 94.625 "/>
<path style=" stroke:none;fill-rule:nonzero;fill:rgb(100%,100%,100%);fill-opacity:1;" d="M 152.753906 113.367188 L 158.921875 113 C 159.070312 114.027344 159.363281 114.761719 159.730469 115.277344 C 160.390625 116.160156 161.347656 116.527344 162.59375 116.527344 C 163.550781 116.527344 164.210938 116.308594 164.722656 115.867188 C 165.238281 115.425781 165.460938 114.910156 165.460938 114.320312 C 165.460938 113.808594 165.238281 113.292969 164.722656 112.851562 C 164.285156 112.410156 163.109375 112.042969 161.417969 111.601562 C 158.554688 110.941406 156.574219 110.132812 155.324219 109.03125 C 154.074219 108 153.488281 106.605469 153.488281 104.988281 C 153.488281 103.886719 153.78125 102.855469 154.441406 101.902344 C 155.105469 100.945312 155.984375 100.210938 157.234375 99.621094 C 158.480469 99.109375 160.171875 98.8125 162.375 98.8125 C 165.019531 98.8125 167.074219 99.328125 168.542969 100.285156 C 169.9375 101.3125 170.820312 102.855469 171.039062 105.0625 L 164.945312 105.429688 C 164.796875 104.472656 164.429688 103.8125 163.917969 103.371094 C 163.402344 102.929688 162.667969 102.710938 161.785156 102.710938 C 161.050781 102.710938 160.464844 102.855469 160.097656 103.222656 C 159.730469 103.519531 159.511719 103.957031 159.511719 104.398438 C 159.511719 104.765625 159.65625 105.0625 159.949219 105.28125 C 160.246094 105.574219 160.980469 105.796875 162.152344 106.089844 C 165.019531 106.679688 167 107.339844 168.25 107.925781 C 169.5 108.589844 170.378906 109.324219 170.894531 110.28125 C 171.480469 111.234375 171.703125 112.265625 171.703125 113.367188 C 171.703125 114.691406 171.335938 115.9375 170.601562 117.113281 C 169.867188 118.21875 168.835938 119.101562 167.515625 119.6875 C 166.195312 120.277344 164.503906 120.570312 162.449219 120.570312 C 158.847656 120.570312 156.425781 119.90625 155.03125 118.511719 C 153.636719 117.113281 152.972656 115.5 152.753906 113.367188 Z M 152.753906 113.367188 "/>
</g>
</svg>
