<?xml version="1.0" encoding="UTF-8" standalone="no"?>
<svg
   xmlns:dc="http://purl.org/dc/elements/1.1/"
   xmlns:cc="http://creativecommons.org/ns#"
   xmlns:rdf="http://www.w3.org/1999/02/22-rdf-syntax-ns#"
   xmlns:svg="http://www.w3.org/2000/svg"
   xmlns="http://www.w3.org/2000/svg"
   xmlns:sodipodi="http://sodipodi.sourceforge.net/DTD/sodipodi-0.dtd"
   xmlns:inkscape="http://www.inkscape.org/namespaces/inkscape"
   enable-background="new 0 0 554 554"
   height="316.227766"
   viewBox="0 0 554 554"
   width="316.227766"
   version="1.1"
   id="svg48"
   sodipodi:docname="Bangladesh Television logo.svg"
   inkscape:version="0.92.3 (2405546, 2018-03-11)">
  <metadata
     id="metadata54">
    <rdf:RDF>
      <cc:Work
         rdf:about="">
        <dc:format>image/svg+xml</dc:format>
        <dc:type
           rdf:resource="http://purl.org/dc/dcmitype/StillImage" />
      </cc:Work>
    </rdf:RDF>
  </metadata>
  <defs
     id="defs52" />
  <sodipodi:namedview
     pagecolor="#ffffff"
     bordercolor="#666666"
     borderopacity="1"
     objecttolerance="10"
     gridtolerance="10"
     guidetolerance="10"
     inkscape:pageopacity="0"
     inkscape:pageshadow="2"
     inkscape:window-width="1920"
     inkscape:window-height="1017"
     id="namedview50"
     showgrid="false"
     inkscape:zoom="1.6358739"
     inkscape:cx="149.90263"
     inkscape:cy="127.24066"
     inkscape:window-x="-8"
     inkscape:window-y="-8"
     inkscape:window-maximized="1"
     inkscape:current-layer="svg48" />
  <path
     d="m 9.395793,217.94882 c -0.082437,-2.39311 -0.164881,-4.78625 0.11067,-8.03471 0.4422063,-1.02315 0.63699,-1.27072 0.591236,-1.34479 -0.1871021,-0.30278 -0.4476267,-0.55256 -0.6811087,-0.82184 1.8497157,-44.74689 5.4951957,-89.26984 13.7349727,-133.257719 0.825842,-4.408634 2.623419,-5.771223 6.551833,-6.649508 51.09293,-11.422905 102.566934,-19.880619 154.481854,-25.717885 53.13782,-5.974796 106.29272,-6.580683 159.48004,-2.756753 60.71594,4.365208 120.92592,13.148591 180.44394,27.110138 4.28587,1.00536 6.55449,2.78342 7.18243,7.941566 3.71925,30.551001 9.5226,60.935521 11.30437,91.601321 2.57619,44.3396 3.9681,88.91859 2.87547,133.30949 -1.51213,61.43813 -7.87433,122.53476 -18.65746,183.00567 -1.11486,6.25216 -3.81488,8.84911 -9.18502,10.6269 -35.69321,11.81635 -72.25179,18.52051 -109.26543,23.11027 -58.02444,7.19512 -116.20458,8.18238 -174.38265,4.40517 C 168.34077,516.21436 102.75779,510.78633 38.546501,493.7733 30.722249,491.70023 26.586359,488.19918 25.543412,479.08358 20.371883,433.88287 14.479262,388.77791 9.3994785,343.56596 8.2078509,332.95989 9.1845826,322.06936 9.7067187,309.98294 c 0.6900273,-30.57388 0.8498243,-59.8209 0.9289173,-89.06826 0.0038,-0.98731 -0.8082173,-1.97718 -1.2398926,-2.96586 M 521.4864,351.00415 c 0.82347,-9.2675 2.32114,-18.534 2.33296,-27.80273 0.0263,-20.61257 -0.64015,-41.22763 -1.11535,-61.83919 C 521.505,209.35597 512.4011,159.1622 492.53454,111.58431 c -1.61354,-3.86422 -5.2916,-7.7631 -8.89257,-9.46119 C 426.80389,75.319493 366.97978,62.108404 305.28644,60.337576 253.33365,58.846355 201.57367,63.694658 150.36768,73.810654 122.56493,79.303206 95.070262,86.100159 69.198675,99.040288 63.135623,102.0728 59.173234,106.49735 56.55776,113.12688 c -11.055706,28.02323 -17.630797,57.08079 -21.083354,87.40129 -5.436888,47.74747 -4.065141,95.56258 -3.93145,143.40256 0.0075,2.78258 0.823505,5.56252 2.158355,9.38999 2.322722,0.24123 4.645383,0.69312 6.968132,0.69362 157.383837,0.0332 314.767657,0.0392 472.151457,-0.0449 2.69972,-0.001 5.39887,-1.12731 8.6655,-2.96523 M 171.52946,489.26892 c 63.90629,9.43987 127.89025,13.03162 191.98224,2.28083 41.49054,-6.9596 82.13765,-17.42275 120.72587,-35.84455 2.79515,-1.33437 6.3304,-2.83307 7.69147,-5.39209 12.19445,-22.92812 20.13547,-47.56678 24.8176,-73.71438 -160.80208,0 -320.88676,0 -481.414257,0 3.661619,24.52193 9.555652,47.62624 21.254981,68.42126 2.926497,5.20166 8.007326,9.76973 13.061584,12.66391 31.430462,17.99783 65.699792,25.76217 101.880512,31.58502 z"
     id="path8"
     inkscape:connector-curvature="0"
     style="fill:#036b4f;stroke-width:1" />
  <path
     d="m 9.2627645,218.73277 c 0.564705,0.20473 1.3755815,1.1946 1.3729215,2.18191 -0.07907,29.24732 -0.238878,58.49438 -0.8026211,88.27627 C 9.3207967,279.65604 9.2252658,249.58638 9.2627645,218.73277 Z"
     id="path18"
     inkscape:connector-curvature="0"
     style="fill:#005f3e;stroke-width:1" />
  <path
     d="m 9.3133155,208.14871 c 0.3368064,-0.13188 0.597331,0.11788 0.7844335,0.42061 0.04584,0.074 -0.1489671,0.32164 -0.4622916,0.63783 -0.2290594,0.14839 -0.4254674,-0.65717 -0.3221419,-1.05844 z"
     id="path20"
     inkscape:connector-curvature="0"
     style="fill:#005f3e;stroke-width:1" />
  <path
     d="m 33.253821,352.79759 c 109.616299,-0.56227 219.680219,-0.6081 329.744089,-0.63749 52.14968,-0.0137 104.29931,0.003 157.18519,0.0437 -1.96326,0.63817 -4.66243,1.76406 -7.36214,1.76549 -157.3838,0.084 -314.76764,0.078 -472.151455,0.0449 -2.32276,-5e-4 -4.645409,-0.45239 -7.415684,-1.21675 z"
     id="path32"
     inkscape:connector-curvature="0"
     style="fill:#005f3e;stroke-width:1" />
  <path
     d="m 379.64624,257.2486 c -15.75892,62.32545 -72.45734,98.42541 -128.71508,82.52348 -56.54311,-15.9826 -91.38184,-78.35297 -75.87002,-138.82065 17.52067,-68.29855 72.12236,-94.92242 126.8621,-82.3542 57.61833,13.22919 91.23881,75.06789 77.723,138.65137 z"
     id="path44"
     inkscape:connector-curvature="0"
     style="fill:#e63244;stroke-width:1" />
</svg>
