<?xml version="1.0" encoding="UTF-8"?>
<svg xmlns="http://www.w3.org/2000/svg" xmlns:xlink="http://www.w3.org/1999/xlink" width="200px" height="83px" viewBox="0 0 198 83" version="1.1">
<g id="surface1">
<path style=" stroke:none;fill-rule:nonzero;fill:rgb(86.274511%,14.901961%,14.901961%);fill-opacity:1;" d="M 62.417969 17.816406 C 62.417969 8.214844 54.519531 0.425781 44.933594 0.425781 L 0 0.425781 L 0 13.792969 L 44.027344 13.792969 C 47.394531 13.792969 49.078125 15.351562 49.078125 18.59375 L 49.078125 39.488281 C 49.078125 42.601562 47.394531 44.289062 44.027344 44.289062 L 13.339844 44.289062 L 13.339844 22.230469 L 0 22.230469 L 0 57.398438 L 43.898438 57.398438 C 49.078125 57.398438 53.480469 55.710938 56.976562 52.207031 C 60.605469 48.832031 62.289062 44.550781 62.289062 39.359375 L 62.289062 17.816406 Z M 62.417969 17.816406 "/>
<path style=" stroke:none;fill-rule:nonzero;fill:rgb(86.274511%,14.901961%,14.901961%);fill-opacity:1;" d="M 135.710938 39.75 C 135.710938 49.480469 143.613281 57.398438 153.324219 57.398438 L 198 57.398438 L 198 44.03125 L 154.359375 44.03125 C 150.863281 44.03125 149.050781 42.472656 149.050781 39.230469 L 149.050781 18.464844 C 149.050781 15.351562 150.863281 13.664062 154.359375 13.664062 L 198 13.664062 L 198 0.296875 L 153.195312 0.296875 C 143.480469 0.296875 135.710938 8.082031 135.710938 17.816406 Z M 135.710938 39.75 "/>
<path style=" stroke:none;fill-rule:nonzero;fill:rgb(86.274511%,14.901961%,14.901961%);fill-opacity:1;" d="M 130.273438 18.074219 C 131.179688 8.472656 123.023438 0.558594 113.308594 0.558594 L 60.734375 0.558594 C 64.488281 3.929688 67.207031 8.601562 68.246094 13.921875 L 112.144531 13.921875 C 114.476562 13.921875 116.417969 15.609375 116.417969 18.074219 C 116.417969 20.410156 114.085938 22.488281 111.753906 22.488281 L 68.503906 22.488281 L 68.503906 39.878906 C 68.503906 47.015625 65.394531 53.375 60.476562 57.65625 L 113.4375 57.65625 C 123.152344 57.65625 130.921875 50.519531 130.53125 40.65625 C 130.402344 36.503906 127.296875 31.832031 122.503906 29.238281 C 125.351562 27.679688 129.753906 24.046875 130.273438 18.074219 Z M 111.886719 44.289062 L 81.710938 44.289062 L 81.710938 35.726562 L 111.625 35.726562 C 113.957031 35.726562 115.898438 37.671875 115.898438 40.007812 C 115.898438 42.34375 114.214844 44.160156 111.886719 44.289062 Z M 111.886719 44.289062 "/>
<path style=" stroke:none;fill-rule:nonzero;fill:rgb(86.274511%,14.901961%,14.901961%);fill-opacity:1;" d="M 20.460938 69.335938 C 20.460938 71.023438 19.941406 72.320312 19.035156 73.488281 C 18 74.65625 16.703125 75.304688 15.023438 75.304688 L 9.839844 75.304688 C 8.417969 75.304688 7.382812 75.433594 6.734375 75.695312 C 5.828125 76.085938 5.179688 76.992188 5.050781 78.160156 L 19.554688 78.160156 L 19.554688 82.703125 L 0.128906 82.703125 L 0.128906 80.367188 C 0 74.007812 3.367188 70.761719 9.972656 70.761719 L 15.152344 70.761719 C 15.796875 70.761719 16.1875 70.246094 16.1875 69.335938 C 16.1875 68.429688 15.796875 67.910156 15.152344 67.910156 L 0.90625 67.910156 L 0.90625 63.367188 L 15.023438 63.367188 C 16.574219 63.367188 18 64.015625 19.035156 65.183594 C 20.070312 66.351562 20.460938 67.648438 20.460938 69.335938 Z M 20.460938 69.335938 "/>
<path style=" stroke:none;fill-rule:nonzero;fill:rgb(86.274511%,14.901961%,14.901961%);fill-opacity:1;" d="M 42.734375 78.808594 L 39.625 78.808594 L 39.625 82.703125 L 35.09375 82.703125 L 35.09375 78.808594 L 22.402344 78.808594 L 22.402344 74.398438 L 33.539062 63.238281 L 39.625 63.238281 L 39.625 74.265625 L 45.972656 74.265625 Z M 35.09375 74.265625 L 35.09375 67.648438 L 28.101562 74.265625 Z M 35.09375 74.265625 "/>
<path style=" stroke:none;fill-rule:nonzero;fill:rgb(86.274511%,14.901961%,14.901961%);fill-opacity:1;" d="M 60.734375 63.367188 L 48.691406 82.703125 L 42.605469 82.703125 L 55.035156 63.367188 Z M 60.734375 63.367188 "/>
<path style=" stroke:none;fill-rule:nonzero;fill:rgb(86.274511%,14.901961%,14.901961%);fill-opacity:1;" d="M 73.296875 82.703125 L 67.207031 82.703125 L 76.921875 67.910156 L 60.085938 67.910156 L 62.804688 63.367188 L 85.339844 63.367188 Z M 73.296875 82.703125 "/>
<path style=" stroke:none;fill-rule:nonzero;fill:rgb(86.274511%,14.901961%,14.901961%);fill-opacity:1;" d="M 91.296875 63.367188 L 86.246094 72.0625 L 80.160156 82.574219 L 80.160156 82.703125 L 198 82.703125 L 198 63.367188 Z M 113.566406 79.71875 L 110.332031 79.71875 C 109.425781 79.71875 108.648438 79.589844 108 79.328125 C 107.351562 79.070312 106.835938 78.550781 106.316406 77.902344 L 100.101562 70.632812 C 99.839844 70.375 99.582031 70.113281 99.324219 69.984375 C 98.933594 69.855469 98.675781 69.726562 98.289062 69.726562 L 98.160156 69.726562 L 98.160156 79.71875 L 95.050781 79.71875 L 95.050781 66.609375 L 98.289062 66.609375 C 99.195312 66.609375 99.839844 66.742188 100.488281 67 C 101.136719 67.261719 101.65625 67.777344 102.171875 68.296875 L 108.519531 75.695312 C 108.777344 75.953125 109.035156 76.214844 109.296875 76.34375 C 109.683594 76.601562 109.941406 76.601562 110.332031 76.601562 L 110.460938 76.601562 L 110.460938 66.609375 L 113.566406 66.609375 Z M 136.617188 79.71875 L 122.246094 79.71875 C 119.65625 79.71875 118.359375 78.679688 118.359375 76.472656 L 118.359375 69.855469 C 118.359375 67.777344 119.65625 66.609375 122.246094 66.609375 L 136.617188 66.609375 L 136.617188 69.597656 L 122.246094 69.597656 C 121.726562 69.597656 121.46875 69.855469 121.46875 70.246094 L 121.46875 71.542969 L 136.488281 71.542969 L 136.488281 74.527344 L 121.46875 74.527344 L 121.46875 75.824219 C 121.46875 76.214844 121.726562 76.472656 122.246094 76.472656 L 136.617188 76.472656 Z M 164.460938 78.160156 C 164.332031 78.421875 164.332031 78.679688 164.203125 78.808594 C 164.070312 79.070312 163.941406 79.199219 163.683594 79.328125 C 163.554688 79.457031 163.296875 79.589844 163.035156 79.589844 C 162.777344 79.71875 162.648438 79.71875 162.386719 79.71875 L 159.929688 79.71875 C 159.410156 79.71875 158.890625 79.589844 158.503906 79.328125 C 158.113281 79.070312 157.726562 78.679688 157.597656 78.160156 L 154.230469 69.726562 L 153.195312 69.726562 L 149.828125 78.160156 C 149.699219 78.679688 149.308594 78.9375 148.921875 79.328125 C 148.53125 79.589844 148.015625 79.71875 147.496094 79.71875 L 145.035156 79.71875 C 144.519531 79.71875 144.128906 79.589844 143.742188 79.328125 C 143.351562 79.070312 143.09375 78.679688 142.964844 78.160156 L 140.246094 66.742188 L 143.742188 66.742188 L 145.554688 76.085938 C 145.683594 76.472656 145.8125 76.734375 146.203125 76.734375 L 146.71875 76.734375 C 146.976562 76.734375 147.238281 76.472656 147.367188 76.085938 L 150.992188 66.609375 L 156.433594 66.609375 L 160.058594 76.085938 C 160.1875 76.472656 160.445312 76.734375 160.703125 76.734375 L 161.222656 76.734375 C 161.480469 76.734375 161.742188 76.472656 161.871094 76.085938 L 163.683594 66.742188 L 167.179688 66.742188 Z M 189.710938 76.601562 C 189.710938 78.679688 188.417969 79.71875 185.828125 79.71875 L 171.453125 79.71875 L 171.453125 76.734375 L 185.828125 76.734375 C 186.34375 76.734375 186.605469 76.601562 186.605469 76.214844 L 186.605469 75.175781 C 186.605469 74.917969 186.34375 74.65625 185.828125 74.65625 L 174.949219 74.65625 C 172.359375 74.65625 171.066406 73.75 171.066406 71.800781 L 171.066406 69.726562 C 171.066406 67.648438 172.359375 66.480469 174.949219 66.480469 L 189.324219 66.480469 L 189.324219 69.464844 L 174.949219 69.464844 C 174.433594 69.464844 174.171875 69.597656 174.171875 69.984375 L 174.171875 71.023438 C 174.171875 71.28125 174.433594 71.542969 174.949219 71.542969 L 185.828125 71.542969 C 188.417969 71.542969 189.710938 72.582031 189.710938 74.65625 Z M 189.710938 76.601562 "/>
</g>
</svg>
