<?xml version="1.0" encoding="UTF-8" standalone="no"?>
<svg
   width="134.80469"
   height="124.29297"
   viewBox="0 0 134.80469 123.46435"
   version="1.1"
   id="svg77"
   sodipodi:docname="দীপ্ত_টিভির_লোগো.svg"
   inkscape:version="1.3 (0e150ed6c4, 2023-07-21)"
   xmlns:inkscape="http://www.inkscape.org/namespaces/inkscape"
   xmlns:sodipodi="http://sodipodi.sourceforge.net/DTD/sodipodi-0.dtd"
   xmlns="http://www.w3.org/2000/svg"
   xmlns:svg="http://www.w3.org/2000/svg">
  <sodipodi:namedview
     id="namedview77"
     pagecolor="#ffffff"
     bordercolor="#000000"
     borderopacity="0.25"
     inkscape:showpageshadow="2"
     inkscape:pageopacity="0.0"
     inkscape:pagecheckerboard="0"
     inkscape:deskcolor="#d1d1d1"
     inkscape:zoom="5.3666667"
     inkscape:cx="67.360248"
     inkscape:cy="74.440994"
     inkscape:window-width="1920"
     inkscape:window-height="1009"
     inkscape:window-x="-8"
     inkscape:window-y="-8"
     inkscape:window-maximized="1"
     inkscape:current-layer="svg77" />
  <defs
     id="defs61">
    <linearGradient
       id="linear0"
       gradientUnits="userSpaceOnUse"
       x1="-46.6581"
       y1="670.56873"
       x2="-46.495602"
       y2="670.28717"
       gradientTransform="matrix(383.17606,0,0,-382.34373,17909.513,256396.06)">
      <stop
         offset="0.25"
         style="stop-color:rgb(20.392157%,20.392157%,20%);stop-opacity:1;"
         id="stop1" />
      <stop
         offset="0.263"
         style="stop-color:rgb(22.352941%,22.745098%,22.352941%);stop-opacity:1;"
         id="stop2" />
      <stop
         offset="0.396"
         style="stop-color:rgb(40%,43.529412%,44.313725%);stop-opacity:1;"
         id="stop3" />
      <stop
         offset="0.525"
         style="stop-color:rgb(54.901961%,61.176471%,62.352941%);stop-opacity:1;"
         id="stop4" />
      <stop
         offset="0.648"
         style="stop-color:rgb(66.666667%,74.901961%,76.470588%);stop-opacity:1;"
         id="stop5" />
      <stop
         offset="0.762"
         style="stop-color:rgb(74.901961%,84.705882%,86.666667%);stop-opacity:1;"
         id="stop6" />
      <stop
         offset="0.865"
         style="stop-color:rgb(80%,90.588235%,92.941176%);stop-opacity:1;"
         id="stop7" />
      <stop
         offset="0.946"
         style="stop-color:rgb(81.568627%,92.54902%,94.901961%);stop-opacity:1;"
         id="stop8" />
      <stop
         offset="1"
         style="stop-color:rgb(100%,100%,100%);stop-opacity:1;"
         id="stop9" />
    </linearGradient>
    <linearGradient
       id="linear1"
       gradientUnits="userSpaceOnUse"
       x1="-46.495602"
       y1="670.28717"
       x2="-46.6581"
       y2="670.56873"
       gradientTransform="matrix(383.17606,0,0,-382.34373,17909.513,256396.06)">
      <stop
         offset="0.25"
         style="stop-color:rgb(9.803922%,15.294118%,12.156863%);stop-opacity:0.101961;"
         id="stop10" />
      <stop
         offset="0.303"
         style="stop-color:rgb(18.823529%,24.705882%,22.352941%);stop-opacity:0.168627;"
         id="stop11" />
      <stop
         offset="0.428"
         style="stop-color:rgb(37.647059%,45.098039%,44.313725%);stop-opacity:0.329412;"
         id="stop12" />
      <stop
         offset="0.55"
         style="stop-color:rgb(53.333333%,62.352941%,62.352941%);stop-opacity:0.486275;"
         id="stop13" />
      <stop
         offset="0.665"
         style="stop-color:rgb(65.490196%,75.294118%,76.470588%);stop-opacity:0.635294;"
         id="stop14" />
      <stop
         offset="0.773"
         style="stop-color:rgb(74.509804%,84.705882%,86.666667%);stop-opacity:0.776471;"
         id="stop15" />
      <stop
         offset="0.87"
         style="stop-color:rgb(79.607843%,90.588235%,92.941176%);stop-opacity:0.901961;"
         id="stop16" />
      <stop
         offset="0.946"
         style="stop-color:rgb(81.568627%,92.54902%,94.901961%);stop-opacity:1;"
         id="stop17" />
      <stop
         offset="1"
         style="stop-color:rgb(100%,100%,100%);stop-opacity:1;"
         id="stop18" />
    </linearGradient>
    <linearGradient
       id="linear2"
       gradientUnits="userSpaceOnUse"
       x1="-46.5937"
       y1="670.24902"
       x2="-46.5937"
       y2="670.57397"
       gradientTransform="matrix(340.36556,0,0,-282.95463,15922.422,189759.39)">
      <stop
         offset="0"
         style="stop-color:rgb(14.901961%,66.666667%,88.235294%);stop-opacity:1;"
         id="stop19" />
      <stop
         offset="0.28"
         style="stop-color:rgb(100%,100%,100%);stop-opacity:1;"
         id="stop20" />
      <stop
         offset="0.298"
         style="stop-color:rgb(100%,99.215686%,89.411765%);stop-opacity:1;"
         id="stop21" />
      <stop
         offset="0.337"
         style="stop-color:rgb(99.607843%,97.647059%,69.411765%);stop-opacity:1;"
         id="stop22" />
      <stop
         offset="0.377"
         style="stop-color:rgb(99.215686%,96.078431%,51.764706%);stop-opacity:1;"
         id="stop23" />
      <stop
         offset="0.417"
         style="stop-color:rgb(98.823529%,94.901961%,37.647059%);stop-opacity:1;"
         id="stop24" />
      <stop
         offset="0.457"
         style="stop-color:rgb(98.823529%,94.117647%,26.27451%);stop-opacity:1;"
         id="stop25" />
      <stop
         offset="0.496"
         style="stop-color:rgb(98.431373%,93.333333%,18.431373%);stop-opacity:1;"
         id="stop26" />
      <stop
         offset="0.536"
         style="stop-color:rgb(98.431373%,92.941176%,13.72549%);stop-opacity:1;"
         id="stop27" />
      <stop
         offset="0.575"
         style="stop-color:rgb(98.431373%,92.941176%,12.156863%);stop-opacity:1;"
         id="stop28" />
      <stop
         offset="0.882"
         style="stop-color:rgb(91.764706%,13.333333%,15.294118%);stop-opacity:1;"
         id="stop29" />
    </linearGradient>
    <linearGradient
       id="linear3"
       gradientUnits="userSpaceOnUse"
       x1="-46.540699"
       y1="670.2489"
       x2="-46.646"
       y2="670.5957"
       gradientTransform="matrix(341.75492,0,0,-284.41923,15987.039,190741.42)">
      <stop
         offset="0"
         style="stop-color:rgb(14.901961%,66.666667%,88.235294%);stop-opacity:1;"
         id="stop30" />
      <stop
         offset="0.28"
         style="stop-color:rgb(100%,100%,100%);stop-opacity:1;"
         id="stop31" />
      <stop
         offset="0.298"
         style="stop-color:rgb(100%,99.215686%,89.411765%);stop-opacity:1;"
         id="stop32" />
      <stop
         offset="0.337"
         style="stop-color:rgb(99.607843%,97.647059%,69.411765%);stop-opacity:1;"
         id="stop33" />
      <stop
         offset="0.377"
         style="stop-color:rgb(99.215686%,96.078431%,51.764706%);stop-opacity:1;"
         id="stop34" />
      <stop
         offset="0.417"
         style="stop-color:rgb(98.823529%,94.901961%,37.647059%);stop-opacity:1;"
         id="stop35" />
      <stop
         offset="0.457"
         style="stop-color:rgb(98.823529%,94.117647%,26.27451%);stop-opacity:1;"
         id="stop36" />
      <stop
         offset="0.496"
         style="stop-color:rgb(98.431373%,93.333333%,18.431373%);stop-opacity:1;"
         id="stop37" />
      <stop
         offset="0.536"
         style="stop-color:rgb(98.431373%,92.941176%,13.72549%);stop-opacity:1;"
         id="stop38" />
      <stop
         offset="0.575"
         style="stop-color:rgb(98.431373%,92.941176%,12.156863%);stop-opacity:1;"
         id="stop39" />
      <stop
         offset="0.882"
         style="stop-color:rgb(91.764706%,13.333333%,15.294118%);stop-opacity:1;"
         id="stop40" />
    </linearGradient>
    <linearGradient
       id="linear4"
       gradientUnits="userSpaceOnUse"
       x1="-46.5937"
       y1="670.24902"
       x2="-46.5937"
       y2="670.57397"
       gradientTransform="matrix(340.36556,0,0,-282.95463,15922.422,189759.39)">
      <stop
         offset="0"
         style="stop-color:rgb(0%,60%,86.666667%);stop-opacity:1;"
         id="stop41" />
      <stop
         offset="0.25"
         style="stop-color:rgb(52.156863%,76.862745%,92.156863%);stop-opacity:1;"
         id="stop42" />
      <stop
         offset="0.388"
         style="stop-color:rgb(100%,100%,100%);stop-opacity:1;"
         id="stop43" />
      <stop
         offset="0.404"
         style="stop-color:rgb(100%,99.215686%,89.803922%);stop-opacity:1;"
         id="stop44" />
      <stop
         offset="0.451"
         style="stop-color:rgb(99.215686%,96.862745%,62.352941%);stop-opacity:1;"
         id="stop45" />
      <stop
         offset="0.493"
         style="stop-color:rgb(98.823529%,95.294118%,40.784314%);stop-opacity:1;"
         id="stop46" />
      <stop
         offset="0.529"
         style="stop-color:rgb(98.823529%,94.117647%,25.098039%);stop-opacity:1;"
         id="stop47" />
      <stop
         offset="0.558"
         style="stop-color:rgb(98.431373%,93.333333%,15.686275%);stop-opacity:1;"
         id="stop48" />
      <stop
         offset="0.575"
         style="stop-color:rgb(98.431373%,92.941176%,12.156863%);stop-opacity:1;"
         id="stop49" />
      <stop
         offset="0.882"
         style="stop-color:rgb(91.764706%,13.333333%,15.294118%);stop-opacity:1;"
         id="stop50" />
    </linearGradient>
    <linearGradient
       id="linear5"
       gradientUnits="userSpaceOnUse"
       x1="-46.540699"
       y1="670.2489"
       x2="-46.646"
       y2="670.5957"
       gradientTransform="matrix(341.75492,0,0,-284.41923,15987.039,190741.42)">
      <stop
         offset="0"
         style="stop-color:rgb(14.901961%,66.666667%,88.235294%);stop-opacity:1;"
         id="stop51" />
      <stop
         offset="0.28"
         style="stop-color:rgb(100%,100%,100%);stop-opacity:1;"
         id="stop52" />
      <stop
         offset="0.298"
         style="stop-color:rgb(100%,99.215686%,89.411765%);stop-opacity:1;"
         id="stop53" />
      <stop
         offset="0.337"
         style="stop-color:rgb(99.607843%,97.647059%,69.411765%);stop-opacity:1;"
         id="stop54" />
      <stop
         offset="0.377"
         style="stop-color:rgb(99.215686%,96.078431%,51.764706%);stop-opacity:1;"
         id="stop55" />
      <stop
         offset="0.417"
         style="stop-color:rgb(98.823529%,94.901961%,37.647059%);stop-opacity:1;"
         id="stop56" />
      <stop
         offset="0.457"
         style="stop-color:rgb(98.823529%,94.117647%,26.27451%);stop-opacity:1;"
         id="stop57" />
      <stop
         offset="0.496"
         style="stop-color:rgb(98.431373%,93.333333%,18.431373%);stop-opacity:1;"
         id="stop58" />
      <stop
         offset="0.536"
         style="stop-color:rgb(98.431373%,92.941176%,13.72549%);stop-opacity:1;"
         id="stop59" />
      <stop
         offset="0.575"
         style="stop-color:rgb(98.431373%,92.941176%,12.156863%);stop-opacity:1;"
         id="stop60" />
      <stop
         offset="0.882"
         style="stop-color:rgb(91.764706%,13.333333%,15.294118%);stop-opacity:1;"
         id="stop61" />
    </linearGradient>
  </defs>
  <g
     id="surface1"
     transform="translate(-0.0976562,-0.5)">
    <path
       style="fill:#211e1e;fill-opacity:1;fill-rule:nonzero;stroke:none"
       d="m 124.22656,62.148438 c 0,34.09375 -27.675779,61.707032 -61.843748,61.707032 -34.167968,0 -61.84375,-27.613282 -61.84375,-61.707032 0,-34.09375 27.675782,-61.710938 61.84375,-61.710938 34.113282,0 61.843748,27.617188 61.843748,61.710938 z m 0,0"
       id="path61" />
    <path
       style="fill:url(#linear0);fill-rule:nonzero;stroke:none"
       d="M 62.382812,124.29297 C 28.050781,124.29297 0.0976562,96.40625 0.0976562,62.148438 0.0976562,27.890625 28.050781,0 62.382812,0 c 34.332032,0 62.285158,27.890625 62.285158,62.148438 0,34.257812 -27.953126,62.144532 -62.285158,62.144532 z m 0,-123.414064 c -33.835937,0 -61.402343,27.503906 -61.402343,61.269532 0,33.761718 27.566406,61.269532 61.402343,61.269532 33.839844,0 61.402348,-27.507814 61.402348,-61.269532 0,-33.765626 -27.562504,-61.269532 -61.402348,-61.269532 z m 0,0"
       id="path62" />
    <path
       style="fill:url(#linear1);fill-rule:nonzero;stroke:none"
       d="M 62.382812,124.29297 C 28.050781,124.29297 0.0976562,96.40625 0.0976562,62.148438 0.0976562,27.890625 28.050781,0 62.382812,0 c 34.332032,0 62.285158,27.890625 62.285158,62.148438 0,34.257812 -27.953126,62.144532 -62.285158,62.144532 z m 0,-123.414064 c -33.835937,0 -61.402343,27.503906 -61.402343,61.269532 0,33.761718 27.566406,61.269532 61.402343,61.269532 33.839844,0 61.402348,-27.507814 61.402348,-61.269532 0,-33.765626 -27.562504,-61.269532 -61.402348,-61.269532 z m 0,0"
       id="path63" />
    <path
       style="fill:url(#linear2);fill-rule:nonzero;stroke:none"
       d="m 118.55859,78.234375 c -0.21875,-1.152344 -0.49609,-2.308594 -0.8789,-3.40625 -0.4961,-1.480469 -1.21094,-2.855469 -2.08985,-4.0625 -1.92578,-2.742187 -4.78906,-4.773437 -8.47656,-6.09375 0,0 -0.0547,0 -0.0547,0 V 54.460938 c 0,-0.05469 0,-0.109376 0,-0.21875 v -0.164063 c 0,-0.05469 0,-0.109375 0,-0.164063 0,-0.05859 0,-0.113281 0,-0.167968 0,-0.21875 0,-0.382813 0,-0.601563 v -0.109375 c 0,-0.109375 0,-0.222656 0.0547,-0.332031 0,-0.109375 0,-0.273437 0.0586,-0.382813 V 52.15625 c 0,-0.05469 0,-0.05469 0.0547,-0.109375 l 0.0547,-0.05469 c 0.21875,-0.441407 0.60547,-0.660157 1.21094,-0.714844 h 6.92969 l -0.0547,-0.21875 c -0.27344,-2.253906 -0.76953,-4.449219 -1.48438,-6.589844 l -0.0547,-0.164062 h -8.25391 c -0.32813,0 -0.71484,0.05469 -1.04688,0.109374 -2.14453,0.382813 -3.57421,1.371094 -4.28906,2.855469 -0.0547,-0.05469 -0.10937,-0.109375 -0.16406,-0.21875 -3.13672,-3.074219 -7.429689,-4.777343 -12.875001,-5.105469 -0.113281,0 -0.222657,-0.05469 -0.332031,-0.05469 l -15.128907,-0.05469 v 7.136718 l 11.828125,0.05469 c 1.816406,-0.05469 3.574219,-0.05469 5.390625,0.05469 0.714844,0.05469 1.375,0.109375 2.09375,0.273438 2.472657,0.4375 3.738281,1.703125 5.28125,3.292969 0.21875,0.222656 0.382813,0.386718 0.605469,0.605468 -1.375,0.492188 -2.699219,1.097656 -3.960938,1.757813 -0.550781,0.273437 -1.15625,0.546875 -1.925781,0.933593 -4.292969,2.632813 -5.890625,3.785157 -8.914062,6.421876 V 50.894531 h -6.273438 l -0.05469,17.621094 c 0.05469,0.382813 0.21875,0.714844 0.441406,1.042969 l 0.05469,0.05469 c 0.21875,0.273438 0.492187,0.550781 0.769531,0.714844 0.109375,0.05469 0.21875,0.109375 0.328125,0.164063 0.277344,0.164062 0.605468,0.273437 0.992187,0.328124 h 1.429688 v -0.05469 c 0.164062,-0.05469 0.441406,-0.164063 0.714843,-0.21875 h 0.05469 l 0.05469,-0.05469 c 0.113281,-0.109376 0.222656,-0.21875 0.332031,-0.273438 0.164062,-0.109375 0.273437,-0.21875 0.386719,-0.332031 0.164062,-0.164063 2.363281,-2.414063 2.527343,-2.632813 1.265625,-1.042968 2.039063,-1.703125 2.699219,-2.25 0.933594,-0.824218 1.539062,-1.320312 2.695312,-2.199218 4.675782,-3.128907 7.535157,-4.5 10.453126,-5.761719 v 7.027343 c -0.05469,0 -0.164063,0 -0.21875,0 -0.277344,0 -0.496094,0.05469 -0.714844,0.05469 -0.882813,0.164062 -1.707032,0.328125 -2.421875,0.492188 -2.476563,0.769531 -4.734375,2.085937 -6.601563,3.898437 -0.332031,0.328125 -0.660156,0.660156 -0.992187,1.042969 l -0.05469,0.05469 c -1.761719,1.921875 -2.917969,4.28125 -3.464843,6.808594 -0.222657,1.042969 -0.332032,2.085937 -0.332032,3.183594 0,4.28125 1.652344,8.015625 4.785156,11.035156 1.761719,1.703125 3.910157,2.855469 6.273438,3.292969 l 0.164062,0.05469 2.476563,-6.53125 -0.21875,-0.05469 c -1.265625,-0.386719 -2.367187,-1.042969 -3.300781,-1.921875 -1.761719,-1.648438 -2.695313,-3.625 -2.695313,-5.875 0,-0.824219 0.109375,-1.703125 0.382813,-2.46875 l 0.05469,-0.109375 c 0.05469,-0.05859 0.05469,-0.167969 0.113281,-0.222656 0.4375,-1.207032 1.207032,-2.25 2.144532,-3.074219 1.761718,-1.589844 3.960937,-2.414063 6.437492,-2.414063 2.36329,-0.05469 4.67579,0.824219 6.4375,2.414063 0.76954,0.660156 1.375,1.484375 1.8711,2.417969 0.0547,0.109374 0.10937,0.273437 0.16406,0.328124 0.32813,0.714844 0.60547,1.425782 0.76953,2.195313 0.9375,3.515625 0.44141,6.972656 -1.59375,10.375 -0.4414,0.824219 -0.99219,1.539063 -1.54297,2.308594 -1.21093,1.316406 -2.58593,2.46875 -4.07031,3.402343 -1.04687,0.660157 -2.14453,1.152344 -3.30078,1.59375 -1.484372,0.4375 -2.972654,0.765626 -4.511716,0.933594 -4.84375,0.546875 -9.738281,-0.109375 -14.25,-1.867187 -4.238281,-1.703125 -7.648438,-4.226563 -10.179688,-7.632813 -2.640624,-3.566406 -4.125,-8.949218 -4.402343,-15.976562 L 66.839848,69.394533 V 49.738283 C 66.56641,42.933596 65.574223,37.714846 63.867192,34.14844 c -0.382813,-0.769532 -0.824219,-1.484376 -1.320313,-2.195313 0,-0.05469 -0.05469,-0.109375 -0.109375,-0.109375 C 59.796875,27.890625 56.222656,24.539062 52.039062,22.234375 51.046875,21.6875 50.003906,21.191406 49.179688,20.808594 43.289062,18.226562 36.851562,17.238281 30.472656,18.0625 c -4.183594,0.492188 -8.253906,1.976562 -11.832031,4.226562 -0.05469,0.05469 -0.109375,0.05469 -0.164063,0.109376 l -0.21875,0.164062 c -0.496093,0.332031 -0.9375,0.660156 -1.433593,1.042969 -1.097657,0.878906 -2.144531,1.8125 -3.132813,2.800781 -0.113281,0.109375 -0.222656,0.21875 -0.332031,0.386719 -0.714844,0.765625 -1.375,1.535156 -1.925781,2.414062 -0.769532,1.097657 -1.375,2.25 -1.925782,3.515625 -0.878906,2.140625 -1.375,4.5 -1.375,6.804688 0,1.265625 0.054688,2.472656 0.273438,3.734375 0.222656,1.152343 0.496094,2.304687 0.882812,3.402343 0.492188,1.484376 1.210938,2.855469 2.089844,4.0625 1.484375,2.085938 3.519532,3.789063 6.050782,5.050782 L 17.375,88.554688 c 0.05469,0.550781 0.332031,1.097656 0.660156,1.535156 l 0.109375,0.113281 c 0.277344,0.382813 0.660157,0.765625 1.15625,0.988281 0.109375,0.05469 0.222657,0.109375 0.386719,0.164063 0.496094,0.21875 1.15625,0.546875 1.871094,0.546875 l 2.144531,-0.05469 v -0.05469 c 0.164063,-0.05469 0.550781,-0.21875 0.878906,-0.382813 h 0.05859 l 0.05469,-0.05469 c 0.164063,-0.164063 0.328126,-0.332031 0.546876,-0.441407 0.222656,-0.164062 0.441406,-0.328124 0.605468,-0.492187 0.277344,-0.273437 0.496094,-0.550781 0.828125,-0.878906 0.878907,-0.988281 8.363281,-9.554688 8.417969,-9.664063 0.21875,-0.21875 0.4375,-0.4375 0.660156,-0.710937 0.496094,-0.550781 1.097656,-1.210938 1.703125,-1.757813 0.222657,-0.21875 0.441407,-0.382812 0.660157,-0.605468 L 38.175781,76.75 c 0.988281,-0.878906 2.035157,-1.699219 2.859375,-2.359375 1.320313,-0.988281 2.75,-1.703125 4.292969,-2.140625 1.207031,-0.332031 2.144531,-0.164062 2.859375,0.601562 0.273438,0.277344 0.605469,0.933594 0.660156,2.691407 l -0.05469,32.722661 0.164062,0.0547 c 2.203125,0.71094 4.457031,1.20703 6.769531,1.42578 h 0.21875 V 81.199219 l -0.05469,-10.101563 c 0,-2.085937 -0.164063,-3.679687 -0.605469,-4.996094 -0.386718,-0.933593 -0.933594,-1.59375 -1.59375,-2.03125 -1.210937,-0.660156 -2.476562,-1.042968 -3.578125,-1.042968 -0.05469,0 -0.164062,0 -0.21875,0 -0.277343,0 -0.496093,0.05469 -0.773437,0.05469 -0.21875,0 -0.492188,0.05469 -0.714844,0.05469 -2.472656,0.273437 -4.839844,1.042969 -7.042969,2.195312 -2.472656,1.316407 -4.839843,2.910157 -6.929687,4.777344 C 33,71.425781 29.371094,75.324219 24.695312,80.648438 V 57.480469 c 0.05469,0 0.109376,0 0.164063,0 0.21875,0 0.441406,0.05469 0.605469,0.05469 h 0.109375 c 0.878906,0 1.761719,-0.05469 2.640625,-0.164062 0.9375,-0.164063 1.707031,-0.328125 2.421875,-0.496094 2.476562,-0.765625 4.730469,-2.085938 6.601562,-3.894531 0.273438,-0.277344 0.605469,-0.660157 1.046875,-1.097657 1.757813,-1.921874 2.914063,-4.285156 3.464844,-6.808593 0.21875,-1.042969 0.332031,-2.085938 0.273438,-3.183594 0,-4.339844 -1.59375,-8.015625 -4.785157,-11.089844 C 35.476562,29.097656 33.332031,28 30.964844,27.503906 l -0.164063,-0.05469 -2.476562,6.589843 0.222656,0.05469 c 1.207031,0.382812 2.363281,1.042969 3.300781,1.921875 1.816406,1.644531 2.695313,3.566406 2.695313,5.875 0,0.820313 -0.109375,1.644531 -0.386719,2.46875 l -0.05469,0.109375 c -0.05469,0.05469 -0.05469,0.164062 -0.109374,0.21875 -0.441407,1.210938 -1.210938,2.253906 -2.144532,3.074219 -1.761718,1.59375 -3.960937,2.417969 -6.4375,2.417969 -2.367187,0.05469 -4.679687,-0.824219 -6.4375,-2.417969 -0.769531,-0.65625 -1.375,-1.480469 -1.871094,-2.414063 v -0.05469 c -0.05469,-0.109375 -0.109374,-0.21875 -0.164062,-0.273438 -0.332031,-0.714843 -0.605469,-1.429687 -0.773438,-2.195312 -0.933593,-3.515625 -0.4375,-6.972657 1.597657,-10.378907 0.441406,-0.824218 0.988281,-1.589843 1.539062,-2.304687 1.210938,-1.316406 2.585938,-2.472656 4.074219,-3.402344 1.042969,-0.660156 2.144531,-1.15625 3.300781,-1.59375 1.484375,-0.4375 2.96875,-0.769531 4.511719,-0.933593 4.839844,-0.546876 9.738281,0.109374 14.304688,1.867187 4.234374,1.703125 7.648437,4.28125 10.179687,7.628906 2.695313,3.570313 4.179687,8.949219 4.457031,15.976563 l 0.109375,2.417968 v 19.652344 c 0.273438,6.808594 1.265625,12.078125 2.96875,15.59375 0.386719,0.769532 0.828125,1.480469 1.320313,2.195313 0,0.05469 0.05469,0.109375 0.113281,0.109375 2.640625,4.007812 6.214844,7.300781 10.398437,9.664062 0.988282,0.546875 2.089844,1.042978 2.859376,1.425788 4.511718,1.97656 9.355468,3.01953 14.304687,3.01953 1.488281,0 2.917969,-0.10938 4.402344,-0.27344 4.183593,-0.49609 8.253913,-1.97656 11.828123,-4.226565 0.0586,-0.05469 0.11329,-0.113281 0.16797,-0.113281 l 0.10938,-0.109376 c 0.55078,-0.382812 1.04687,-0.710937 1.53906,-1.097656 1.10156,-0.878906 2.14844,-1.8125 3.13672,-2.796875 0.38672,-0.441406 0.76953,-0.824219 1.10156,-1.265625 1.8711,-2.195312 3.19141,-4.773437 3.90625,-7.574218 0.32813,-1.429688 0.4961,-2.855469 0.4961,-4.285157 0,-1.316406 -0.10938,-2.578125 -0.33204,-3.785156 z m 0,0"
       id="path64" />
    <path
       style="fill:url(#linear3);fill-rule:nonzero;stroke:none"
       d="m 56.164062,109.58203 -0.4375,-0.0547 c -2.3125,-0.21875 -4.621093,-0.71484 -6.824218,-1.42968 l -0.273438,-0.10938 V 75.050781 c -0.05469,-1.757812 -0.386718,-2.308593 -0.605468,-2.527343 -0.660157,-0.714844 -1.488282,-0.878907 -2.640626,-0.550782 -1.542968,0.441406 -2.972656,1.15625 -4.238281,2.144532 -0.878906,0.65625 -1.925781,1.480468 -2.859375,2.359374 l -0.05469,0.05469 C 38.007812,76.75 37.789062,76.914062 37.625,77.136719 c -0.605469,0.546875 -1.210938,1.207031 -1.707031,1.753906 l -0.05469,0.05469 c -0.21875,0.277344 -0.441406,0.496094 -0.660156,0.714844 -0.05469,0 -1.980469,2.25 -4.898437,5.601563 -1.648438,1.867187 -3.191407,3.621093 -3.519532,4.007812 -0.332031,0.328125 -0.605468,0.601563 -0.824218,0.878907 -0.222657,0.21875 -0.441407,0.382812 -0.660157,0.546874 -0.167969,0.109376 -0.332031,0.21875 -0.496093,0.382813 l -0.05469,0.113281 -0.109375,0.05469 c -0.277344,0.109375 -0.550781,0.21875 -0.71875,0.328125 v 0.164062 H 21.558594 C 20.789062,91.683594 20.128906,91.355469 19.632812,91.136719 19.523438,91.078125 19.355469,91.023438 19.246094,90.96875 18.695312,90.75 18.3125,90.257812 18.035156,89.925781 l -0.109375,-0.109375 c -0.382812,-0.492187 -0.660156,-1.042968 -0.714843,-1.644531 l 0.05469,-32.667969 C 14.734375,54.242188 12.753906,52.539062 11.269531,50.453125 10.332031,49.191406 9.617188,47.761719 9.121094,46.28125 8.738281,45.183594 8.40625,44.03125 8.242188,42.824219 8.023438,41.558594 7.96875,40.351562 7.96875,39.089844 c 0,-2.363282 0.4375,-4.722656 1.375,-6.917969 C 9.839844,30.910156 10.5,29.757812 11.269531,28.65625 11.875,27.78125 12.535156,27.011719 13.25,26.242188 l 0.164062,-0.164063 c 0.05469,-0.05469 0.109376,-0.164063 0.21875,-0.21875 0.992188,-1.042969 2.039063,-1.976563 3.191407,-2.855469 0.441406,-0.386718 0.9375,-0.660156 1.378906,-0.988281 l 0.273437,-0.164063 c 0.05469,-0.05469 0.109376,-0.05469 0.164063,-0.109374 3.632813,-2.308594 7.703125,-3.734376 11.941406,-4.285157 6.382813,-0.765625 12.929688,0.167969 18.816407,2.800781 0.824218,0.386719 1.925781,0.878907 2.914062,1.429688 4.183594,2.359375 7.816406,5.707031 10.457031,9.714844 0.05469,0.05469 0.05469,0.109375 0.109375,0.164062 0.496094,0.714844 0.933594,1.429688 1.320313,2.199219 1.707031,3.566406 2.75,8.835937 3.027343,15.699219 v 19.710937 l 0.109376,2.414063 c 0.273437,6.972656 1.757812,12.351562 4.402343,15.867187 2.527344,3.347657 5.886719,5.929688 10.066407,7.574219 4.511718,1.757812 9.355468,2.417969 14.195312,1.867188 1.542969,-0.164063 3.027344,-0.492188 4.51172,-0.933594 1.10156,-0.4375 2.20312,-0.933594 3.24609,-1.589844 1.48828,-0.933594 2.86328,-2.03125 4.07422,-3.40625 0.54688,-0.710938 1.04297,-1.480469 1.53906,-2.25 1.98047,-3.347656 2.53125,-6.808594 1.53907,-10.210938 -0.16407,-0.769531 -0.4375,-1.480468 -0.76953,-2.140624 -0.0547,-0.109376 -0.10938,-0.21875 -0.16407,-0.328126 -0.4414,-0.878906 -1.04687,-1.648437 -1.8164,-2.363281 -1.70703,-1.535156 -3.96094,-2.414062 -6.27344,-2.359375 -2.41797,0 -4.566408,0.824219 -6.269532,2.359375 -0.9375,0.824219 -1.652344,1.867188 -2.09375,3.019531 -0.05469,0.109376 -0.05469,0.164063 -0.109376,0.21875 l -0.05469,0.113282 c -0.21875,0.765625 -0.382813,1.589844 -0.382813,2.414062 0,2.25 0.878907,4.171875 2.585938,5.710938 0.933594,0.875 2.035156,1.535156 3.246094,1.863281 l 0.4375,0.167969 -2.640625,6.972656 -0.328125,-0.05859 c -2.421875,-0.492187 -4.625,-1.644531 -6.382813,-3.347656 -3.246093,-3.074219 -4.898437,-6.863281 -4.898437,-11.199219 0,-1.097656 0.109375,-2.140625 0.332031,-3.238281 0.492187,-2.582031 1.703125,-4.996094 3.464844,-6.917969 l 0.109375,-0.109375 c 0.332031,-0.332031 0.605468,-0.660156 0.9375,-0.988281 1.871094,-1.8125 4.179687,-3.183594 6.710937,-3.953125 0.714844,-0.164062 1.539063,-0.328125 2.421875,-0.496094 0.273438,-0.05469 0.550782,-0.05469 0.769532,-0.05469 v -6.476563 c -2.695313,1.207032 -5.503907,2.578125 -10.125,5.597656 -1.152344,0.878907 -1.757813,1.375 -2.695313,2.199219 -0.605469,0.492188 -1.429687,1.207031 -2.695313,2.25 -0.21875,0.21875 -2.367187,2.414063 -2.53125,2.578125 -0.109374,0.113282 -0.273437,0.277344 -0.441406,0.386719 -0.109375,0.05469 -0.21875,0.164063 -0.273437,0.21875 l -0.05469,0.109375 -0.109375,0.05469 c -0.167968,0.05469 -0.386718,0.109374 -0.550781,0.164062 v 0.113281 h -1.652344 c -0.382812,0 -0.769531,-0.167969 -1.042969,-0.332031 -0.113281,-0.05469 -0.222656,-0.109375 -0.277343,-0.164062 -0.328125,-0.164063 -0.660157,-0.4375 -0.878907,-0.769532 l -0.05469,-0.05469 c -0.277344,-0.328125 -0.441406,-0.714844 -0.496094,-1.152344 l 0.05469,-17.84375 H 82.6289 v 11.367187 c 2.753906,-2.363281 4.402344,-3.515624 8.585938,-6.09375 0.714844,-0.386718 1.320312,-0.660156 1.761718,-0.878906 l 0.164063,-0.05469 c 1.210937,-0.605469 2.421875,-1.15625 3.683594,-1.648438 -0.109375,-0.109375 -0.21875,-0.21875 -0.382813,-0.382812 -1.542968,-1.59375 -2.75,-2.855469 -5.171875,-3.242188 -0.660156,-0.109375 -1.375,-0.21875 -2.035156,-0.273437 -1.761719,-0.109375 -3.578125,-0.164063 -5.394531,-0.05469 l -12.046875,-0.05469 v -7.578125 l 15.347656,0.05859 c 0.113281,0 0.222656,0 0.386719,0.05469 5.449218,0.273437 9.792968,2.03125 12.929682,5.105469 0.76953,-1.429688 2.20313,-2.308594 4.29297,-2.691406 0.32813,-0.05469 0.71484,-0.109376 1.04297,-0.164063 h 8.41797 l 0.11328,0.273437 c 0.71484,2.140626 1.15234,4.390626 1.48437,6.644532 l 0.0547,0.492187 h -7.15234 c -0.4961,0 -0.82422,0.21875 -1.04688,0.605469 l -0.0547,0.164062 v 0.0547 l -0.0547,0.05469 c 0,0.109374 -0.0547,0.164062 -0.0547,0.273437 0,0.109375 -0.0547,0.167969 -0.0547,0.277344 v 0.164062 c 0,0.164063 0,0.382813 0,0.601563 0,0.05469 0,0.109375 0,0.167968 0,0.109376 0,0.164063 0,0.21875 v 0.164063 c 0,0.05469 0,0.109375 0,0.21875 V 64.5625 c 3.74219,1.316406 6.60157,3.40625 8.52735,6.148438 0.9375,1.261718 1.65234,2.636718 2.14843,4.171874 0.38282,1.097657 0.71485,2.253907 0.87891,3.460938 0.21875,1.261719 0.27344,2.46875 0.27344,3.734375 0,1.480469 -0.16406,2.90625 -0.49219,4.335937 -0.55078,2.195313 -1.48828,4.28125 -2.80859,6.09375 -0.38282,0.546876 -0.76953,1.042969 -1.15625,1.535157 -0.38282,0.441406 -0.71485,0.878906 -1.09766,1.265625 -0.99219,1.042968 -2.03516,1.976562 -3.19141,2.855468 -0.49609,0.382813 -0.9375,0.710938 -1.54296,1.097657 l -0.10938,0.109375 c -0.0547,0.05469 -0.10937,0.05469 -0.16406,0.109375 -3.63281,2.304691 -7.70313,3.789061 -11.941405,4.281251 -1.484375,0.16406 -2.914062,0.27344 -4.398437,0.27344 -4.953125,0 -9.851563,-1.04297 -14.417969,-3.07422 -0.933594,-0.4375 -1.925781,-0.9336 -2.914063,-1.425784 -4.183593,-2.359375 -7.8125,-5.710937 -10.457031,-9.71875 -0.05469,-0.05469 -0.05469,-0.109375 -0.109375,-0.164062 -0.492187,-0.714844 -0.933594,-1.425782 -1.320312,-2.195313 -1.703125,-3.570312 -2.75,-8.839843 -3.023438,-15.703125 V 52.046875 L 60.015625,49.628906 C 59.742188,42.65625 58.257812,37.277344 55.617188,33.765625 53.085938,30.414062 49.726562,27.835938 45.546875,26.1875 41.035156,24.429688 36.191406,23.773438 31.351562,24.320312 c -1.539062,0.164063 -3.027343,0.496094 -4.511718,0.933594 -1.101563,0.441406 -2.199219,0.933594 -3.246094,1.59375 -1.484375,0.933594 -2.863281,2.03125 -4.015625,3.347656 -0.550781,0.714844 -1.101563,1.480469 -1.542969,2.25 -1.980468,3.351563 -2.53125,6.808594 -1.539062,10.210938 0.164062,0.769531 0.441406,1.484375 0.769531,2.140625 0.05469,0.05859 0.109375,0.167969 0.164063,0.332031 v 0.05469 c 0.441406,0.878906 1.046874,1.648437 1.816406,2.359375 1.707031,1.539062 3.960937,2.417969 6.273437,2.363281 2.476563,0 4.566407,-0.769531 6.273438,-2.363281 0.933593,-0.824219 1.648437,-1.867188 2.089843,-3.019531 0.05469,-0.109376 0.05469,-0.164063 0.109376,-0.21875 l 0.05469,-0.109376 c 0.21875,-0.769531 0.386719,-1.59375 0.386719,-2.359374 0,-2.253907 -0.828125,-4.121094 -2.585938,-5.710938 -0.9375,-0.878906 -2.035156,-1.539062 -3.246094,-1.867188 l -0.441406,-0.164062 2.640625,-6.972656 0.332031,0.05469 c 2.417969,0.492188 4.621094,1.648438 6.378907,3.347657 3.25,3.074218 4.898437,6.863281 4.898437,11.199218 0,1.101563 -0.109375,2.144532 -0.328125,3.1875 -0.496093,2.578125 -1.707031,4.996094 -3.523437,6.914063 -0.382813,0.441406 -0.769532,0.769531 -1.046875,1.101562 -1.867188,1.808594 -4.179688,3.183594 -6.710938,3.949219 -0.769531,0.167969 -1.539062,0.386719 -2.421875,0.496094 -0.878906,0.109375 -1.757812,0.164062 -2.695312,0.164062 h -0.109375 c -0.164063,0 -0.386719,0 -0.550781,0 v 22.34375 C 29.480469,74.773438 33,71.042969 34.378906,69.777344 c 2.089844,-1.867188 4.457032,-3.511719 6.984375,-4.773438 2.203125,-1.210937 4.625,-1.921875 7.097657,-2.253906 0.222656,0 0.441406,-0.05469 0.605468,-0.05469 h 0.277344 c 0.21875,0 0.441406,-0.05469 0.605469,-0.05469 0.109375,0 0.164062,0 0.273437,0 1.15625,0 2.421875,0.386719 3.6875,1.042969 0.714844,0.441406 1.320313,1.152344 1.707032,2.140625 0.4375,1.320312 0.605468,2.964843 0.605468,5.050781 v 10.101562 z m -7.152343,-1.92187 c 2.203125,0.71484 4.457031,1.20703 6.714843,1.42578 V 80.8125 l -0.05469,-10.101562 c 0,-2.03125 -0.222656,-3.621094 -0.605469,-4.886719 -0.332031,-0.875 -0.882812,-1.535157 -1.488281,-1.921875 -1.152344,-0.65625 -2.363281,-0.988282 -3.464844,-0.988282 -0.05469,0 -0.164062,0 -0.21875,0 -0.222656,0 -0.386719,0 -0.605469,0.05859 h -0.277343 c -0.164063,0 -0.382813,0 -0.605469,0.05469 -2.417969,0.273437 -4.785156,1.042968 -6.929688,2.195312 C 39,66.484375 36.6875,68.078125 34.597656,69.941406 c -1.429687,1.265625 -5.0625,5.21875 -9.738281,10.488282 l -0.386719,0.4375 V 56.875 l 0.386719,0.05859 c 0.21875,0 0.382813,0.05469 0.605469,0.05469 h 0.109375 c 0.878906,0 1.761719,-0.05469 2.585937,-0.167969 0.878906,-0.164062 1.652344,-0.328124 2.367188,-0.492187 2.417968,-0.769531 4.675781,-2.085937 6.492187,-3.84375 0.273438,-0.273437 0.660157,-0.660156 1.042969,-1.097656 1.707031,-1.867188 2.917969,-4.226563 3.414062,-6.699219 0.21875,-1.042969 0.328126,-2.085938 0.273438,-3.128906 0,-4.226563 -1.59375,-7.90625 -4.730469,-10.925782 C 35.3125,28.98828 33.167969,27.835937 30.855469,27.39453 l -2.308594,6.148438 c 1.265625,0.386719 2.417969,1.097656 3.355469,1.976562 1.871094,1.703125 2.75,3.679688 2.75,6.039063 0,0.878906 -0.109375,1.703125 -0.386719,2.527344 l -0.05469,0.109374 c -0.05469,0.05469 -0.05469,0.164063 -0.109376,0.21875 -0.496093,1.207032 -1.210937,2.304688 -2.199218,3.183594 -1.816406,1.648438 -4.015625,2.472656 -6.601563,2.472656 -2.421875,0.05469 -4.789062,-0.824218 -6.605469,-2.472656 -0.769531,-0.710937 -1.429687,-1.535156 -1.925781,-2.46875 v -0.05469 C 16.714844,44.964844 16.660156,44.855469 16.605469,44.796875 16.277344,44.085938 16,43.316406 15.78125,42.546875 14.789062,38.980469 15.339844,35.464844 17.375,32.007812 c 0.441406,-0.824218 0.992188,-1.59375 1.597656,-2.304687 1.210938,-1.375 2.585938,-2.527344 4.125,-3.460937 1.046875,-0.660157 2.144532,-1.207032 3.300782,-1.648438 1.488281,-0.4375 3.027343,-0.765625 4.566406,-0.929688 4.898437,-0.550781 9.796875,0.109376 14.363281,1.917969 4.234375,1.703125 7.703125,4.285157 10.289063,7.742188 2.695312,3.625 4.179687,9.003906 4.453124,16.140625 l 0.113282,2.417968 v 19.707032 c 0.273437,6.753906 1.265625,11.96875 2.96875,15.480468 0.386718,0.769532 0.828125,1.484376 1.320312,2.199219 0,0.05469 0.05469,0.05469 0.05469,0.109375 2.640625,3.953125 6.21875,7.246094 10.34375,9.605469 0.9375,0.550781 1.925781,0.988281 2.863281,1.429685 4.457031,1.97657 9.296875,3.01953 14.195313,3.01953 1.429687,0 2.914062,-0.10937 4.347656,-0.27734 4.179684,-0.49219 8.195314,-1.91797 11.718744,-4.171875 0.0547,-0.05469 0.10938,-0.109375 0.16407,-0.109375 l 0.10937,-0.05469 c 0.55078,-0.382812 1.04688,-0.714843 1.48828,-1.042968 1.09766,-0.878906 2.14453,-1.8125 3.13282,-2.800782 0.38671,-0.382812 0.71875,-0.765624 1.10156,-1.207031 0.4414,-0.546875 0.82422,-1.042969 1.15625,-1.480469 1.26562,-1.8125 2.19922,-3.84375 2.69531,-5.984374 0.33203,-1.375 0.49609,-2.800782 0.49609,-4.226563 0,-1.210937 -0.0547,-2.472656 -0.27734,-3.679687 -0.16406,-1.152344 -0.49219,-2.304688 -0.87891,-3.40625 -0.49609,-1.425782 -1.21093,-2.796876 -2.08984,-4.003907 -1.92578,-2.691406 -4.73437,-4.722656 -8.41797,-5.984375 0,0 -0.0547,0 -0.0547,0 l -0.16796,-0.05469 V 54.570312 c 0,-0.05469 0,-0.164062 0,-0.21875 v -0.109374 c 0,-0.05469 0,-0.164063 0,-0.21875 0,-0.05469 0,-0.109376 0,-0.167969 0,-0.21875 0,-0.4375 0,-0.601563 v -0.109375 c 0,-0.109375 0,-0.21875 0.0586,-0.332031 0,-0.109375 0,-0.273438 0.0547,-0.382812 l 0.0547,-0.05469 c 0,-0.05469 0.0547,-0.109375 0.0547,-0.164062 l 0.0547,-0.05469 c 0.27344,-0.550781 0.71484,-0.769531 1.42969,-0.824219 h 6.65625 c -0.27344,-2.195312 -0.76953,-4.390625 -1.42969,-6.535156 h -8.08594 c -0.33203,0 -0.66015,0.05859 -0.99219,0.113281 -2.08984,0.382813 -3.46484,1.316406 -4.125,2.742188 l -0.16796,0.332031 -0.218753,-0.277344 c -0.05469,-0.05469 -0.109375,-0.109375 -0.164063,-0.164062 -3.082031,-3.074219 -7.375,-4.777344 -12.710937,-5.050781 h -0.05469 c -0.109376,0 -0.164063,-0.05469 -0.273438,-0.05469 l -14.914062,-0.05469 v 6.699219 l 11.609374,0.05469 c 1.816407,-0.05469 3.632813,-0.05469 5.394532,0.05469 0.714844,0.05469 1.375,0.164063 2.089844,0.273438 2.53125,0.441406 3.851562,1.757812 5.449218,3.40625 0.164063,0.21875 0.382813,0.382812 0.601563,0.601562 l 0.222656,0.21875 -0.332031,0.109375 c -1.375,0.496094 -2.695313,1.042969 -3.960938,1.757813 l -0.164062,0.05469 c -0.496094,0.21875 -1.046875,0.550781 -1.761719,0.878907 -4.347656,2.636718 -5.886719,3.789062 -8.914063,6.367187 L 81.53125,63.191406 V 51.277344 h -5.832031 l -0.05469,17.402344 c 0.05469,0.332031 0.21875,0.605468 0.382813,0.878906 l 0.05469,0.05469 c 0.167969,0.273438 0.441407,0.496094 0.714844,0.660157 0.113281,0.05469 0.222656,0.109374 0.332031,0.164062 0.273438,0.164062 0.550782,0.273438 0.878906,0.273438 h 1.210938 l 0.164062,-0.05469 c 0.167969,-0.05469 0.441407,-0.164062 0.71875,-0.21875 0.109376,-0.109375 0.21875,-0.21875 0.382813,-0.328125 0.109374,-0.109376 0.277343,-0.16797 0.386718,-0.277345 0.109375,-0.164062 2.308594,-2.414062 2.53125,-2.632812 1.265625,-1.042969 2.089844,-1.757813 2.695312,-2.308594 0.933594,-0.765625 1.539063,-1.316406 2.695313,-2.195313 4.84375,-3.183593 7.703125,-4.554687 10.507812,-5.761718 l 0.332031,-0.113282 v 7.578126 l -0.441406,0.05469 c -0.21875,0 -0.496094,0 -0.714844,0.05469 -0.878906,0.164063 -1.707031,0.328126 -2.367187,0.496094 -2.417969,0.765625 -4.675781,2.085938 -6.492187,3.839844 -0.328126,0.332031 -0.660157,0.660156 -0.933594,0.933594 l -0.109375,0.109375 c -1.707031,1.867187 -2.917969,4.230469 -3.414063,6.699219 -0.21875,1.042968 -0.328125,2.085937 -0.328125,3.128906 0,4.226562 1.59375,7.90625 4.730469,10.925781 1.707031,1.648437 3.851562,2.800781 6.164062,3.238281 l 2.308594,-6.148437 c -1.265625,-0.382813 -2.417968,-1.097657 -3.355468,-1.976563 -1.816407,-1.644531 -2.75,-3.675781 -2.75,-6.039062 0,-0.878906 0.109374,-1.703125 0.382812,-2.523438 l 0.05859,-0.109375 c 0.05469,-0.113281 0.05469,-0.167969 0.109375,-0.277343 0.4375,-1.207032 1.210937,-2.304688 2.199219,-3.128907 1.816406,-1.644531 4.015624,-2.46875 6.601566,-2.46875 2.42188,-0.05469 4.78906,0.824219 6.60547,2.46875 0.76953,0.714844 1.42969,1.539063 1.92578,2.472657 0.0547,0.109374 0.10938,0.273437 0.16406,0.328124 0.32813,0.714844 0.60547,1.480469 0.82422,2.25 0.99219,3.515626 0.44141,7.082032 -1.59375,10.542969 -1.32031,2.414063 -3.30078,4.445313 -5.72265,5.761719 -1.04688,0.660156 -2.20313,1.210938 -3.35547,1.648438 -1.488289,0.4375 -3.027352,0.769531 -4.566414,0.933593 C 90.664058,98.164068 85.765621,97.503912 81.199215,95.691412 76.96484,93.988287 73.49609,91.410162 70.910152,87.949225 68.21484,84.328131 66.730465,78.890631 66.453121,71.8086 L 66.34375,69.394531 V 49.683594 c -0.273438,-6.75 -1.265625,-11.96875 -2.96875,-15.480469 -0.386719,-0.769531 -0.828125,-1.480469 -1.320312,-2.195313 0,-0.05469 -0.05859,-0.109374 -0.05859,-0.109374 -2.640625,-3.953126 -6.160156,-7.25 -10.34375,-9.554688 -0.988282,-0.546875 -2.035156,-1.042969 -2.859375,-1.425781 -5.832031,-2.582031 -12.269531,-3.515625 -18.597657,-2.746094 -4.179687,0.496094 -8.199218,1.921875 -11.71875,4.171875 -0.05469,0.05469 -0.109374,0.109375 -0.21875,0.109375 l -0.222656,0.164063 c -0.4375,0.332031 -0.933594,0.660156 -1.375,0.988281 -1.101562,0.878906 -2.144531,1.8125 -3.136718,2.800781 -0.05469,0.05469 -0.109376,0.164062 -0.21875,0.21875 l -0.109376,0.167969 c -0.714843,0.710937 -1.320312,1.535156 -1.925781,2.359375 -0.769531,1.097656 -1.375,2.25 -1.871093,3.457031 -0.878907,2.144531 -1.320313,4.449219 -1.320313,6.753906 0,1.207031 0.054687,2.472657 0.273437,3.679688 0.167969,1.152343 0.496094,2.25 0.882813,3.347656 0.492187,1.425781 1.152344,2.800781 2.089844,4.007813 1.484375,2.03125 3.464843,3.734374 5.941406,4.941406 l 0.109375,0.05469 -0.05469,32.886719 c 0.05469,0.492188 0.277344,0.988281 0.605469,1.425781 l 0.109375,0.109375 c 0.277344,0.332032 0.660156,0.769532 1.046875,0.933594 0.109375,0.05469 0.273438,0.109375 0.386719,0.164062 0.492188,0.222657 1.097656,0.496094 1.757812,0.550782 l 1.871094,-0.05469 0.109375,-0.05469 c 0.167969,-0.05469 0.550781,-0.21875 0.882813,-0.386719 0.164062,-0.164062 0.328125,-0.328125 0.550781,-0.492188 0.21875,-0.109374 0.382813,-0.273437 0.601563,-0.496093 0.222656,-0.273438 0.496093,-0.546875 0.828124,-0.875 0.328126,-0.386719 1.871094,-2.144531 3.519532,-4.007813 2.257812,-2.582031 4.84375,-5.546875 4.898437,-5.601562 0.21875,-0.21875 0.382813,-0.4375 0.605469,-0.660156 l 0.05469,-0.05469 c 0.496093,-0.546875 1.101562,-1.207031 1.703124,-1.753906 0.222657,-0.222656 0.441407,-0.386719 0.660157,-0.605469 h 0.05859 c 0.988282,-0.878906 2.035157,-1.703125 2.914063,-2.414063 1.320313,-0.988281 2.804687,-1.703124 4.402344,-2.199218 1.320312,-0.382813 2.3125,-0.164063 3.082031,0.660156 0.4375,0.4375 0.660156,1.371094 0.714844,2.855469 z m 0,0"
       id="path65" />
    <path
       style="fill:url(#linear4);fill-rule:nonzero;stroke:none"
       d="m 118.55859,78.234375 c -0.21875,-1.152344 -0.49609,-2.308594 -0.8789,-3.40625 -0.4961,-1.480469 -1.21094,-2.855469 -2.08985,-4.0625 -1.92578,-2.742187 -4.78906,-4.773437 -8.47656,-6.09375 0,0 -0.0547,0 -0.0547,0 V 54.460938 c 0,-0.05469 0,-0.109376 0,-0.21875 v -0.164063 c 0,-0.05469 0,-0.109375 0,-0.164063 0,-0.05859 0,-0.113281 0,-0.167968 0,-0.21875 0,-0.382813 0,-0.601563 v -0.109375 c 0,-0.109375 0,-0.222656 0.0547,-0.332031 0,-0.109375 0,-0.273437 0.0586,-0.382813 V 52.15625 c 0,-0.05469 0,-0.05469 0.0547,-0.109375 l 0.0547,-0.05469 c 0.21875,-0.441407 0.60547,-0.660157 1.21094,-0.714844 h 6.92969 l -0.0547,-0.21875 c -0.27344,-2.253906 -0.76953,-4.449219 -1.48438,-6.589844 l -0.0547,-0.164062 h -8.25391 c -0.32813,0 -0.71484,0.05469 -1.04688,0.109374 -2.14453,0.382813 -3.57421,1.371094 -4.28906,2.855469 -0.0547,-0.05469 -0.10937,-0.109375 -0.16406,-0.21875 -3.13672,-3.074219 -7.429689,-4.777343 -12.875001,-5.105469 -0.113281,0 -0.222657,-0.05469 -0.332031,-0.05469 l -15.128907,-0.05469 v 7.136718 l 11.828125,0.05469 c 1.816406,-0.05469 3.574219,-0.05469 5.390625,0.05469 0.714844,0.05469 1.375,0.109375 2.09375,0.273438 2.472657,0.4375 3.738281,1.703125 5.28125,3.292969 0.21875,0.222656 0.382813,0.386718 0.605469,0.605468 -1.375,0.492188 -2.699219,1.097656 -3.960938,1.757813 -0.550781,0.273437 -1.15625,0.546875 -1.925781,0.933593 -4.292969,2.632813 -5.890625,3.785157 -8.914062,6.421876 V 50.894531 h -6.273438 l -0.05469,17.621094 c 0.05469,0.382813 0.21875,0.714844 0.441406,1.042969 l 0.05469,0.05469 c 0.21875,0.273438 0.492187,0.550781 0.769531,0.714844 0.109375,0.05469 0.21875,0.109375 0.328125,0.164063 0.277344,0.164062 0.605468,0.273437 0.992187,0.328124 h 1.429688 v -0.05469 c 0.164062,-0.05469 0.441406,-0.164063 0.714843,-0.21875 h 0.05469 l 0.05469,-0.05469 c 0.113281,-0.109376 0.222656,-0.21875 0.332031,-0.273438 0.164062,-0.109375 0.273437,-0.21875 0.386719,-0.332031 0.164062,-0.164063 2.363281,-2.414063 2.527343,-2.632813 1.265625,-1.042968 2.039063,-1.703125 2.699219,-2.25 0.933594,-0.824218 1.539062,-1.320312 2.695312,-2.199218 4.675782,-3.128907 7.535157,-4.5 10.453126,-5.761719 v 7.027343 c -0.05469,0 -0.164063,0 -0.21875,0 -0.277344,0 -0.496094,0.05469 -0.714844,0.05469 -0.882813,0.164062 -1.707032,0.328125 -2.421875,0.492188 -2.476563,0.769531 -4.734375,2.085937 -6.601563,3.898437 -0.332031,0.328125 -0.660156,0.660156 -0.992187,1.042969 l -0.05469,0.05469 c -1.761719,1.921875 -2.917969,4.28125 -3.464843,6.808594 -0.222657,1.042969 -0.332032,2.085937 -0.332032,3.183594 0,4.28125 1.652344,8.015625 4.785156,11.035156 1.761719,1.703125 3.910157,2.855469 6.273438,3.292969 l 0.164062,0.05469 2.476563,-6.53125 -0.21875,-0.05469 c -1.265625,-0.386719 -2.367187,-1.042969 -3.300781,-1.921875 -1.761719,-1.648438 -2.695313,-3.625 -2.695313,-5.875 0,-0.824219 0.109375,-1.703125 0.382813,-2.46875 l 0.05469,-0.109375 c 0.05469,-0.05859 0.05469,-0.167969 0.113281,-0.222656 0.4375,-1.207032 1.207032,-2.25 2.144532,-3.074219 1.761718,-1.589844 3.960937,-2.414063 6.437492,-2.414063 2.36329,-0.05469 4.67579,0.824219 6.4375,2.414063 0.76954,0.660156 1.375,1.484375 1.8711,2.417969 0.0547,0.109374 0.10937,0.273437 0.16406,0.328124 0.32813,0.714844 0.60547,1.425782 0.76953,2.195313 0.9375,3.515625 0.44141,6.972656 -1.59375,10.375 -0.4414,0.824219 -0.99219,1.539063 -1.54297,2.308594 -1.21093,1.316406 -2.58593,2.46875 -4.07031,3.402343 -1.04687,0.660157 -2.14453,1.152344 -3.30078,1.59375 -1.484372,0.4375 -2.972654,0.765626 -4.511716,0.933594 -4.84375,0.546875 -9.738281,-0.109375 -14.25,-1.867187 -4.238281,-1.703125 -7.648438,-4.226563 -10.179688,-7.632813 -2.640624,-3.566406 -4.125,-8.949218 -4.402343,-15.976562 L 66.839848,69.394533 V 49.738283 C 66.56641,42.933596 65.574223,37.714846 63.867192,34.14844 c -0.382813,-0.769532 -0.824219,-1.484376 -1.320313,-2.195313 0,-0.05469 -0.05469,-0.109375 -0.109375,-0.109375 C 59.796875,27.890625 56.222656,24.539062 52.039062,22.234375 51.046875,21.6875 50.003906,21.191406 49.179688,20.808594 43.289062,18.226562 36.851562,17.238281 30.472656,18.0625 c -4.183594,0.492188 -8.253906,1.976562 -11.832031,4.226562 -0.05469,0.05469 -0.109375,0.05469 -0.164063,0.109376 l -0.21875,0.164062 c -0.496093,0.332031 -0.9375,0.660156 -1.433593,1.042969 -1.097657,0.878906 -2.144531,1.8125 -3.132813,2.800781 -0.113281,0.109375 -0.222656,0.21875 -0.332031,0.386719 -0.714844,0.765625 -1.375,1.535156 -1.925781,2.414062 -0.769532,1.097657 -1.375,2.25 -1.925782,3.515625 -0.878906,2.140625 -1.375,4.5 -1.375,6.804688 0,1.265625 0.054688,2.472656 0.273438,3.734375 0.222656,1.152343 0.496094,2.304687 0.882812,3.402343 0.492188,1.484376 1.210938,2.855469 2.089844,4.0625 1.484375,2.085938 3.519532,3.789063 6.050782,5.050782 L 17.375,88.554688 c 0.05469,0.550781 0.332031,1.097656 0.660156,1.535156 l 0.109375,0.113281 c 0.277344,0.382813 0.660157,0.765625 1.15625,0.988281 0.109375,0.05469 0.222657,0.109375 0.386719,0.164063 0.496094,0.21875 1.15625,0.546875 1.871094,0.546875 l 2.144531,-0.05469 v -0.05469 c 0.164063,-0.05469 0.550781,-0.21875 0.878906,-0.382813 h 0.05859 l 0.05469,-0.05469 c 0.164063,-0.164063 0.328126,-0.332031 0.546876,-0.441407 0.222656,-0.164062 0.441406,-0.328124 0.605468,-0.492187 0.277344,-0.273437 0.496094,-0.550781 0.828125,-0.878906 0.878907,-0.988281 8.363281,-9.554688 8.417969,-9.664063 0.21875,-0.21875 0.4375,-0.4375 0.660156,-0.710937 0.496094,-0.550781 1.097656,-1.210938 1.703125,-1.757813 0.222657,-0.21875 0.441407,-0.382812 0.660157,-0.605468 L 38.175781,76.75 c 0.988281,-0.878906 2.035157,-1.699219 2.859375,-2.359375 1.320313,-0.988281 2.75,-1.703125 4.292969,-2.140625 1.207031,-0.332031 2.144531,-0.164062 2.859375,0.601562 0.273438,0.277344 0.605469,0.933594 0.660156,2.691407 l -0.05469,32.722661 0.164062,0.0547 c 2.203125,0.71094 4.457031,1.20703 6.769531,1.42578 h 0.21875 V 81.199219 l -0.05469,-10.101563 c 0,-2.085937 -0.164063,-3.679687 -0.605469,-4.996094 -0.386718,-0.933593 -0.933594,-1.59375 -1.59375,-2.03125 -1.210937,-0.660156 -2.476562,-1.042968 -3.578125,-1.042968 -0.05469,0 -0.164062,0 -0.21875,0 -0.277343,0 -0.496093,0.05469 -0.773437,0.05469 -0.21875,0 -0.492188,0.05469 -0.714844,0.05469 -2.472656,0.273437 -4.839844,1.042969 -7.042969,2.195312 -2.472656,1.316407 -4.839843,2.910157 -6.929687,4.777344 C 33,71.425781 29.371094,75.324219 24.695312,80.648438 V 57.480469 c 0.05469,0 0.109376,0 0.164063,0 0.21875,0 0.441406,0.05469 0.605469,0.05469 h 0.109375 c 0.878906,0 1.761719,-0.05469 2.640625,-0.164062 0.9375,-0.164063 1.707031,-0.328125 2.421875,-0.496094 2.476562,-0.765625 4.730469,-2.085938 6.601562,-3.894531 0.273438,-0.277344 0.605469,-0.660157 1.046875,-1.097657 1.757813,-1.921874 2.914063,-4.285156 3.464844,-6.808593 0.21875,-1.042969 0.332031,-2.085938 0.273438,-3.183594 0,-4.339844 -1.59375,-8.015625 -4.785157,-11.089844 C 35.476562,29.097656 33.332031,28 30.964844,27.503906 l -0.164063,-0.05469 -2.476562,6.589843 0.222656,0.05469 c 1.207031,0.382812 2.363281,1.042969 3.300781,1.921875 1.816406,1.644531 2.695313,3.566406 2.695313,5.875 0,0.820313 -0.109375,1.644531 -0.386719,2.46875 l -0.05469,0.109375 c -0.05469,0.05469 -0.05469,0.164062 -0.109374,0.21875 -0.441407,1.210938 -1.210938,2.253906 -2.144532,3.074219 -1.761718,1.59375 -3.960937,2.417969 -6.4375,2.417969 -2.367187,0.05469 -4.679687,-0.824219 -6.4375,-2.417969 -0.769531,-0.65625 -1.375,-1.480469 -1.871094,-2.414063 v -0.05469 c -0.05469,-0.109375 -0.109374,-0.21875 -0.164062,-0.273438 -0.332031,-0.714843 -0.605469,-1.429687 -0.773438,-2.195312 -0.933593,-3.515625 -0.4375,-6.972657 1.597657,-10.378907 0.441406,-0.824218 0.988281,-1.589843 1.539062,-2.304687 1.210938,-1.316406 2.585938,-2.472656 4.074219,-3.402344 1.042969,-0.660156 2.144531,-1.15625 3.300781,-1.59375 1.484375,-0.4375 2.96875,-0.769531 4.511719,-0.933593 4.839844,-0.546876 9.738281,0.109374 14.304688,1.867187 4.234374,1.703125 7.648437,4.28125 10.179687,7.628906 2.695313,3.570313 4.179687,8.949219 4.457031,15.976563 l 0.109375,2.417968 v 19.652344 c 0.273438,6.808594 1.265625,12.078125 2.96875,15.59375 0.386719,0.769532 0.828125,1.480469 1.320313,2.195313 0,0.05469 0.05469,0.109375 0.113281,0.109375 2.640625,4.007812 6.214844,7.300781 10.398437,9.664062 0.988282,0.546875 2.089844,1.042978 2.859376,1.425788 4.511718,1.97656 9.355468,3.01953 14.304687,3.01953 1.488281,0 2.917969,-0.10938 4.402344,-0.27344 4.183593,-0.49609 8.253913,-1.97656 11.828123,-4.226565 0.0586,-0.05469 0.11329,-0.113281 0.16797,-0.113281 l 0.10938,-0.109376 c 0.55078,-0.382812 1.04687,-0.710937 1.53906,-1.097656 1.10156,-0.878906 2.14844,-1.8125 3.13672,-2.796875 0.38672,-0.441406 0.76953,-0.824219 1.10156,-1.265625 1.8711,-2.195312 3.19141,-4.773437 3.90625,-7.574218 0.32813,-1.429688 0.4961,-2.855469 0.4961,-4.285157 0,-1.316406 -0.10938,-2.578125 -0.33204,-3.785156 z m 0,0"
       id="path66" />
    <path
       style="fill:url(#linear5);fill-rule:nonzero;stroke:none"
       d="m 56.164062,109.58203 -0.4375,-0.0547 c -2.3125,-0.21875 -4.621093,-0.71484 -6.824218,-1.42968 l -0.273438,-0.10938 V 75.050781 c -0.05469,-1.757812 -0.386718,-2.308593 -0.605468,-2.527343 -0.660157,-0.714844 -1.488282,-0.878907 -2.640626,-0.550782 -1.542968,0.441406 -2.972656,1.15625 -4.238281,2.144532 -0.878906,0.65625 -1.925781,1.480468 -2.859375,2.359374 l -0.05469,0.05469 C 38.007812,76.75 37.789062,76.914062 37.625,77.136719 c -0.605469,0.546875 -1.210938,1.207031 -1.707031,1.753906 l -0.05469,0.05469 c -0.21875,0.277344 -0.441406,0.496094 -0.660156,0.714844 -0.05469,0 -1.980469,2.25 -4.898437,5.601563 -1.648438,1.867187 -3.191407,3.621093 -3.519532,4.007812 -0.332031,0.328125 -0.605468,0.601563 -0.824218,0.878907 -0.222657,0.21875 -0.441407,0.382812 -0.660157,0.546874 -0.167969,0.109376 -0.332031,0.21875 -0.496093,0.382813 l -0.05469,0.113281 -0.109375,0.05469 c -0.277344,0.109375 -0.550781,0.21875 -0.71875,0.328125 v 0.164062 H 21.558594 C 20.789062,91.683594 20.128906,91.355469 19.632812,91.136719 19.523438,91.078125 19.355469,91.023438 19.246094,90.96875 18.695312,90.75 18.3125,90.257812 18.035156,89.925781 l -0.109375,-0.109375 c -0.382812,-0.492187 -0.660156,-1.042968 -0.714843,-1.644531 l 0.05469,-32.667969 C 14.734375,54.242188 12.753906,52.539062 11.269531,50.453125 10.332031,49.191406 9.617188,47.761719 9.121094,46.28125 8.738281,45.183594 8.40625,44.03125 8.242188,42.824219 8.023438,41.558594 7.96875,40.351562 7.96875,39.089844 c 0,-2.363282 0.4375,-4.722656 1.375,-6.917969 C 9.839844,30.910156 10.5,29.757812 11.269531,28.65625 11.875,27.78125 12.535156,27.011719 13.25,26.242188 l 0.164062,-0.164063 c 0.05469,-0.05469 0.109376,-0.164063 0.21875,-0.21875 0.992188,-1.042969 2.039063,-1.976563 3.191407,-2.855469 0.441406,-0.386718 0.9375,-0.660156 1.378906,-0.988281 l 0.273437,-0.164063 c 0.05469,-0.05469 0.109376,-0.05469 0.164063,-0.109374 3.632813,-2.308594 7.703125,-3.734376 11.941406,-4.285157 6.382813,-0.765625 12.929688,0.167969 18.816407,2.800781 0.824218,0.386719 1.925781,0.878907 2.914062,1.429688 4.183594,2.359375 7.816406,5.707031 10.457031,9.714844 0.05469,0.05469 0.05469,0.109375 0.109375,0.164062 0.496094,0.714844 0.933594,1.429688 1.320313,2.199219 1.707031,3.566406 2.75,8.835937 3.027343,15.699219 v 19.710937 l 0.109376,2.414063 c 0.273437,6.972656 1.757812,12.351562 4.402343,15.867187 2.527344,3.347657 5.886719,5.929688 10.066407,7.574219 4.511718,1.757812 9.355468,2.417969 14.195312,1.867188 1.542969,-0.164063 3.027344,-0.492188 4.51172,-0.933594 1.10156,-0.4375 2.20312,-0.933594 3.24609,-1.589844 1.48828,-0.933594 2.86328,-2.03125 4.07422,-3.40625 0.54688,-0.710938 1.04297,-1.480469 1.53906,-2.25 1.98047,-3.347656 2.53125,-6.808594 1.53907,-10.210938 -0.16407,-0.769531 -0.4375,-1.480468 -0.76953,-2.140624 -0.0547,-0.109376 -0.10938,-0.21875 -0.16407,-0.328126 -0.4414,-0.878906 -1.04687,-1.648437 -1.8164,-2.363281 -1.70703,-1.535156 -3.96094,-2.414062 -6.27344,-2.359375 -2.41797,0 -4.566408,0.824219 -6.269532,2.359375 -0.9375,0.824219 -1.652344,1.867188 -2.09375,3.019531 -0.05469,0.109376 -0.05469,0.164063 -0.109376,0.21875 l -0.05469,0.113282 c -0.21875,0.765625 -0.382813,1.589844 -0.382813,2.414062 0,2.25 0.878907,4.171875 2.585938,5.710938 0.933594,0.875 2.035156,1.535156 3.246094,1.863281 l 0.4375,0.167969 -2.640625,6.972656 -0.328125,-0.05859 c -2.421875,-0.492187 -4.625,-1.644531 -6.382813,-3.347656 -3.246093,-3.074219 -4.898437,-6.863281 -4.898437,-11.199219 0,-1.097656 0.109375,-2.140625 0.332031,-3.238281 0.492187,-2.582031 1.703125,-4.996094 3.464844,-6.917969 l 0.109375,-0.109375 c 0.332031,-0.332031 0.605468,-0.660156 0.9375,-0.988281 1.871094,-1.8125 4.179687,-3.183594 6.710937,-3.953125 0.714844,-0.164062 1.539063,-0.328125 2.421875,-0.496094 0.273438,-0.05469 0.550782,-0.05469 0.769532,-0.05469 v -6.476563 c -2.695313,1.207032 -5.503907,2.578125 -10.125,5.597656 -1.152344,0.878907 -1.757813,1.375 -2.695313,2.199219 -0.605469,0.492188 -1.429687,1.207031 -2.695313,2.25 -0.21875,0.21875 -2.367187,2.414063 -2.53125,2.578125 -0.109374,0.113282 -0.273437,0.277344 -0.441406,0.386719 -0.109375,0.05469 -0.21875,0.164063 -0.273437,0.21875 l -0.05469,0.109375 -0.109375,0.05469 c -0.167968,0.05469 -0.386718,0.109374 -0.550781,0.164062 v 0.113281 h -1.652344 c -0.382812,0 -0.769531,-0.167969 -1.042969,-0.332031 -0.113281,-0.05469 -0.222656,-0.109375 -0.277343,-0.164062 -0.328125,-0.164063 -0.660157,-0.4375 -0.878907,-0.769532 l -0.05469,-0.05469 c -0.277344,-0.328125 -0.441406,-0.714844 -0.496094,-1.152344 l 0.05469,-17.84375 H 82.6289 v 11.367187 c 2.753906,-2.363281 4.402344,-3.515624 8.585938,-6.09375 0.714844,-0.386718 1.320312,-0.660156 1.761718,-0.878906 l 0.164063,-0.05469 c 1.210937,-0.605469 2.421875,-1.15625 3.683594,-1.648438 -0.109375,-0.109375 -0.21875,-0.21875 -0.382813,-0.382812 -1.542968,-1.59375 -2.75,-2.855469 -5.171875,-3.242188 -0.660156,-0.109375 -1.375,-0.21875 -2.035156,-0.273437 -1.761719,-0.109375 -3.578125,-0.164063 -5.394531,-0.05469 l -12.046875,-0.05469 v -7.578125 l 15.347656,0.05859 c 0.113281,0 0.222656,0 0.386719,0.05469 5.449218,0.273437 9.792968,2.03125 12.929682,5.105469 0.76953,-1.429688 2.20313,-2.308594 4.29297,-2.691406 0.32813,-0.05469 0.71484,-0.109376 1.04297,-0.164063 h 8.41797 l 0.11328,0.273437 c 0.71484,2.140626 1.15234,4.390626 1.48437,6.644532 l 0.0547,0.492187 h -7.15234 c -0.4961,0 -0.82422,0.21875 -1.04688,0.605469 l -0.0547,0.164062 v 0.0547 l -0.0547,0.05469 c 0,0.109374 -0.0547,0.164062 -0.0547,0.273437 0,0.109375 -0.0547,0.167969 -0.0547,0.277344 v 0.164062 c 0,0.164063 0,0.382813 0,0.601563 0,0.05469 0,0.109375 0,0.167968 0,0.109376 0,0.164063 0,0.21875 v 0.164063 c 0,0.05469 0,0.109375 0,0.21875 V 64.5625 c 3.74219,1.316406 6.60157,3.40625 8.52735,6.148438 0.9375,1.261718 1.65234,2.636718 2.14843,4.171874 0.38282,1.097657 0.71485,2.253907 0.87891,3.460938 0.21875,1.261719 0.27344,2.46875 0.27344,3.734375 0,1.480469 -0.16406,2.90625 -0.49219,4.335937 -0.55078,2.195313 -1.48828,4.28125 -2.80859,6.09375 -0.38282,0.546876 -0.76953,1.042969 -1.15625,1.535157 -0.38282,0.441406 -0.71485,0.878906 -1.09766,1.265625 -0.99219,1.042968 -2.03516,1.976562 -3.19141,2.855468 -0.49609,0.382813 -0.9375,0.710938 -1.54296,1.097657 l -0.10938,0.109375 c -0.0547,0.05469 -0.10937,0.05469 -0.16406,0.109375 -3.63281,2.304691 -7.70313,3.789061 -11.941405,4.281251 -1.484375,0.16406 -2.914062,0.27344 -4.398437,0.27344 -4.953125,0 -9.851563,-1.04297 -14.417969,-3.07422 -0.933594,-0.4375 -1.925781,-0.9336 -2.914063,-1.425784 -4.183593,-2.359375 -7.8125,-5.710937 -10.457031,-9.71875 -0.05469,-0.05469 -0.05469,-0.109375 -0.109375,-0.164062 -0.492187,-0.714844 -0.933594,-1.425782 -1.320312,-2.195313 -1.703125,-3.570312 -2.75,-8.839843 -3.023438,-15.703125 V 52.046875 L 60.015625,49.628906 C 59.742188,42.65625 58.257812,37.277344 55.617188,33.765625 53.085938,30.414062 49.726562,27.835938 45.546875,26.1875 41.035156,24.429688 36.191406,23.773438 31.351562,24.320312 c -1.539062,0.164063 -3.027343,0.496094 -4.511718,0.933594 -1.101563,0.441406 -2.199219,0.933594 -3.246094,1.59375 -1.484375,0.933594 -2.863281,2.03125 -4.015625,3.347656 -0.550781,0.714844 -1.101563,1.480469 -1.542969,2.25 -1.980468,3.351563 -2.53125,6.808594 -1.539062,10.210938 0.164062,0.769531 0.441406,1.484375 0.769531,2.140625 0.05469,0.05859 0.109375,0.167969 0.164063,0.332031 v 0.05469 c 0.441406,0.878906 1.046874,1.648437 1.816406,2.359375 1.707031,1.539062 3.960937,2.417969 6.273437,2.363281 2.476563,0 4.566407,-0.769531 6.273438,-2.363281 0.933593,-0.824219 1.648437,-1.867188 2.089843,-3.019531 0.05469,-0.109376 0.05469,-0.164063 0.109376,-0.21875 l 0.05469,-0.109376 c 0.21875,-0.769531 0.386719,-1.59375 0.386719,-2.359374 0,-2.253907 -0.828125,-4.121094 -2.585938,-5.710938 -0.9375,-0.878906 -2.035156,-1.539062 -3.246094,-1.867188 l -0.441406,-0.164062 2.640625,-6.972656 0.332031,0.05469 c 2.417969,0.492188 4.621094,1.648438 6.378907,3.347657 3.25,3.074218 4.898437,6.863281 4.898437,11.199218 0,1.101563 -0.109375,2.144532 -0.328125,3.1875 -0.496093,2.578125 -1.707031,4.996094 -3.523437,6.914063 -0.382813,0.441406 -0.769532,0.769531 -1.046875,1.101562 -1.867188,1.808594 -4.179688,3.183594 -6.710938,3.949219 -0.769531,0.167969 -1.539062,0.386719 -2.421875,0.496094 -0.878906,0.109375 -1.757812,0.164062 -2.695312,0.164062 h -0.109375 c -0.164063,0 -0.386719,0 -0.550781,0 v 22.34375 C 29.480469,74.773438 33,71.042969 34.378906,69.777344 c 2.089844,-1.867188 4.457032,-3.511719 6.984375,-4.773438 2.203125,-1.210937 4.625,-1.921875 7.097657,-2.253906 0.222656,0 0.441406,-0.05469 0.605468,-0.05469 h 0.277344 c 0.21875,0 0.441406,-0.05469 0.605469,-0.05469 0.109375,0 0.164062,0 0.273437,0 1.15625,0 2.421875,0.386719 3.6875,1.042969 0.714844,0.441406 1.320313,1.152344 1.707032,2.140625 0.4375,1.320312 0.605468,2.964843 0.605468,5.050781 v 10.101562 z m -7.152343,-1.92187 c 2.203125,0.71484 4.457031,1.20703 6.714843,1.42578 V 80.8125 l -0.05469,-10.101562 c 0,-2.03125 -0.222656,-3.621094 -0.605469,-4.886719 -0.332031,-0.875 -0.882812,-1.535157 -1.488281,-1.921875 -1.152344,-0.65625 -2.363281,-0.988282 -3.464844,-0.988282 -0.05469,0 -0.164062,0 -0.21875,0 -0.222656,0 -0.386719,0 -0.605469,0.05859 h -0.277343 c -0.164063,0 -0.382813,0 -0.605469,0.05469 -2.417969,0.273437 -4.785156,1.042968 -6.929688,2.195312 C 39,66.484375 36.6875,68.078125 34.597656,69.941406 c -1.429687,1.265625 -5.0625,5.21875 -9.738281,10.488282 l -0.386719,0.4375 V 56.875 l 0.386719,0.05859 c 0.21875,0 0.382813,0.05469 0.605469,0.05469 h 0.109375 c 0.878906,0 1.761719,-0.05469 2.585937,-0.167969 0.878906,-0.164062 1.652344,-0.328124 2.367188,-0.492187 2.417968,-0.769531 4.675781,-2.085937 6.492187,-3.84375 0.273438,-0.273437 0.660157,-0.660156 1.042969,-1.097656 1.707031,-1.867188 2.917969,-4.226563 3.414062,-6.699219 0.21875,-1.042969 0.328126,-2.085938 0.273438,-3.128906 0,-4.226563 -1.59375,-7.90625 -4.730469,-10.925782 C 35.3125,28.98828 33.167969,27.835937 30.855469,27.39453 l -2.308594,6.148438 c 1.265625,0.386719 2.417969,1.097656 3.355469,1.976562 1.871094,1.703125 2.75,3.679688 2.75,6.039063 0,0.878906 -0.109375,1.703125 -0.386719,2.527344 l -0.05469,0.109374 c -0.05469,0.05469 -0.05469,0.164063 -0.109376,0.21875 -0.496093,1.207032 -1.210937,2.304688 -2.199218,3.183594 -1.816406,1.648438 -4.015625,2.472656 -6.601563,2.472656 -2.421875,0.05469 -4.789062,-0.824218 -6.605469,-2.472656 -0.769531,-0.710937 -1.429687,-1.535156 -1.925781,-2.46875 v -0.05469 C 16.714844,44.964844 16.660156,44.855469 16.605469,44.796875 16.277344,44.085938 16,43.316406 15.78125,42.546875 14.789062,38.980469 15.339844,35.464844 17.375,32.007812 c 0.441406,-0.824218 0.992188,-1.59375 1.597656,-2.304687 1.210938,-1.375 2.585938,-2.527344 4.125,-3.460937 1.046875,-0.660157 2.144532,-1.207032 3.300782,-1.648438 1.488281,-0.4375 3.027343,-0.765625 4.566406,-0.929688 4.898437,-0.550781 9.796875,0.109376 14.363281,1.917969 4.234375,1.703125 7.703125,4.285157 10.289063,7.742188 2.695312,3.625 4.179687,9.003906 4.453124,16.140625 l 0.113282,2.417968 v 19.707032 c 0.273437,6.753906 1.265625,11.96875 2.96875,15.480468 0.386718,0.769532 0.828125,1.484376 1.320312,2.199219 0,0.05469 0.05469,0.05469 0.05469,0.109375 2.640625,3.953125 6.21875,7.246094 10.34375,9.605469 0.9375,0.550781 1.925781,0.988281 2.863281,1.429685 4.457031,1.97657 9.296875,3.01953 14.195313,3.01953 1.429687,0 2.914062,-0.10937 4.347656,-0.27734 4.179684,-0.49219 8.195314,-1.91797 11.718744,-4.171875 0.0547,-0.05469 0.10938,-0.109375 0.16407,-0.109375 l 0.10937,-0.05469 c 0.55078,-0.382812 1.04688,-0.714843 1.48828,-1.042968 1.09766,-0.878906 2.14453,-1.8125 3.13282,-2.800782 0.38671,-0.382812 0.71875,-0.765624 1.10156,-1.207031 0.4414,-0.546875 0.82422,-1.042969 1.15625,-1.480469 1.26562,-1.8125 2.19922,-3.84375 2.69531,-5.984374 0.33203,-1.375 0.49609,-2.800782 0.49609,-4.226563 0,-1.210937 -0.0547,-2.472656 -0.27734,-3.679687 -0.16406,-1.152344 -0.49219,-2.304688 -0.87891,-3.40625 -0.49609,-1.425782 -1.21093,-2.796876 -2.08984,-4.003907 -1.92578,-2.691406 -4.73437,-4.722656 -8.41797,-5.984375 0,0 -0.0547,0 -0.0547,0 l -0.16796,-0.05469 V 54.570312 c 0,-0.05469 0,-0.164062 0,-0.21875 v -0.109374 c 0,-0.05469 0,-0.164063 0,-0.21875 0,-0.05469 0,-0.109376 0,-0.167969 0,-0.21875 0,-0.4375 0,-0.601563 v -0.109375 c 0,-0.109375 0,-0.21875 0.0586,-0.332031 0,-0.109375 0,-0.273438 0.0547,-0.382812 l 0.0547,-0.05469 c 0,-0.05469 0.0547,-0.109375 0.0547,-0.164062 l 0.0547,-0.05469 c 0.27344,-0.550781 0.71484,-0.769531 1.42969,-0.824219 h 6.65625 c -0.27344,-2.195312 -0.76953,-4.390625 -1.42969,-6.535156 h -8.08594 c -0.33203,0 -0.66015,0.05859 -0.99219,0.113281 -2.08984,0.382813 -3.46484,1.316406 -4.125,2.742188 l -0.16796,0.332031 -0.218753,-0.277344 c -0.05469,-0.05469 -0.109375,-0.109375 -0.164063,-0.164062 -3.082031,-3.074219 -7.375,-4.777344 -12.710937,-5.050781 h -0.05469 c -0.109376,0 -0.164063,-0.05469 -0.273438,-0.05469 l -14.914062,-0.05469 v 6.699219 l 11.609374,0.05469 c 1.816407,-0.05469 3.632813,-0.05469 5.394532,0.05469 0.714844,0.05469 1.375,0.164063 2.089844,0.273438 2.53125,0.441406 3.851562,1.757812 5.449218,3.40625 0.164063,0.21875 0.382813,0.382812 0.601563,0.601562 l 0.222656,0.21875 -0.332031,0.109375 c -1.375,0.496094 -2.695313,1.042969 -3.960938,1.757813 l -0.164062,0.05469 c -0.496094,0.21875 -1.046875,0.550781 -1.761719,0.878907 -4.347656,2.636718 -5.886719,3.789062 -8.914063,6.367187 L 81.53125,63.191406 V 51.277344 h -5.832031 l -0.05469,17.402344 c 0.05469,0.332031 0.21875,0.605468 0.382813,0.878906 l 0.05469,0.05469 c 0.167969,0.273438 0.441407,0.496094 0.714844,0.660157 0.113281,0.05469 0.222656,0.109374 0.332031,0.164062 0.273438,0.164062 0.550782,0.273438 0.878906,0.273438 h 1.210938 l 0.164062,-0.05469 c 0.167969,-0.05469 0.441407,-0.164062 0.71875,-0.21875 0.109376,-0.109375 0.21875,-0.21875 0.382813,-0.328125 0.109374,-0.109376 0.277343,-0.16797 0.386718,-0.277345 0.109375,-0.164062 2.308594,-2.414062 2.53125,-2.632812 1.265625,-1.042969 2.089844,-1.757813 2.695312,-2.308594 0.933594,-0.765625 1.539063,-1.316406 2.695313,-2.195313 4.84375,-3.183593 7.703125,-4.554687 10.507812,-5.761718 l 0.332031,-0.113282 v 7.578126 l -0.441406,0.05469 c -0.21875,0 -0.496094,0 -0.714844,0.05469 -0.878906,0.164063 -1.707031,0.328126 -2.367187,0.496094 -2.417969,0.765625 -4.675781,2.085938 -6.492187,3.839844 -0.328126,0.332031 -0.660157,0.660156 -0.933594,0.933594 l -0.109375,0.109375 c -1.707031,1.867187 -2.917969,4.230469 -3.414063,6.699219 -0.21875,1.042968 -0.328125,2.085937 -0.328125,3.128906 0,4.226562 1.59375,7.90625 4.730469,10.925781 1.707031,1.648437 3.851562,2.800781 6.164062,3.238281 l 2.308594,-6.148437 c -1.265625,-0.382813 -2.417968,-1.097657 -3.355468,-1.976563 -1.816407,-1.644531 -2.75,-3.675781 -2.75,-6.039062 0,-0.878906 0.109374,-1.703125 0.382812,-2.523438 l 0.05859,-0.109375 c 0.05469,-0.113281 0.05469,-0.167969 0.109375,-0.277343 0.4375,-1.207032 1.210937,-2.304688 2.199219,-3.128907 1.816406,-1.644531 4.015624,-2.46875 6.601566,-2.46875 2.42188,-0.05469 4.78906,0.824219 6.60547,2.46875 0.76953,0.714844 1.42969,1.539063 1.92578,2.472657 0.0547,0.109374 0.10938,0.273437 0.16406,0.328124 0.32813,0.714844 0.60547,1.480469 0.82422,2.25 0.99219,3.515626 0.44141,7.082032 -1.59375,10.542969 -1.32031,2.414063 -3.30078,4.445313 -5.72265,5.761719 -1.04688,0.660156 -2.20313,1.210938 -3.35547,1.648438 -1.488289,0.4375 -3.027352,0.769531 -4.566414,0.933593 C 90.664058,98.164068 85.765621,97.503912 81.199215,95.691412 76.96484,93.988287 73.49609,91.410162 70.910152,87.949225 68.21484,84.328131 66.730465,78.890631 66.453121,71.8086 L 66.34375,69.394531 V 49.683594 c -0.273438,-6.75 -1.265625,-11.96875 -2.96875,-15.480469 -0.386719,-0.769531 -0.828125,-1.480469 -1.320312,-2.195313 0,-0.05469 -0.05859,-0.109374 -0.05859,-0.109374 -2.640625,-3.953126 -6.160156,-7.25 -10.34375,-9.554688 -0.988282,-0.546875 -2.035156,-1.042969 -2.859375,-1.425781 -5.832031,-2.582031 -12.269531,-3.515625 -18.597657,-2.746094 -4.179687,0.496094 -8.199218,1.921875 -11.71875,4.171875 -0.05469,0.05469 -0.109374,0.109375 -0.21875,0.109375 l -0.222656,0.164063 c -0.4375,0.332031 -0.933594,0.660156 -1.375,0.988281 -1.101562,0.878906 -2.144531,1.8125 -3.136718,2.800781 -0.05469,0.05469 -0.109376,0.164062 -0.21875,0.21875 l -0.109376,0.167969 c -0.714843,0.710937 -1.320312,1.535156 -1.925781,2.359375 -0.769531,1.097656 -1.375,2.25 -1.871093,3.457031 -0.878907,2.144531 -1.320313,4.449219 -1.320313,6.753906 0,1.207031 0.054687,2.472657 0.273437,3.679688 0.167969,1.152343 0.496094,2.25 0.882813,3.347656 0.492187,1.425781 1.152344,2.800781 2.089844,4.007813 1.484375,2.03125 3.464843,3.734374 5.941406,4.941406 l 0.109375,0.05469 -0.05469,32.886719 c 0.05469,0.492188 0.277344,0.988281 0.605469,1.425781 l 0.109375,0.109375 c 0.277344,0.332032 0.660156,0.769532 1.046875,0.933594 0.109375,0.05469 0.273438,0.109375 0.386719,0.164062 0.492188,0.222657 1.097656,0.496094 1.757812,0.550782 l 1.871094,-0.05469 0.109375,-0.05469 c 0.167969,-0.05469 0.550781,-0.21875 0.882813,-0.386719 0.164062,-0.164062 0.328125,-0.328125 0.550781,-0.492188 0.21875,-0.109374 0.382813,-0.273437 0.601563,-0.496093 0.222656,-0.273438 0.496093,-0.546875 0.828124,-0.875 0.328126,-0.386719 1.871094,-2.144531 3.519532,-4.007813 2.257812,-2.582031 4.84375,-5.546875 4.898437,-5.601562 0.21875,-0.21875 0.382813,-0.4375 0.605469,-0.660156 l 0.05469,-0.05469 c 0.496093,-0.546875 1.101562,-1.207031 1.703124,-1.753906 0.222657,-0.222656 0.441407,-0.386719 0.660157,-0.605469 h 0.05859 c 0.988282,-0.878906 2.035157,-1.703125 2.914063,-2.414063 1.320313,-0.988281 2.804687,-1.703124 4.402344,-2.199218 1.320312,-0.382813 2.3125,-0.164063 3.082031,0.660156 0.4375,0.4375 0.660156,1.371094 0.714844,2.855469 z m 0,0"
       id="path67" />
    <path
       style="fill:#919497;fill-opacity:1;fill-rule:nonzero;stroke:none"
       d="m 122.46484,15.480469 h -2.69531 v -5.050781 h -4.34765 v 5.050781 h -2.69532 V 4.226562 h 2.69532 v 4.28125 h 4.34765 v -4.28125 h 2.69531 z m 0,0"
       id="path76" />
    <path
       style="fill:#919497;fill-opacity:1;fill-rule:nonzero;stroke:none"
       d="m 124.94141,4.226562 c 1.375,-0.054687 2.86328,-0.164062 4.73046,-0.164062 3.85157,0 5.23047,1.316406 5.23047,5.765625 0,4.445313 -1.3789,5.761719 -5.23047,5.761719 -1.81249,0 -3.35546,-0.05469 -4.73046,-0.164063 z m 2.69531,9.445313 c 0.60547,0 1.32031,0 2.03515,0 1.81641,0 2.36719,-0.878906 2.36719,-3.84375 0,-2.964844 -0.55078,-3.84375 -2.36719,-3.84375 h -2.03515 z m 0,0"
       id="path77" />
  </g>
</svg>
