<?xml version="1.0" encoding="UTF-8"?>
<svg xmlns="http://www.w3.org/2000/svg" xmlns:xlink="http://www.w3.org/1999/xlink" width="150px" height="58px" viewBox="0 0 151 58" version="1.1">
<defs>
<linearGradient id="linear0" gradientUnits="userSpaceOnUse" x1="429.161713" y1="8.9686" x2="450.286194" y2="186.571106" gradientTransform="matrix(0.251667,0,0,0.252174,0,0)">
<stop offset="0" style="stop-color:rgb(55.294118%,12.54902%,15.294118%);stop-opacity:1;"/>
<stop offset="1" style="stop-color:rgb(38.039216%,0%,0%);stop-opacity:1;"/>
</linearGradient>
<linearGradient id="linear1" gradientUnits="userSpaceOnUse" x1="153.681" y1="41.651299" x2="174.801895" y2="219.223099" gradientTransform="matrix(0.251667,0,0,0.252174,0,0)">
<stop offset="0" style="stop-color:rgb(55.294118%,12.54902%,15.294118%);stop-opacity:1;"/>
<stop offset="1" style="stop-color:rgb(38.039216%,0%,0%);stop-opacity:1;"/>
</linearGradient>
<linearGradient id="linear2" gradientUnits="userSpaceOnUse" x1="435.7901" y1="39.428299" x2="435.7901" y2="202.224899" >
<stop offset="0" style="stop-color:rgb(92.156863%,12.54902%,15.294118%);stop-opacity:1;"/>
<stop offset="1" style="stop-color:rgb(53.72549%,9.411765%,10.196078%);stop-opacity:1;"/>
</linearGradient>
<linearGradient id="linear3" gradientUnits="userSpaceOnUse" x1="296.445496" y1="113.299103" x2="575.134827" y2="113.299103" >
<stop offset="0" style="stop-color:rgb(92.156863%,12.54902%,15.294118%);stop-opacity:1;"/>
<stop offset="1" style="stop-color:rgb(53.72549%,9.411765%,10.196078%);stop-opacity:1;"/>
</linearGradient>
<linearGradient id="linear4" gradientUnits="userSpaceOnUse" x1="160.014801" y1="39.428299" x2="160.014801" y2="202.224899" >
<stop offset="0" style="stop-color:rgb(92.156863%,12.54902%,15.294118%);stop-opacity:1;"/>
<stop offset="1" style="stop-color:rgb(53.72549%,9.411765%,10.196078%);stop-opacity:1;"/>
</linearGradient>
<linearGradient id="linear5" gradientUnits="userSpaceOnUse" x1="23.2523" y1="114.019699" x2="296.777313" y2="114.019699" >
<stop offset="0" style="stop-color:rgb(92.156863%,12.54902%,15.294118%);stop-opacity:1;"/>
<stop offset="1" style="stop-color:rgb(53.72549%,9.411765%,10.196078%);stop-opacity:1;"/>
</linearGradient>
<filter id="alpha" filterUnits="objectBoundingBox" x="0%" y="0%" width="100%" height="100%">
  <feColorMatrix type="matrix" in="SourceGraphic" values="0 0 0 0 1 0 0 0 0 1 0 0 0 0 1 0 0 0 1 0"/>
</filter>
<mask id="mask0">
  <g filter="url(#alpha)">
<rect x="0" y="0" width="151" height="58" style="fill:rgb(0%,0%,0%);fill-opacity:0.2;stroke:none;"/>
  </g>
</mask>
<clipPath id="clip1">
  <rect x="0" y="0" width="151" height="58"/>
</clipPath>
<g id="surface5" clip-path="url(#clip1)">
<path style=" stroke:none;fill-rule:nonzero;fill:rgb(100%,100%,100%);fill-opacity:1;" d="M 136.167969 6.527344 C 132.113281 3.601562 126.46875 2.230469 121.144531 2.671875 C 116.136719 3.089844 111.464844 5.054688 107.992188 8.214844 C 107.742188 8.441406 107.5 8.675781 107.261719 8.910156 C 100.449219 2.8125 89.203125 2.785156 87.613281 2.808594 L 74.648438 2.808594 L 74.648438 13.371094 L 85.507812 13.371094 C 86.921875 13.34375 91.472656 13.285156 95.1875 14.027344 C 99.960938 15.042969 101.320312 18.394531 101.695312 20.476562 C 101.757812 20.84375 101.792969 21.207031 101.792969 21.550781 C 101.792969 22.023438 101.765625 22.46875 101.722656 22.890625 C 105.34375 22.449219 108.992188 22.023438 112.660156 21.613281 C 112.617188 16.027344 118.199219 13.515625 122.023438 13.203125 C 126.164062 12.859375 131.144531 14.4375 133.246094 19.523438 C 136.839844 19.195312 140.449219 18.886719 144.0625 18.597656 C 142.808594 13.519531 140.117188 9.382812 136.167969 6.527344 Z M 136.167969 6.527344 "/>
</g>
<mask id="mask1">
  <g filter="url(#alpha)">
<rect x="0" y="0" width="151" height="58" style="fill:rgb(0%,0%,0%);fill-opacity:0.2;stroke:none;"/>
  </g>
</mask>
<clipPath id="clip2">
  <rect x="0" y="0" width="151" height="58"/>
</clipPath>
<g id="surface8" clip-path="url(#clip2)">
<path style=" stroke:none;fill-rule:nonzero;fill:rgb(100%,100%,100%);fill-opacity:1;" d="M 65.773438 18.15625 L 44.117188 27.324219 L 44.117188 13.367188 L 65.804688 13.367188 L 65.804688 2.808594 L 30.816406 2.804688 C 17.28125 2.804688 5.839844 14.695312 5.839844 28.769531 C 5.839844 31.96875 6.414062 35.0625 7.503906 37.941406 C 10.964844 37.265625 14.535156 36.582031 18.191406 35.890625 C 17.019531 33.683594 16.421875 31.222656 16.421875 28.769531 C 16.421875 20.5625 23.148438 13.363281 30.8125 13.363281 L 33.53125 13.363281 L 33.53125 33.101562 C 46.433594 30.824219 60.242188 28.578125 74.648438 26.492188 L 74.648438 24.394531 Z M 65.773438 18.15625 "/>
</g>
<linearGradient id="linear6" gradientUnits="userSpaceOnUse" x1="454.985504" y1="186.955093" x2="454.985504" y2="222.229599" gradientTransform="matrix(0.251667,0,0,0.252174,0,0)">
<stop offset="0" style="stop-color:rgb(2.745098%,54.117647%,47.45098%);stop-opacity:1;"/>
<stop offset="1" style="stop-color:rgb(2.745098%,33.72549%,46.27451%);stop-opacity:1;"/>
</linearGradient>
<linearGradient id="linear7" gradientUnits="userSpaceOnUse" x1="334.748688" y1="186.955093" x2="334.748688" y2="222.229599" gradientTransform="matrix(0.251667,0,0,0.252174,0,0)">
<stop offset="0" style="stop-color:rgb(2.745098%,54.117647%,47.45098%);stop-opacity:1;"/>
<stop offset="1" style="stop-color:rgb(2.745098%,33.72549%,46.27451%);stop-opacity:1;"/>
</linearGradient>
<linearGradient id="linear8" gradientUnits="userSpaceOnUse" x1="399.868805" y1="186.955093" x2="399.868805" y2="222.229599" gradientTransform="matrix(0.251667,0,0,0.252174,0,0)">
<stop offset="0" style="stop-color:rgb(2.745098%,54.117647%,47.45098%);stop-opacity:1;"/>
<stop offset="1" style="stop-color:rgb(2.745098%,33.72549%,46.27451%);stop-opacity:1;"/>
</linearGradient>
<linearGradient id="linear9" gradientUnits="userSpaceOnUse" x1="432.213287" y1="186.955093" x2="432.213287" y2="222.229599" gradientTransform="matrix(0.251667,0,0,0.252174,0,0)">
<stop offset="0" style="stop-color:rgb(2.745098%,54.117647%,47.45098%);stop-opacity:1;"/>
<stop offset="1" style="stop-color:rgb(2.745098%,33.72549%,46.27451%);stop-opacity:1;"/>
</linearGradient>
<linearGradient id="linear10" gradientUnits="userSpaceOnUse" x1="484.707703" y1="186.955093" x2="484.707703" y2="222.229599" gradientTransform="matrix(0.251667,0,0,0.252174,0,0)">
<stop offset="0" style="stop-color:rgb(2.745098%,54.117647%,47.45098%);stop-opacity:1;"/>
<stop offset="1" style="stop-color:rgb(2.745098%,33.72549%,46.27451%);stop-opacity:1;"/>
</linearGradient>
<linearGradient id="linear11" gradientUnits="userSpaceOnUse" x1="369.166687" y1="186.955093" x2="369.166687" y2="222.229599" gradientTransform="matrix(0.251667,0,0,0.252174,0,0)">
<stop offset="0" style="stop-color:rgb(2.745098%,54.117647%,47.45098%);stop-opacity:1;"/>
<stop offset="1" style="stop-color:rgb(2.745098%,33.72549%,46.27451%);stop-opacity:1;"/>
</linearGradient>
</defs>
<g id="surface1">
<path style=" stroke:none;fill-rule:nonzero;fill:url(#linear0);" d="M 134.578125 55.007812 L 145.117188 55.007812 L 145.160156 43 C 145.160156 30.675781 145.164062 23.339844 145.035156 22.082031 L 145.015625 21.921875 C 144.164062 15.523438 141.246094 10.355469 136.578125 6.984375 C 132.527344 4.058594 126.886719 2.691406 121.566406 3.132812 C 116.5625 3.550781 111.894531 5.515625 108.425781 8.667969 C 108.175781 8.898438 107.933594 9.128906 107.699219 9.367188 C 100.890625 3.273438 89.652344 3.246094 88.066406 3.269531 L 75.109375 3.269531 L 74.648438 13.371094 L 75.109375 13.824219 L 85.960938 13.824219 C 87.371094 13.800781 91.921875 13.738281 95.628906 14.480469 C 100.398438 15.492188 101.757812 18.84375 102.132812 20.921875 C 102.195312 21.292969 102.230469 21.648438 102.230469 21.996094 C 102.230469 25.9375 100.632812 28.070312 98.261719 28.898438 C 95.789062 29.761719 92.015625 27.503906 88.929688 23.636719 L 81.113281 30.664062 C 85.773438 36.511719 91.457031 39.667969 96.996094 39.667969 C 98.601562 39.667969 100.195312 39.40625 101.746094 38.863281 C 103.929688 38.101562 105.863281 36.84375 107.476562 35.195312 C 108.101562 35.804688 108.738281 36.3125 109.347656 36.734375 C 115.097656 40.714844 123.597656 40.03125 127.972656 39.140625 L 127.972656 29.039062 L 127.511719 28.578125 C 125.519531 28.875 122.359375 29.730469 120.023438 29.539062 C 115.3125 29.03125 113.769531 25.972656 113.273438 24.242188 C 113.175781 23.675781 113.105469 23.027344 113.078125 22.28125 C 112.882812 16.539062 118.570312 13.976562 122.445312 13.65625 C 126.847656 13.289062 132.199219 15.097656 134.03125 20.992188 C 134.375 22.101562 134.539062 23.261719 134.566406 24.421875 C 134.636719 27.164062 134.234375 35.859375 134.117188 54.554688 Z M 134.578125 55.007812 "/>
<path style=" stroke:none;fill-rule:nonzero;fill:url(#linear1);" d="M 44.601562 27.761719 L 44.601562 13.820312 L 66.269531 13.820312 L 66.269531 3.269531 L 65.800781 2.808594 L 31.308594 3.269531 C 17.78125 3.269531 6.355469 15.152344 6.355469 29.210938 C 6.355469 36.0625 8.960938 42.457031 13.699219 47.21875 C 18.648438 52.199219 25.59375 54.941406 33.253906 54.941406 L 55.730469 54.941406 L 55.730469 44.386719 L 55.269531 43.929688 L 33.253906 44.386719 C 22.535156 44.386719 16.929688 36.75 16.929688 29.210938 C 16.929688 21.011719 23.648438 13.820312 31.308594 13.820312 L 34.023438 13.820312 L 34.023438 35.222656 L 42.324219 40.28125 L 64.53125 30.183594 L 64.070312 54.699219 L 64.53125 55.15625 L 75.105469 55.15625 L 75.105469 24.839844 L 74.648438 24.394531 Z M 44.601562 27.761719 "/>
<path style="fill-rule:nonzero;fill:url(#linear2);stroke-width:0.3319;stroke-linecap:butt;stroke-linejoin:miter;stroke:url(#linear3);stroke-miterlimit:10;" d="M 574.467094 85.75431 L 574.389487 85.103718 C 571.005795 59.746094 559.426738 39.252425 540.862997 25.884294 C 524.767177 14.282058 502.354098 8.860453 481.213783 10.610857 C 461.346233 12.252829 442.782492 20.04445 428.999379 32.560614 C 428.006002 33.459052 427.043667 34.37298 426.112376 35.333378 C 399.058361 11.153017 354.402939 11.060075 348.1012 11.153017 L 296.616308 11.153017 L 296.616308 52.992322 L 339.735099 52.992322 C 345.338369 52.89938 363.420944 52.667026 378.166391 55.594693 C 397.102649 59.622171 402.504139 72.91285 403.994205 81.153691 C 404.24255 82.609779 404.382243 84.034887 404.382243 85.413524 C 404.382243 101.043238 398.03394 109.500943 388.612376 112.784887 C 378.787252 116.192753 365.625 109.067214 353.362997 93.731816 L 320.472889 119.771013 C 338.990066 142.959995 361.573882 155.476158 383.583402 155.476158 C 389.962748 155.476158 396.29553 154.422818 402.457575 152.285156 C 411.134106 149.264547 418.81726 144.27667 425.227649 137.739763 C 427.726614 140.15625 430.241101 142.169989 432.662459 143.842942 C 455.510141 159.627559 489.284975 156.916756 506.669081 153.384968 L 506.669081 113.296067 C 498.970406 114.519801 484.876863 116.084321 475.082781 115.278825 C 456.363825 113.265086 450.232823 101.15167 448.277111 94.273976 C 447.873551 92.027883 447.594164 89.456492 447.485513 86.497845 C 446.709437 63.727101 469.308775 53.580954 484.706126 52.295259 C 502.198882 50.854661 523.463369 58.02667 530.742964 81.386045 C 532.108858 85.800781 532.760762 90.385911 532.869412 95.00202 C 533.1488 105.876212 533.412666 136.237204 532.94702 210.358297 C 532.931498 213.688712 532.915977 215.795393 532.915977 216.306573 L 574.793046 216.306573 L 574.963783 168.673895 C 574.963783 119.817484 574.963783 90.726697 574.467094 85.75431 Z M 574.467094 85.75431 " transform="matrix(0.251667,0,0,0.252174,0,0)"/>
<path style="fill-rule:nonzero;fill:url(#linear4);stroke-width:0.3319;stroke-linecap:butt;stroke-linejoin:miter;stroke:url(#linear5);stroke-miterlimit:10;" d="M 175.393212 108.277209 L 175.393212 52.976832 L 261.491101 52.976832 L 261.491101 11.137527 L 122.573469 11.122037 C 68.822434 11.122037 23.421978 58.243534 23.421978 113.99313 C 23.421978 141.16312 33.774834 166.536234 52.602442 185.403421 C 72.268212 205.153556 99.86548 216.027748 130.303187 216.027748 L 219.614031 216.027748 L 219.614031 174.172953 L 130.303187 174.172953 C 87.727649 174.172953 65.438742 143.904903 65.438742 113.99313 C 65.438742 81.494477 92.135762 52.961342 122.573469 52.961342 L 133.360927 52.961342 L 133.360927 137.832705 L 166.344164 157.892645 L 254.584023 117.850216 L 254.584023 216.895205 L 296.616308 216.895205 L 296.616308 96.674973 L 261.366929 71.936961 Z M 175.393212 108.277209 " transform="matrix(0.251667,0,0,0.252174,0,0)"/>
<use xlink:href="#surface5" mask="url(#mask0)"/>
<use xlink:href="#surface8" mask="url(#mask1)"/>
<path style=" stroke:none;fill-rule:nonzero;fill:url(#linear6);" d="M 114.503906 52.460938 C 113.902344 52.460938 113.410156 52.953125 113.410156 53.558594 C 113.410156 54.160156 113.898438 54.652344 114.503906 54.652344 C 115.109375 54.652344 115.601562 54.160156 115.601562 53.558594 C 115.601562 52.953125 115.109375 52.460938 114.503906 52.460938 Z M 114.503906 52.460938 "/>
<path style=" stroke:none;fill-rule:nonzero;fill:url(#linear7);" d="M 82.195312 47.367188 C 81.679688 47.683594 81.269531 48.136719 80.96875 48.710938 C 80.667969 49.289062 80.515625 49.984375 80.515625 50.78125 C 80.515625 51.566406 80.667969 52.253906 80.96875 52.832031 C 81.269531 53.410156 81.679688 53.863281 82.195312 54.183594 C 82.707031 54.503906 83.292969 54.667969 83.933594 54.667969 C 83.949219 54.667969 85.300781 54.765625 86.175781 53.84375 L 86.222656 53.792969 L 86.765625 54.554688 L 87.96875 54.554688 L 87.96875 44.097656 L 86.074219 44.097656 L 86.074219 47.503906 L 85.980469 47.445312 C 85.191406 46.941406 84.304688 46.890625 83.976562 46.890625 C 83.894531 46.890625 83.851562 46.890625 83.847656 46.890625 C 83.238281 46.910156 82.683594 47.066406 82.195312 47.367188 Z M 84.28125 48.597656 C 84.621094 48.597656 84.929688 48.6875 85.207031 48.863281 C 85.480469 49.039062 85.703125 49.292969 85.867188 49.613281 C 86.03125 49.933594 86.109375 50.328125 86.109375 50.78125 C 86.109375 51.222656 86.027344 51.613281 85.867188 51.941406 C 85.703125 52.265625 85.480469 52.519531 85.207031 52.695312 C 84.933594 52.875 84.621094 52.960938 84.28125 52.960938 C 83.9375 52.960938 83.621094 52.875 83.347656 52.695312 C 83.074219 52.519531 82.847656 52.265625 82.6875 51.941406 C 82.523438 51.613281 82.445312 51.226562 82.445312 50.78125 C 82.445312 50.328125 82.527344 49.933594 82.6875 49.613281 C 82.851562 49.292969 83.074219 49.039062 83.347656 48.863281 C 83.625 48.691406 83.9375 48.597656 84.28125 48.597656 Z M 84.28125 48.597656 "/>
<path style=" stroke:none;fill-rule:nonzero;fill:url(#linear8);" d="M 102.996094 50.640625 C 102.757812 50.484375 102.484375 50.367188 102.191406 50.285156 C 101.894531 50.199219 101.59375 50.132812 101.300781 50.09375 C 101 50.050781 100.722656 50 100.476562 49.941406 C 100.222656 49.882812 100.011719 49.804688 99.855469 49.707031 C 99.6875 49.601562 99.601562 49.4375 99.601562 49.230469 C 99.601562 49 99.714844 48.8125 99.9375 48.667969 C 100.15625 48.527344 100.496094 48.457031 100.953125 48.457031 C 101.273438 48.457031 101.609375 48.5 101.957031 48.582031 C 102.28125 48.660156 102.605469 48.800781 102.929688 49 L 103.101562 48.597656 L 103.695312 47.230469 L 103.519531 47.117188 L 103.050781 47.269531 L 103.03125 47.261719 C 102.832031 47.183594 102.613281 47.117188 102.386719 47.0625 C 101.902344 46.949219 101.417969 46.894531 100.949219 46.894531 C 100.292969 46.894531 99.714844 47 99.246094 47.210938 C 98.773438 47.417969 98.410156 47.707031 98.164062 48.0625 C 97.917969 48.421875 97.796875 48.84375 97.796875 49.316406 C 97.796875 49.742188 97.867188 50.09375 98.015625 50.355469 C 98.160156 50.621094 98.355469 50.835938 98.59375 50.992188 C 98.839844 51.152344 99.113281 51.269531 99.40625 51.347656 C 99.703125 51.429688 100.003906 51.492188 100.296875 51.539062 C 100.597656 51.585938 100.871094 51.636719 101.121094 51.683594 C 101.375 51.730469 101.582031 51.804688 101.738281 51.898438 C 101.90625 52 101.992188 52.152344 101.992188 52.355469 C 101.992188 52.59375 101.886719 52.78125 101.675781 52.917969 C 101.46875 53.046875 101.136719 53.109375 100.65625 53.109375 C 100.230469 53.109375 99.789062 53.039062 99.351562 52.902344 C 98.941406 52.769531 98.574219 52.601562 98.265625 52.398438 L 98.089844 52.816406 L 97.464844 54.261719 L 97.636719 54.375 L 98.191406 54.195312 L 98.210938 54.203125 C 98.414062 54.292969 98.636719 54.375 98.882812 54.445312 C 99.421875 54.597656 99.992188 54.675781 100.578125 54.675781 C 101.265625 54.675781 101.855469 54.574219 102.332031 54.367188 C 102.804688 54.164062 103.175781 53.882812 103.425781 53.527344 C 103.675781 53.171875 103.800781 52.761719 103.800781 52.296875 C 103.800781 51.875 103.726562 51.527344 103.578125 51.265625 C 103.425781 50.996094 103.234375 50.789062 102.996094 50.640625 Z M 102.996094 50.640625 "/>
<path style=" stroke:none;fill-rule:nonzero;fill:url(#linear9);" d="M 110.964844 47.289062 L 110.882812 47.238281 C 110.53125 47.039062 109.773438 46.726562 108.699219 46.890625 C 108.128906 46.980469 107.652344 47.179688 107.277344 47.484375 L 107.179688 47.5625 L 107.179688 44.097656 L 105.28125 44.097656 L 105.28125 54.554688 L 107.179688 54.554688 L 107.179688 50.824219 C 107.179688 50.339844 107.253906 49.941406 107.398438 49.628906 C 107.542969 49.316406 107.753906 49.082031 108.015625 48.925781 C 108.277344 48.777344 108.578125 48.699219 108.902344 48.699219 C 109.367188 48.699219 109.730469 48.855469 109.988281 49.160156 C 110.242188 49.464844 110.371094 49.9375 110.371094 50.566406 L 110.371094 54.554688 L 112.269531 54.554688 L 112.269531 50.226562 C 112.269531 49.457031 112.144531 48.824219 111.902344 48.335938 C 111.667969 47.878906 111.355469 47.527344 110.964844 47.289062 Z M 110.964844 47.289062 "/>
<path style=" stroke:none;fill-rule:nonzero;fill:url(#linear10);" d="M 122.933594 47.007812 L 118.640625 47.007812 L 118.640625 45.3125 L 116.742188 45.3125 L 116.742188 47.007812 L 115.660156 47.007812 L 115.230469 48.601562 L 116.746094 48.601562 L 116.746094 51.980469 C 116.746094 52.875 116.96875 53.550781 117.414062 53.996094 C 117.855469 54.445312 118.484375 54.671875 119.28125 54.671875 C 119.445312 54.671875 119.605469 54.660156 119.773438 54.632812 C 120.351562 54.566406 120.929688 54.253906 121.089844 54.160156 L 120.460938 52.734375 C 120.449219 52.742188 120.4375 52.753906 120.425781 52.761719 C 120.21875 52.933594 119.945312 53.015625 119.566406 53.015625 C 119.28125 53.015625 119.054688 52.921875 118.890625 52.734375 C 118.726562 52.546875 118.644531 52.285156 118.644531 51.949219 L 118.644531 48.597656 L 121.589844 48.597656 L 121.605469 48.632812 L 123.859375 54.554688 L 125.859375 54.554688 L 128.746094 47.003906 L 126.9375 47.003906 L 124.902344 52.332031 Z M 122.933594 47.007812 "/>
<path style=" stroke:none;fill-rule:nonzero;fill:url(#linear11);" d="M 94.761719 47.363281 C 94.226562 47.050781 93.617188 46.894531 92.949219 46.894531 C 92.257812 46.894531 91.628906 47.0625 91.082031 47.390625 C 90.53125 47.722656 90.09375 48.183594 89.777344 48.765625 C 89.460938 49.347656 89.300781 50.027344 89.300781 50.78125 C 89.300781 51.527344 89.460938 52.203125 89.78125 52.785156 C 90.101562 53.367188 90.5625 53.832031 91.148438 54.167969 C 91.734375 54.503906 92.425781 54.671875 93.207031 54.671875 C 93.824219 54.671875 94.378906 54.566406 94.851562 54.355469 C 95.242188 54.183594 95.582031 53.941406 95.863281 53.640625 L 94.824219 52.460938 C 94.648438 52.609375 94.457031 52.730469 94.257812 52.816406 C 93.972656 52.945312 93.636719 53.007812 93.261719 53.007812 C 92.839844 53.007812 92.46875 52.921875 92.152344 52.75 C 91.839844 52.578125 91.589844 52.324219 91.417969 52 C 91.34375 51.855469 91.28125 51.695312 91.238281 51.523438 L 91.222656 51.449219 L 96.46875 51.449219 L 96.476562 51.347656 C 96.484375 51.265625 96.492188 51.183594 96.496094 51.09375 C 96.503906 50.988281 96.507812 50.890625 96.507812 50.808594 C 96.507812 49.996094 96.351562 49.289062 96.039062 48.703125 C 95.730469 48.128906 95.296875 47.671875 94.761719 47.363281 Z M 91.210938 49.988281 L 91.222656 49.917969 C 91.261719 49.742188 91.316406 49.582031 91.386719 49.4375 C 91.539062 49.128906 91.753906 48.886719 92.023438 48.714844 C 92.292969 48.542969 92.609375 48.457031 92.964844 48.457031 C 93.316406 48.457031 93.632812 48.542969 93.898438 48.71875 C 94.167969 48.890625 94.378906 49.128906 94.527344 49.429688 C 94.597656 49.578125 94.65625 49.742188 94.695312 49.921875 L 94.710938 49.992188 L 91.210938 49.992188 Z M 91.210938 49.988281 "/>
</g>
</svg>
