<?xml version="1.0" encoding="UTF-8" standalone="no"?>
<svg
   xmlns:dc="http://purl.org/dc/elements/1.1/"
   xmlns:cc="http://creativecommons.org/ns#"
   xmlns:rdf="http://www.w3.org/1999/02/22-rdf-syntax-ns#"
   xmlns:svg="http://www.w3.org/2000/svg"
   xmlns="http://www.w3.org/2000/svg"
   xmlns:xlink="http://www.w3.org/1999/xlink"
   xmlns:sodipodi="http://sodipodi.sourceforge.net/DTD/sodipodi-0.dtd"
   xmlns:inkscape="http://www.inkscape.org/namespaces/inkscape"
   width="70mm"
   height="70mm"
   viewBox="0 0 70 70"
   version="1.1"
   id="svg8"
   inkscape:version="1.0 (4035a4fb49, 2020-05-01)"
   sodipodi:docname="চিত্র একাত্তর টিভি.svg">
  <defs
     id="defs2">
    <linearGradient
       inkscape:collect="always"
       id="linearGradient937">
      <stop
         style="stop-color:#d4191d;stop-opacity:1"
         offset="0"
         id="stop933" />
      <stop
         style="stop-color:#790304;stop-opacity:1"
         offset="1"
         id="stop935" />
    </linearGradient>
    <linearGradient
       inkscape:collect="always"
       xlink:href="#linearGradient937"
       id="linearGradient939"
       x1="54.579762"
       y1="139.59822"
       x2="140.11472"
       y2="139.59822"
       gradientUnits="userSpaceOnUse"
       gradientTransform="translate(-43.984188,-91.168784)" />
    <linearGradient
       y2="139.59822"
       x2="140.11472"
       y1="139.59822"
       x1="54.579762"
       gradientTransform="translate(-43.984188,-91.168784)"
       gradientUnits="userSpaceOnUse"
       id="linearGradient896"
       xlink:href="#linearGradient937"
       inkscape:collect="always" />
  </defs>
  <sodipodi:namedview
     id="base"
     pagecolor="#ffffff"
     bordercolor="#666666"
     borderopacity="1.0"
     inkscape:pageopacity="0.0"
     inkscape:pageshadow="2"
     inkscape:zoom="1.4"
     inkscape:cx="142.71601"
     inkscape:cy="88.16075"
     inkscape:document-units="mm"
     inkscape:current-layer="layer1"
     inkscape:document-rotation="0"
     showgrid="false"
     inkscape:window-width="1920"
     inkscape:window-height="1001"
     inkscape:window-x="-9"
     inkscape:window-y="-9"
     inkscape:window-maximized="1"
     inkscape:object-nodes="false"
     inkscape:showpageshadow="false" />
  <metadata
     id="metadata5">
    <rdf:RDF>
      <cc:Work
         rdf:about="">
        <dc:format>image/svg+xml</dc:format>
        <dc:type
           rdf:resource="http://purl.org/dc/dcmitype/StillImage" />
        <dc:title></dc:title>
      </cc:Work>
    </rdf:RDF>
  </metadata>
  <g
     inkscape:label="Layer 1"
     inkscape:groupmode="layer"
     id="layer1">
    <g
       transform="matrix(0.72837868,0,0,0.72837868,-5.1362085,-5.4180434)"
       id="g894">
      <path
         d="m 10.727718,11.69677 v 73.366065 l 32.884298,0.04702 V 69.281884 h -12.47366 c 0,0 -9.165555,-0.897247 -13.748514,-9.354465 0,0 -3.443428,-5.500955 -2.340941,-12.750644 0,0 1.370047,-13.731129 16.270324,-16.437239 H 45.88526 l 7.249687,6.447668 0.133326,47.97485 h 12.027172 c 0,0 -7.182929,-2.805933 -9.454719,-10.991061 0,0 -1.770372,-6.515098 1.770952,-12.762529 0,0 4.376449,-6.948935 11.525911,-7.617106 h 17.539496 c 0,0 0.234001,-11.960256 -9.320876,-12.962516 H 57.812182 v -10.28981 h 21.181136 c 0.119986,-0.32997 14.127033,1.542187 17.005162,14.699877 V 34.013754 L 70.874949,11.69677 Z m 21.994521,28.531076 c -7.483546,1.5368 -8.218619,7.78402 -8.218619,7.78402 v 4.042648 c 1.971114,7.015819 7.750947,7.717359 7.750947,7.717359 H 43.613563 V 40.260919 Z m 37.395134,24.187671 c 0,0 -2.457066,0.307472 -3.590996,2.457214 0,0 -1.653649,2.787208 0,5.64565 0,0 1.205246,2.079009 3.378607,2.504239 h 8.362278 c 8.126481,-1.84263 8.410339,-10.607103 8.410339,-10.607103 z"
         style="fill:url(#linearGradient896);fill-opacity:1;stroke:none;stroke-width:0.264583px;stroke-linecap:butt;stroke-linejoin:miter;stroke-opacity:1"
         id="path912" />
      <path
         id="path914"
         d="m 70.306942,8.389113 h 28.96534 v 25.791513 z"
         style="fill:#910609;fill-opacity:1;stroke:none;stroke-width:0.264583px;stroke-linecap:butt;stroke-linejoin:miter;stroke-opacity:1" />
      <path
         id="path920"
         d="m 96.032362,71.880696 v 13.20554 h -12.82756 c 0,0 8.95289,-3.70241 12.82756,-13.20554 z"
         style="fill:#910609;fill-opacity:1;stroke:none;stroke-width:0.264583px;stroke-linecap:butt;stroke-linejoin:miter;stroke-opacity:1" />
      <path
         d="m 18.18771,97.643773 h -5.037149 q 0,0.894106 0.189735,1.562517 0.189735,0.659729 0.520239,1.08508 0.318266,0.41667 0.752819,0.62501 0.440673,0.20833 0.967034,0.20833 0.697734,0 1.401589,-0.39062 0.709975,-0.39932 1.009878,-0.781266 h 0.06121 v 1.779536 q -0.581445,0.34722 -1.187372,0.5816 -0.605926,0.23438 -1.273058,0.23438 -1.701492,0 -2.656286,-1.3021 -0.954794,-1.310777 -0.954794,-3.715315 0,-2.378497 0.91195,-3.776081 0.91807,-1.397584 2.411466,-1.397584 1.383227,0 2.129924,1.145845 0.752818,1.145845 0.752818,3.255242 z m -1.120048,-1.250012 q -0.0061,-1.284736 -0.459034,-1.987869 -0.446795,-0.703132 -1.364865,-0.703132 -0.924192,0 -1.475035,0.772578 -0.544721,0.772578 -0.618167,1.918423 z"
         style="font-size:17.8282px;line-height:1.25;font-family:sans-serif;-inkscape-font-specification:sans-serif;letter-spacing:0px;fill:#707072;fill-opacity:0.996078;stroke-width:0.373197"
         id="path995" />
      <path
         d="m 29.811169,102.32264 h -1.745678 l -3.153484,-4.244834 -0.858762,1.006954 v 3.23788 H 22.729908 V 88.815557 h 1.323337 v 8.663284 l 3.822191,-4.85248 h 1.66825 l -3.653255,4.479212 z"
         style="font-size:17.8282px;line-height:1.25;font-family:sans-serif;-inkscape-font-specification:sans-serif;letter-spacing:0px;fill:#707072;fill-opacity:0.996078;stroke-width:0.400223"
         id="path997" />
      <path
         d="m 39.11711,102.32264 h -1.260067 v -1.03299 q -0.168459,0.14757 -0.458206,0.41667 -0.283012,0.26041 -0.552544,0.41666 -0.316701,0.19966 -0.72774,0.32987 -0.411038,0.13889 -0.963582,0.13889 -1.017487,0 -1.725012,-0.86806 -0.707524,-0.86807 -0.707524,-2.213568 0,-1.102443 0.36387,-1.779532 0.370607,-0.685771 1.051179,-1.0764 0.68731,-0.39063 1.650891,-0.52952 0.963581,-0.138891 2.068668,-0.208335 v -0.251739 q 0,-0.555561 -0.154983,-0.920149 -0.148242,-0.364586 -0.431253,-0.572922 -0.269533,-0.199654 -0.646879,-0.2691 -0.377347,-0.06944 -0.788385,-0.06944 -0.498637,0 -1.111824,0.173612 -0.613189,0.164933 -1.266807,0.486117 h -0.06739 v -1.658003 q 0.370608,-0.13021 1.071394,-0.286461 0.700787,-0.156252 1.381358,-0.156252 0.795123,0 1.381357,0.173613 0.592974,0.164932 1.024227,0.572922 0.424514,0.39931 0.64688,1.032997 0.222366,0.633688 0.222366,1.571197 z m -1.260067,-2.387177 v -2.69968 q -0.579497,0.04341 -1.367883,0.130209 -0.781645,0.0868 -1.239851,0.251739 -0.545805,0.199655 -0.882722,0.625007 -0.336916,0.41667 -0.336916,1.154525 0,0.833347 0.390823,1.258697 0.390824,0.41667 1.192684,0.41667 0.667096,0 1.219638,-0.32987 0.552543,-0.33854 1.024227,-0.807297 z"
         style="font-size:17.8282px;line-height:1.25;font-family:sans-serif;-inkscape-font-specification:sans-serif;letter-spacing:0px;fill:#707072;fill-opacity:0.996078;stroke-width:0.391582"
         id="path999" />
      <path
         d="m 48.302959,102.23583 q -0.405685,0.12153 -0.887916,0.19966 -0.474576,0.0782 -0.849645,0.0782 -1.30891,0 -1.990157,-0.79863 -0.681246,-0.79861 -0.681246,-2.560785 V 93.997922 H 42.92188 v -1.371541 h 0.972115 v -2.786488 h 1.439037 v 2.786488 h 2.969927 v 1.371541 h -2.969927 v 4.418449 q 0,0.763896 0.03062,1.197929 0.03062,0.42535 0.214325,0.79861 0.168398,0.34723 0.459266,0.51217 0.298524,0.15625 0.903226,0.15625 0.352104,0 0.734827,-0.11285 0.382723,-0.12153 0.55112,-0.19965 h 0.07655 z"
         style="font-size:17.8282px;line-height:1.25;font-family:sans-serif;-inkscape-font-specification:sans-serif;letter-spacing:0px;fill:#707072;fill-opacity:0.996078;stroke-width:0.417352"
         id="path1001" />
      <path
         d="m 56.679532,102.23583 q -0.398562,0.12153 -0.872324,0.19966 -0.466243,0.0782 -0.834724,0.0782 -1.285926,0 -1.95521,-0.79863 -0.669283,-0.79861 -0.669283,-2.560785 v -5.156353 h -0.955045 v -1.371541 h 0.955045 v -2.786488 h 1.413766 v 2.786488 h 2.917775 v 1.371541 h -2.917775 v 4.418449 q 0,0.763896 0.03008,1.197929 0.03008,0.42535 0.210562,0.79861 0.16544,0.34723 0.451201,0.51217 0.293282,0.15625 0.887364,0.15625 0.345922,0 0.721924,-0.11285 0.376002,-0.12153 0.541443,-0.19965 h 0.0752 z"
         style="font-size:17.8282px;line-height:1.25;font-family:sans-serif;-inkscape-font-specification:sans-serif;letter-spacing:0px;fill:#707072;fill-opacity:0.996078;stroke-width:0.413672"
         id="path1003" />
      <path
         d="m 67.264151,97.478841 q 0,2.369817 -0.991204,3.741359 -0.991204,1.37154 -2.655009,1.37154 -1.677965,0 -2.669169,-1.37154 -0.984123,-1.371542 -0.984123,-3.741359 0,-2.369816 0.984123,-3.741358 0.991204,-1.380223 2.669169,-1.380223 1.663805,0 2.655009,1.380223 0.991204,1.371542 0.991204,3.741358 z m -1.373524,0 q 0,-1.8837 -0.601802,-2.795168 -0.601803,-0.920149 -1.670887,-0.920149 -1.083244,0 -1.685046,0.920149 -0.594722,0.911468 -0.594722,2.795168 0,1.822935 0.601803,2.769129 0.601802,0.93751 1.677965,0.93751 1.062004,0 1.663805,-0.92883 0.608884,-0.937512 0.608884,-2.777809 z"
         style="font-size:17.8282px;line-height:1.25;font-family:sans-serif;-inkscape-font-specification:sans-serif;letter-spacing:0px;fill:#707072;fill-opacity:0.996078;stroke-width:0.401387"
         id="path1005" />
      <path
         d="m 75.992393,94.405892 h -0.06019 q -0.252769,-0.0868 -0.493502,-0.121529 -0.234715,-0.04341 -0.559705,-0.04341 -0.523594,0 -1.011078,0.338545 -0.487485,0.329865 -0.93886,0.859384 v 6.883758 h -1.131447 v -9.696286 h 1.131446 v 1.432305 q 0.674052,-0.781257 1.18561,-1.102441 0.517577,-0.329864 1.053208,-0.329864 0.294898,0 0.427301,0.02604 0.132403,0.01736 0.397209,0.07813 z"
         style="font-size:17.8282px;line-height:1.25;font-family:sans-serif;-inkscape-font-specification:sans-serif;letter-spacing:0px;fill:#707072;fill-opacity:0.996078;stroke-width:0.37007"
         id="path1007" />
      <path
         d="m 80.366723,102.32264 h -1.613946 v -2.473982 h 1.613946 z"
         style="font-size:17.8282px;line-height:1.25;font-family:sans-serif;-inkscape-font-specification:sans-serif;letter-spacing:0px;fill:#707072;fill-opacity:0.996078;stroke-width:0.392005"
         id="path1009" />
      <path
         d="m 99.479266,92.626361 -2.887872,9.696279 h -1.20754 L 92.51515,92.626361 h 1.303376 l 2.210627,7.717089 2.191461,-7.717089 z"
         style="font-size:17.8282px;line-height:1.25;font-family:sans-serif;-inkscape-font-specification:sans-serif;letter-spacing:0px;fill:#707072;fill-opacity:0.996078;stroke-width:0.381299"
         id="path1013" />
      <path
         id="path1026"
         style="font-size:17.8282px;line-height:1.25;font-family:sans-serif;-inkscape-font-specification:sans-serif;letter-spacing:0px;fill:#707072;fill-opacity:0.996078;stroke-width:0.413672"
         d="m 89.563463,102.23583 q -0.39856,0.12153 -0.87233,0.19966 -0.46624,0.0782 -0.83472,0.0782 -1.28593,0 -1.95521,-0.79863 -0.66928,-0.79861 -0.66928,-2.560785 v -5.156353 h -0.95505 v -1.371541 h 0.95505 v -2.786488 h 1.41376 v 2.786488 h 2.91778 v 1.371541 h -2.91778 v 4.418449 q 0,0.763896 0.0301,1.197929 0.0301,0.42535 0.21056,0.79861 0.16544,0.34723 0.45121,0.51217 0.29328,0.15625 0.88736,0.15625 0.34592,0 0.72192,-0.11285 0.37601,-0.12153 0.54145,-0.19965 h 0.0752 z" />
      <path
         id="path1028"
         style="fill:url(#linearGradient939);fill-opacity:1;stroke:none;stroke-width:0.264583px;stroke-linecap:butt;stroke-linejoin:miter;stroke-opacity:1"
         d="m 10.727718,11.69677 v 73.366065 l 32.884298,0.04702 V 69.281884 h -12.47366 c 0,0 -9.165555,-0.897247 -13.748514,-9.354465 0,0 -3.443428,-5.500955 -2.340941,-12.750644 0,0 1.370047,-13.731129 16.270324,-16.437239 H 45.88526 l 7.249687,6.447668 0.133326,47.97485 h 12.027172 c 0,0 -7.182929,-2.805933 -9.454719,-10.991061 0,0 -1.770372,-6.515098 1.770952,-12.762529 0,0 4.376449,-6.948935 11.525911,-7.617106 h 17.539496 c 0,0 0.234001,-11.960256 -9.320876,-12.962516 H 57.812182 v -10.28981 h 21.181136 c 0.119986,-0.32997 14.127033,1.542187 17.005162,14.699877 V 34.013754 L 70.874949,11.69677 Z m 21.994521,28.531076 c -7.483546,1.5368 -8.218619,7.78402 -8.218619,7.78402 v 4.042648 c 1.971114,7.015819 7.750947,7.717359 7.750947,7.717359 H 43.613563 V 40.260919 Z m 37.395134,24.187671 c 0,0 -2.457066,0.307472 -3.590996,2.457214 0,0 -1.653649,2.787208 0,5.64565 0,0 1.205246,2.079009 3.378607,2.504239 h 8.362278 c 8.126481,-1.84263 8.410339,-10.607103 8.410339,-10.607103 z" />
      <path
         style="fill:#910609;fill-opacity:1;stroke:none;stroke-width:0.264583px;stroke-linecap:butt;stroke-linejoin:miter;stroke-opacity:1"
         d="m 70.306942,8.389113 h 28.96534 v 25.791513 z"
         id="path1030" />
      <path
         style="fill:#910609;fill-opacity:1;stroke:none;stroke-width:0.264583px;stroke-linecap:butt;stroke-linejoin:miter;stroke-opacity:1"
         d="m 96.032362,71.880696 v 13.20554 h -12.82756 c 0,0 8.95289,-3.70241 12.82756,-13.20554 z"
         id="path1032" />
      <path
         id="path1034"
         style="font-size:17.8282px;line-height:1.25;font-family:sans-serif;-inkscape-font-specification:sans-serif;letter-spacing:0px;fill:#707072;fill-opacity:0.996078;stroke-width:0.373197"
         d="m 18.18771,97.643773 h -5.037149 q 0,0.894106 0.189735,1.562517 0.189735,0.659729 0.520239,1.08508 0.318266,0.41667 0.752819,0.62501 0.440673,0.20833 0.967034,0.20833 0.697734,0 1.401589,-0.39062 0.709975,-0.39932 1.009878,-0.781266 h 0.06121 v 1.779536 q -0.581445,0.34722 -1.187372,0.5816 -0.605926,0.23438 -1.273058,0.23438 -1.701492,0 -2.656286,-1.3021 -0.954794,-1.310777 -0.954794,-3.715315 0,-2.378497 0.91195,-3.776081 0.91807,-1.397584 2.411466,-1.397584 1.383227,0 2.129924,1.145845 0.752818,1.145845 0.752818,3.255242 z m -1.120048,-1.250012 q -0.0061,-1.284736 -0.459034,-1.987869 -0.446795,-0.703132 -1.364865,-0.703132 -0.924192,0 -1.475035,0.772578 -0.544721,0.772578 -0.618167,1.918423 z" />
      <path
         id="path1036"
         style="font-size:17.8282px;line-height:1.25;font-family:sans-serif;-inkscape-font-specification:sans-serif;letter-spacing:0px;fill:#707072;fill-opacity:0.996078;stroke-width:0.400223"
         d="m 29.811169,102.32264 h -1.745678 l -3.153484,-4.244834 -0.858762,1.006954 v 3.23788 H 22.729908 V 88.815557 h 1.323337 v 8.663284 l 3.822191,-4.85248 h 1.66825 l -3.653255,4.479212 z" />
      <path
         id="path1038"
         style="font-size:17.8282px;line-height:1.25;font-family:sans-serif;-inkscape-font-specification:sans-serif;letter-spacing:0px;fill:#707072;fill-opacity:0.996078;stroke-width:0.391582"
         d="m 39.11711,102.32264 h -1.260067 v -1.03299 q -0.168459,0.14757 -0.458206,0.41667 -0.283012,0.26041 -0.552544,0.41666 -0.316701,0.19966 -0.72774,0.32987 -0.411038,0.13889 -0.963582,0.13889 -1.017487,0 -1.725012,-0.86806 -0.707524,-0.86807 -0.707524,-2.213568 0,-1.102443 0.36387,-1.779532 0.370607,-0.685771 1.051179,-1.0764 0.68731,-0.39063 1.650891,-0.52952 0.963581,-0.138891 2.068668,-0.208335 v -0.251739 q 0,-0.555561 -0.154983,-0.920149 -0.148242,-0.364586 -0.431253,-0.572922 -0.269533,-0.199654 -0.646879,-0.2691 -0.377347,-0.06944 -0.788385,-0.06944 -0.498637,0 -1.111824,0.173612 -0.613189,0.164933 -1.266807,0.486117 h -0.06739 v -1.658003 q 0.370608,-0.13021 1.071394,-0.286461 0.700787,-0.156252 1.381358,-0.156252 0.795123,0 1.381357,0.173613 0.592974,0.164932 1.024227,0.572922 0.424514,0.39931 0.64688,1.032997 0.222366,0.633688 0.222366,1.571197 z m -1.260067,-2.387177 v -2.69968 q -0.579497,0.04341 -1.367883,0.130209 -0.781645,0.0868 -1.239851,0.251739 -0.545805,0.199655 -0.882722,0.625007 -0.336916,0.41667 -0.336916,1.154525 0,0.833347 0.390823,1.258697 0.390824,0.41667 1.192684,0.41667 0.667096,0 1.219638,-0.32987 0.552543,-0.33854 1.024227,-0.807297 z" />
      <path
         id="path1040"
         style="font-size:17.8282px;line-height:1.25;font-family:sans-serif;-inkscape-font-specification:sans-serif;letter-spacing:0px;fill:#707072;fill-opacity:0.996078;stroke-width:0.417352"
         d="m 48.302959,102.23583 q -0.405685,0.12153 -0.887916,0.19966 -0.474576,0.0782 -0.849645,0.0782 -1.30891,0 -1.990157,-0.79863 -0.681246,-0.79861 -0.681246,-2.560785 V 93.997922 H 42.92188 v -1.371541 h 0.972115 v -2.786488 h 1.439037 v 2.786488 h 2.969927 v 1.371541 h -2.969927 v 4.418449 q 0,0.763896 0.03062,1.197929 0.03062,0.42535 0.214325,0.79861 0.168398,0.34723 0.459266,0.51217 0.298524,0.15625 0.903226,0.15625 0.352104,0 0.734827,-0.11285 0.382723,-0.12153 0.55112,-0.19965 h 0.07655 z" />
      <path
         id="path1042"
         style="font-size:17.8282px;line-height:1.25;font-family:sans-serif;-inkscape-font-specification:sans-serif;letter-spacing:0px;fill:#707072;fill-opacity:0.996078;stroke-width:0.413672"
         d="m 56.679532,102.23583 q -0.398562,0.12153 -0.872324,0.19966 -0.466243,0.0782 -0.834724,0.0782 -1.285926,0 -1.95521,-0.79863 -0.669283,-0.79861 -0.669283,-2.560785 v -5.156353 h -0.955045 v -1.371541 h 0.955045 v -2.786488 h 1.413766 v 2.786488 h 2.917775 v 1.371541 h -2.917775 v 4.418449 q 0,0.763896 0.03008,1.197929 0.03008,0.42535 0.210562,0.79861 0.16544,0.34723 0.451201,0.51217 0.293282,0.15625 0.887364,0.15625 0.345922,0 0.721924,-0.11285 0.376002,-0.12153 0.541443,-0.19965 h 0.0752 z" />
      <path
         id="path1044"
         style="font-size:17.8282px;line-height:1.25;font-family:sans-serif;-inkscape-font-specification:sans-serif;letter-spacing:0px;fill:#707072;fill-opacity:0.996078;stroke-width:0.401387"
         d="m 67.264151,97.478841 q 0,2.369817 -0.991204,3.741359 -0.991204,1.37154 -2.655009,1.37154 -1.677965,0 -2.669169,-1.37154 -0.984123,-1.371542 -0.984123,-3.741359 0,-2.369816 0.984123,-3.741358 0.991204,-1.380223 2.669169,-1.380223 1.663805,0 2.655009,1.380223 0.991204,1.371542 0.991204,3.741358 z m -1.373524,0 q 0,-1.8837 -0.601802,-2.795168 -0.601803,-0.920149 -1.670887,-0.920149 -1.083244,0 -1.685046,0.920149 -0.594722,0.911468 -0.594722,2.795168 0,1.822935 0.601803,2.769129 0.601802,0.93751 1.677965,0.93751 1.062004,0 1.663805,-0.92883 0.608884,-0.937512 0.608884,-2.777809 z" />
      <path
         id="path1046"
         style="font-size:17.8282px;line-height:1.25;font-family:sans-serif;-inkscape-font-specification:sans-serif;letter-spacing:0px;fill:#707072;fill-opacity:0.996078;stroke-width:0.37007"
         d="m 75.992393,94.405892 h -0.06019 q -0.252769,-0.0868 -0.493502,-0.121529 -0.234715,-0.04341 -0.559705,-0.04341 -0.523594,0 -1.011078,0.338545 -0.487485,0.329865 -0.93886,0.859384 v 6.883758 h -1.131447 v -9.696286 h 1.131446 v 1.432305 q 0.674052,-0.781257 1.18561,-1.102441 0.517577,-0.329864 1.053208,-0.329864 0.294898,0 0.427301,0.02604 0.132403,0.01736 0.397209,0.07813 z" />
      <path
         id="path1048"
         style="font-size:17.8282px;line-height:1.25;font-family:sans-serif;-inkscape-font-specification:sans-serif;letter-spacing:0px;fill:#707072;fill-opacity:0.996078;stroke-width:0.392005"
         d="m 80.366723,102.32264 h -1.613946 v -2.473982 h 1.613946 z" />
      <path
         id="path1050"
         style="font-size:17.8282px;line-height:1.25;font-family:sans-serif;-inkscape-font-specification:sans-serif;letter-spacing:0px;fill:#707072;fill-opacity:0.996078;stroke-width:0.381299"
         d="m 99.479266,92.626361 -2.887872,9.696279 h -1.20754 L 92.51515,92.626361 h 1.303376 l 2.210627,7.717089 2.191461,-7.717089 z" />
      <path
         d="m 89.563463,102.23583 q -0.39856,0.12153 -0.87233,0.19966 -0.46624,0.0782 -0.83472,0.0782 -1.28593,0 -1.95521,-0.79863 -0.66928,-0.79861 -0.66928,-2.560785 v -5.156353 h -0.95505 v -1.371541 h 0.95505 v -2.786488 h 1.41376 v 2.786488 h 2.91778 v 1.371541 h -2.91778 v 4.418449 q 0,0.763896 0.0301,1.197929 0.0301,0.42535 0.21056,0.79861 0.16544,0.34723 0.45121,0.51217 0.29328,0.15625 0.88736,0.15625 0.34592,0 0.72192,-0.11285 0.37601,-0.12153 0.54145,-0.19965 h 0.0752 z"
         style="font-size:17.8282px;line-height:1.25;font-family:sans-serif;-inkscape-font-specification:sans-serif;letter-spacing:0px;fill:#707072;fill-opacity:0.996078;stroke-width:0.413672"
         id="path1052" />
    </g>
  </g>
</svg>
