<?xml version="1.0" encoding="UTF-8" standalone="no"?>
<svg
   xmlns:dc="http://purl.org/dc/elements/1.1/"
   xmlns:cc="http://creativecommons.org/ns#"
   xmlns:rdf="http://www.w3.org/1999/02/22-rdf-syntax-ns#"
   xmlns:svg="http://www.w3.org/2000/svg"
   xmlns="http://www.w3.org/2000/svg"
   xmlns:sodipodi="http://sodipodi.sourceforge.net/DTD/sodipodi-0.dtd"
   xmlns:inkscape="http://www.inkscape.org/namespaces/inkscape"
   inkscape:version="1.0 (4035a4fb49, 2020-05-01)"
   sodipodi:docname="চিত্র একুশে টেলিভিশন.jpg.svg"
   id="svg8"
   version="1.1"
   viewBox="0 0 70 50"
   height="50mm"
   width="70mm">
  <defs
     id="defs2" />
  <sodipodi:namedview
     inkscape:showpageshadow="false"
     inkscape:window-maximized="1"
     inkscape:window-y="-9"
     inkscape:window-x="-9"
     inkscape:window-height="1001"
     inkscape:window-width="1920"
     inkscape:object-nodes="false"
     showgrid="false"
     inkscape:document-rotation="0"
     inkscape:current-layer="layer1"
     inkscape:document-units="mm"
     inkscape:cy="42.992064"
     inkscape:cx="154.2642"
     inkscape:zoom="7.9195959"
     inkscape:pageshadow="2"
     inkscape:pageopacity="0.0"
     borderopacity="1.0"
     bordercolor="#666666"
     pagecolor="#ffffff"
     id="base" />
  <metadata
     id="metadata5">
    <rdf:RDF>
      <cc:Work
         rdf:about="">
        <dc:format>image/svg+xml</dc:format>
        <dc:type
           rdf:resource="http://purl.org/dc/dcmitype/StillImage" />
        <dc:title></dc:title>
      </cc:Work>
    </rdf:RDF>
  </metadata>
  <g
     id="layer1"
     inkscape:groupmode="layer"
     inkscape:label="Layer 1">
    <g
       transform="matrix(0.5558724,0,0,0.5558724,12.473414,-27.09321)"
       id="g981">
      <path
         style="fill:#2d4688;fill-opacity:1;stroke:none;stroke-width:0.264583px;stroke-linecap:butt;stroke-linejoin:miter;stroke-opacity:1"
         d="M 58.930906,96.617934 H 88.865093 L 76.771147,132.96659 h -29.6001 z"
         id="path967" />
      <path
         id="path965"
         d="M 24.000534,96.617934 H 53.934721 L 41.840775,132.96659 h -29.6001 z"
         style="fill:#2d4688;fill-opacity:1;stroke:none;stroke-width:0.264583px;stroke-linecap:butt;stroke-linejoin:miter;stroke-opacity:1" />
      <path
         style="fill:#2d4688;fill-opacity:1;stroke:none;stroke-width:0.264583px;stroke-linecap:butt;stroke-linejoin:miter;stroke-opacity:1"
         d="M -10.289877,96.617934 H 19.64431 L 7.550364,132.96659 h -29.6001 z"
         id="path961" />
      <path
         style="fill:#01a0da;fill-opacity:1;stroke:none;stroke-width:0.264583px;stroke-linecap:butt;stroke-linejoin:miter;stroke-opacity:1"
         d="M 3.6749561,54.462071 -8.0180856,91.144814 90.938455,90.944361 103.09922,54.796158 Z"
         id="path963" />
      <path
         style="color:#000000;font-style:italic;font-variant:normal;font-weight:normal;font-stretch:normal;font-size:medium;line-height:1.25;font-family:sans-serif;-inkscape-font-specification:'sans-serif Italic';font-variant-ligatures:normal;font-variant-position:normal;font-variant-caps:normal;font-variant-numeric:normal;font-variant-alternates:normal;font-variant-east-asian:normal;font-feature-settings:normal;font-variation-settings:normal;text-indent:0;text-align:start;text-decoration:none;text-decoration-line:none;text-decoration-style:solid;text-decoration-color:#000000;letter-spacing:0px;word-spacing:normal;text-transform:none;writing-mode:lr-tb;direction:ltr;text-orientation:mixed;dominant-baseline:auto;baseline-shift:baseline;text-anchor:start;white-space:normal;shape-padding:0;shape-margin:0;inline-size:0;clip-rule:nonzero;display:inline;overflow:visible;visibility:visible;opacity:1;isolation:auto;mix-blend-mode:normal;color-interpolation:sRGB;color-interpolation-filters:linearRGB;solid-color:#000000;solid-opacity:1;vector-effect:none;fill:#ffffff;fill-opacity:1;fill-rule:nonzero;stroke:none;stroke-width:0.914633;stroke-linecap:butt;stroke-linejoin:miter;stroke-miterlimit:4;stroke-dasharray:none;stroke-dashoffset:0;stroke-opacity:1;color-rendering:auto;image-rendering:auto;shape-rendering:auto;text-rendering:auto;enable-background:accumulate;stop-color:#000000"
         d="m 20.544847,83.087512 -1.532213,-1.344785 c -0.130895,-1.908021 0.04478,-3.19523 -1.882579,-3.578147 -0.981201,-0.194939 -2.563663,-0.266494 -4.747387,-0.214661 -2.172039,0.05416 -3.7661833,-0.01972 -4.782427,-0.221624 C 5.6611989,77.343057 4.8084836,76.463818 4.4278832,74.712602 4.0589637,72.963707 4.9620318,69.773101 6.8299823,68.022852 l 2.0895855,-2.050326 c 1.4088392,-0.506854 1.2974312,0.248806 1.2707852,0.522187 -1.0669843,1.974094 -2.8427388,2.523142 -3.1055432,5.113625 -0.086124,0.721442 -0.031642,1.993603 1.2501266,2.966036 0.5787565,0.439083 1.7651716,0.253819 3.9138506,0.195024 2.148679,-0.05881 3.518053,-0.134564 4.087674,-0.08646 0.730016,0.06165 2.928539,-0.147665 4.103292,1.639905 l 4.91204,-11.35055 c 0.30502,-0.740774 0.6738,-1.639974 0.397633,-2.083387 -0.264485,-0.441091 -0.910036,-0.468246 -1.64136,-0.08146 -8.743606,5.736625 -5.314247,3.839522 -4.13731,5.187607 0.972693,1.114141 -0.934836,3.132814 -2.523795,4.08782 -2.281673,1.058693 -4.134655,0.82284 -4.856715,-0.961549 -0.533937,-1.832256 0.508199,-3.703678 1.022659,-4.412965 0.545305,-0.790548 3.125521,-3.059773 5.271309,-4.363319 1.093294,-0.70152 3.345402,-2.104864 5.909093,-2.400916 1.66881,-0.192712 2.996139,0.371724 3.59272,1.158062 0.608264,0.788659 0.312053,2.228255 -0.153632,3.349938 z"
         id="path890"
         sodipodi:nodetypes="ccscscccccsssccccsccccsccc" />
      <path
         style="color:#000000;font-style:italic;font-variant:normal;font-weight:normal;font-stretch:normal;font-size:medium;line-height:1.25;font-family:sans-serif;-inkscape-font-specification:'sans-serif Italic';font-variant-ligatures:normal;font-variant-position:normal;font-variant-caps:normal;font-variant-numeric:normal;font-variant-alternates:normal;font-variant-east-asian:normal;font-feature-settings:normal;font-variation-settings:normal;text-indent:0;text-align:start;text-decoration:none;text-decoration-line:none;text-decoration-style:solid;text-decoration-color:#000000;letter-spacing:0px;word-spacing:normal;text-transform:none;writing-mode:lr-tb;direction:ltr;text-orientation:mixed;dominant-baseline:auto;baseline-shift:baseline;text-anchor:start;white-space:normal;shape-padding:0;shape-margin:0;inline-size:0;clip-rule:nonzero;display:inline;overflow:visible;visibility:visible;opacity:1;isolation:auto;mix-blend-mode:normal;color-interpolation:sRGB;color-interpolation-filters:linearRGB;solid-color:#000000;solid-opacity:1;vector-effect:none;fill:#ffffff;fill-opacity:1;fill-rule:nonzero;stroke:none;stroke-width:0.812523;stroke-linecap:butt;stroke-linejoin:miter;stroke-miterlimit:4;stroke-dasharray:none;stroke-dashoffset:0;stroke-opacity:1;color-rendering:auto;image-rendering:auto;shape-rendering:auto;text-rendering:auto;enable-background:accumulate;stop-color:#000000"
         d="m 31.950203,62.760642 -1.539296,-2.412158 h 27.051747 l -0.214663,2.420513 -9.050044,-10e-7 -0.497617,1.234501 c 2.327538,-0.105797 3.695741,1.206899 4.109933,1.768777 0.802747,1.152466 1.307749,2.662178 0.948038,4.48189 -0.550439,2.36364 -2.291978,4.221624 -3.004006,4.652635 -0.93446,0.565655 -1.725554,0.854789 -2.709279,0.835505 -0.602535,-0.01181 -1.300944,-0.228696 -1.681814,-0.662465 -0.37029,-0.444348 -0.628408,-0.950073 -0.490872,-1.812467 0.158696,-0.804059 0.595437,-1.418914 1.050365,-1.820943 0.465508,-0.412609 1.168336,-0.583479 1.919496,-0.583479 1.938639,-0.03262 2.613037,1.913687 3.003848,0.287461 0.609279,-2.770827 -1.888464,-4.321719 -2.905263,-4.333277 -0.486667,0 -1.03609,0.0187 -1.459279,0.103333 L 40.25344,81.393182 H 38.403413 C 38.515314,79.21333 37.711539,76.571451 37.013005,75.811023 36.570333,75.131015 33.857998,73.07253 31.372609,73.129925 L 29.756916,69.88192 44.61548,63.919985 45.019481,62.760643 Z m 7.928184,12.32072 3.374036,-7.90445 -7.982965,3.207825 c 1.354204,0.603044 1.900925,1.071809 2.660515,1.836056 0.813291,0.818277 0.95392,1.146654 1.948414,2.860569 z"
         id="path896"
         sodipodi:nodetypes="ccccccccssccccccccccccccccccsc" />
      <path
         style="color:#000000;font-style:italic;font-variant:normal;font-weight:normal;font-stretch:normal;font-size:medium;line-height:1.25;font-family:sans-serif;-inkscape-font-specification:'sans-serif Italic';font-variant-ligatures:normal;font-variant-position:normal;font-variant-caps:normal;font-variant-numeric:normal;font-variant-alternates:normal;font-variant-east-asian:normal;font-feature-settings:normal;font-variation-settings:normal;text-indent:0;text-align:start;text-decoration:none;text-decoration-line:none;text-decoration-style:solid;text-decoration-color:#000000;letter-spacing:0px;word-spacing:normal;text-transform:none;writing-mode:lr-tb;direction:ltr;text-orientation:mixed;dominant-baseline:auto;baseline-shift:baseline;text-anchor:start;white-space:normal;shape-padding:0;shape-margin:0;inline-size:0;clip-rule:nonzero;display:inline;overflow:visible;visibility:visible;opacity:1;isolation:auto;mix-blend-mode:normal;color-interpolation:sRGB;color-interpolation-filters:linearRGB;solid-color:#000000;solid-opacity:1;vector-effect:none;fill:#ffffff;fill-opacity:1;fill-rule:nonzero;stroke:none;stroke-width:0.812523;stroke-linecap:butt;stroke-linejoin:miter;stroke-miterlimit:4;stroke-dasharray:none;stroke-dashoffset:0;stroke-opacity:1;color-rendering:auto;image-rendering:auto;shape-rendering:auto;text-rendering:auto;enable-background:accumulate;stop-color:#000000"
         d="m 37.975942,82.525003 0.427471,-1.131821 h 1.850027 c 0.03174,0.169275 -0.506247,1.0146 -0.897697,1.987935 1.153189,0.687682 2.558059,2.338109 3.880524,4.316516 0.105979,1.32023 -0.537821,1.453311 -1.49673,1.08747 -1.280147,-1.671596 -2.525768,-3.19924 -3.636639,-3.781125 -1.449421,1.883191 -3.180875,2.524107 -5.127544,2.524107 -1.005073,0 -2.216996,-0.304861 -2.767141,-0.780948 -0.560725,-0.476087 -1.129236,-1.211098 -0.97054,-2.004577 0.04177,-1.083577 1.235306,-2.156294 1.926889,-2.499862 0.630891,-0.326864 2.129854,-0.590522 3.177246,-0.590522 0.941595,0 2.152973,0.290942 3.634134,0.872827 z m -3.03109,0.904566 h -0.07935 c -0.592464,0 -0.910418,-0.1069 -1.655445,0.263939 -0.458159,0.22805 -0.837186,0.676821 -0.911244,1.068271 -0.158696,0.772319 0.535383,1.175183 1.614514,1.175183 0.592465,0 1.195509,-0.195725 1.809132,-0.587174 0.760155,-0.709184 0.776196,-1.837676 -0.777607,-1.920219 z"
         id="path902"
         sodipodi:nodetypes="cccccccscccsccsscscc" />
      <path
         style="color:#000000;font-style:italic;font-variant:normal;font-weight:normal;font-stretch:normal;font-size:medium;line-height:1.25;font-family:sans-serif;-inkscape-font-specification:'sans-serif Italic';font-variant-ligatures:normal;font-variant-position:normal;font-variant-caps:normal;font-variant-numeric:normal;font-variant-alternates:normal;font-variant-east-asian:normal;font-feature-settings:normal;font-variation-settings:normal;text-indent:0;text-align:start;text-decoration:none;text-decoration-line:none;text-decoration-style:solid;text-decoration-color:#000000;letter-spacing:0px;word-spacing:normal;text-transform:none;writing-mode:lr-tb;direction:ltr;text-orientation:mixed;dominant-baseline:auto;baseline-shift:baseline;text-anchor:start;white-space:normal;shape-padding:0;shape-margin:0;inline-size:0;clip-rule:nonzero;display:inline;overflow:visible;visibility:visible;opacity:1;isolation:auto;mix-blend-mode:normal;color-interpolation:sRGB;color-interpolation-filters:linearRGB;solid-color:#000000;solid-opacity:1;vector-effect:none;fill:#ffffff;fill-opacity:1;fill-rule:nonzero;stroke:none;stroke-width:0.812523;stroke-linecap:butt;stroke-linejoin:miter;stroke-miterlimit:4;stroke-dasharray:none;stroke-dashoffset:0;stroke-opacity:1;color-rendering:auto;image-rendering:auto;shape-rendering:auto;text-rendering:auto;enable-background:accumulate;stop-color:#000000"
         d="m 67.467747,62.758268 c -2.042393,0.02671 -6.560935,3.815959 -6.769637,4.197193 -0.249037,0.135327 -2.765019,3.211698 -3.942883,5.822243 -0.273956,0.812416 -1.23585,4.33344 -0.329915,6.069603 1.768711,2.598301 1.577811,0.377516 1.99955,-0.740817 0.571305,-1.184929 2.521838,-2.078071 3.57981,-2.078071 0.655943,0 1.169059,0.248623 1.53935,0.74587 0.37029,0.497247 0.470797,1.158479 0.301522,1.983698 -0.179855,0.878117 -1.267598,2.015981 -1.860063,2.544967 -6.881005,4.468212 -10.377144,-3.195253 -7.573065,-9.538398 3.685949,-7.856962 7.50256,-8.410296 7.888766,-8.995561 l -5.053191,2e-6 0.214663,-2.42051 10.17705,-0.01992 z"
         id="path908"
         sodipodi:nodetypes="cccccsscccccccc" />
      <path
         style="opacity:1;fill:#ffffff;stroke:none;stroke-width:0.264583px;stroke-linecap:butt;stroke-linejoin:miter;stroke-opacity:1"
         d="m 67.639704,60.328566 h 8.699154 c 0,0 1.937705,0.658998 1.88759,3.147946 0,0 3.340871,-2.605877 4.760741,-3.023486 0,0 4.860964,-1.353052 4.57699,4.476765 l 3.441095,-8.41899 1.378108,1.094134 -0.02923,2.718632 1.655819,0.02297 1.188097,2.562029 H 91.072092 L 82.824033,82.682292 80.65067,80.154576 86.178572,68.082961 c 0,0 -0.377977,-6.945312 -4.181362,-3.141927 0,0 3.56715,3.779762 -0.779576,6.212984 0,0 -3.899067,2.051192 -4.395161,-1.539582 0,0 -6.656503,5.177603 -6.495278,-0.373922 0,0 0.09449,-2.811198 5.386161,-4.488468 0,0 0.921317,-1.724516 -1.299293,-2.031622 l -6.946316,0.03784 z"
         id="path947"
         sodipodi:nodetypes="cccccccccccccccccccccc" />
      <path
         style="fill:#ffffff;stroke:none;stroke-width:0.264583px;stroke-linecap:butt;stroke-linejoin:miter;stroke-opacity:1"
         d="M -5.905878,102.59691 H 9.874628 l -1.5119049,5.14993 -9.8510043,-0.0945 -1.3701636,3.77977 H 6.331101 l -1.2992931,4.48846 H -4.346726 l -1.700893,4.96094 H 4.1577381 l -1.2756697,4.96094 H -13.441778 Z"
         id="path953" />
      <path
         style="fill:#ffffff;stroke:none;stroke-width:0.264583px;stroke-linecap:butt;stroke-linejoin:miter;stroke-opacity:1"
         d="M 27.061041,102.6315 H 46.17081 l -2.03793,5.71288 h -6.447877 l -5.779704,17.40593 h -6.180607 l 6.080381,-17.47274 H 25.25697 Z"
         id="path955" />
      <path
         style="fill:#ffffff;stroke:none;stroke-width:0.264583px;stroke-linecap:butt;stroke-linejoin:miter;stroke-opacity:1"
         d="m 60.670183,102.6315 c 0.133633,0 6.280832,0 6.280832,0 l -1.069078,16.30344 9.287616,-16.33685 h 5.64607 L 66.850791,125.81713 H 60.737 Z"
         id="path959" />
    </g>
  </g>
</svg>
