<?xml version="1.0" encoding="UTF-8" standalone="no"?>
<svg
   xmlns:dc="http://purl.org/dc/elements/1.1/"
   xmlns:cc="http://creativecommons.org/ns#"
   xmlns:rdf="http://www.w3.org/1999/02/22-rdf-syntax-ns#"
   xmlns:svg="http://www.w3.org/2000/svg"
   xmlns="http://www.w3.org/2000/svg"
   xmlns:sodipodi="http://sodipodi.sourceforge.net/DTD/sodipodi-0.dtd"
   xmlns:inkscape="http://www.inkscape.org/namespaces/inkscape"
   version="1.0"
   width="100"
   height="61"
   viewBox="0 0 80 48.8"
   preserveAspectRatio="xMidYMid meet"
   id="svg2"
   inkscape:version="0.48.4 r9939"
   sodipodi:docname="dd.svg">
  <title
     id="title3056">FOX Sports logo</title>
  <defs
     id="defs40" />
  <sodipodi:namedview
     pagecolor="#ffffff"
     bordercolor="#666666"
     borderopacity="1"
     objecttolerance="10"
     gridtolerance="10"
     guidetolerance="10"
     inkscape:pageopacity="0"
     inkscape:pageshadow="2"
     inkscape:window-width="1600"
     inkscape:window-height="844"
     id="namedview38"
     showgrid="false"
     inkscape:showpageshadow="false"
     inkscape:zoom="5.6375284"
     inkscape:cx="72.604668"
     inkscape:cy="28.778712"
     inkscape:window-x="-4"
     inkscape:window-y="-4"
     inkscape:window-maximized="1"
     inkscape:current-layer="svg2" />
  <metadata
     id="metadata4">
Created by potrace 1.13, written by Peter Selinger 2001-2015
<rdf:RDF>
  <cc:Work
     rdf:about="">
    <dc:format>image/svg+xml</dc:format>
    <dc:type
       rdf:resource="http://purl.org/dc/dcmitype/StillImage" />
    <dc:title>FOX Sports logo</dc:title>
  </cc:Work>
</rdf:RDF>
</metadata>
  <g
     transform="matrix(0.00588931,0,0,-0.0059371,-1.3415097,51.525167)"
     id="g6"
     style="fill:#003380;fill-opacity:1;stroke:none">
    <path
       d="m 6470,8564 c -25,-2 -124,-8 -220,-14 C 5405,8498 4529,8332 3771,8081 2443,7641 1417,6964 821,6132 539,5738 362,5305 305,4867 285,4711 285,4379 305,4223 353,3854 479,3506 686,3165 1109,2470 1898,1818 2850,1375 4289,706 6081,414 7880,556 c 2319,182 4288,1063 5256,2350 118,157 213,313 304,499 123,251 194,464 241,726 30,173 38,558 15,739 -95,727 -495,1393 -1198,1996 -1010,865 -2547,1456 -4273,1644 -422,45 -561,52 -1145,55 -311,1 -585,1 -610,-1 z m 368,-186 c 17,-17 16,-177 0,-183 -7,-2 -105,-9 -218,-15 C 5322,8110 4151,7695 3270,6993 3113,6868 2777,6537 2668,6400 2206,5817 1980,5207 1980,4540 c 0,-733 278,-1401 838,-2017 497,-546 1222,-999 2043,-1278 559,-190 1200,-308 1800,-331 116,-5 172,-11 179,-20 6,-7 10,-48 8,-96 l -3,-83 -175,2 c -96,2 -249,7 -340,13 -1858,119 -3505,687 -4630,1600 -148,120 -451,424 -564,565 -360,452 -576,949 -627,1444 -16,153 -6,423 20,576 45,261 108,452 236,710 355,721 1041,1345 2020,1840 865,438 1871,725 2995,854 293,34 574,53 1006,69 22,1 45,-3 52,-10 z m 667,-3 c 747,-30 1615,-169 2313,-371 778,-225 1485,-543 2062,-927 716,-478 1206,-1043 1455,-1680 327,-836 166,-1704 -461,-2492 -113,-141 -436,-465 -584,-585 C 11102,1357 9355,788 7355,714 c -155,-6 -182,-4 -193,9 -9,10 -12,42 -10,99 l 3,83 155,7 c 1165,51 2240,384 3098,958 606,406 1040,882 1317,1444 216,440 308,857 292,1331 -25,750 -323,1402 -917,2009 -535,547 -1182,938 -2005,1211 -546,181 -1087,281 -1710,316 -115,6 -216,16 -222,22 -14,10 -19,168 -6,181 4,4 53,5 108,2 55,-3 163,-8 240,-11 z m 80,-359 c 637,-63 1191,-190 1705,-391 634,-248 1291,-652 1518,-933 458,-570 722,-1213 782,-1907 16,-180 7,-485 -19,-667 -53,-364 -150,-675 -316,-1013 -107,-219 -210,-388 -357,-583 -126,-169 -208,-251 -364,-369 C 9334,1246 7582,865 5905,1146 c -834,140 -1589,430 -2230,857 -259,173 -389,281 -491,407 -426,527 -685,1127 -770,1786 -21,157 -24,511 -6,669 77,683 345,1306 795,1850 120,145 427,371 767,566 758,434 1658,689 2655,753 142,9 817,-3 960,-18 z"
       id="path10"
       inkscape:connector-curvature="0"
       style="fill:#003380;fill-opacity:1" />
    <path
       d="M 3925,7786 C 3066,7499 2389,7137 1825,6663 1672,6535 1409,6267 1296,6125 1031,5791 860,5454 769,5085 c -25,-101 -59,-310 -59,-361 0,-12 72,-14 537,-12 l 538,3 11,110 c 63,593 306,1146 730,1661 364,443 883,846 1484,1151 80,41 149,79 153,86 12,17 -16,121 -34,124 -8,1 -99,-26 -204,-61 z"
       id="path12"
       inkscape:connector-curvature="0"
       style="fill:#003380;fill-opacity:1" />
    <path
       d="m 710,4417 c 0,-266 102,-643 256,-944 409,-802 1307,-1522 2486,-1993 213,-86 633,-230 667,-230 15,0 23,10 31,42 26,93 35,83 -170,188 -777,401 -1355,909 -1738,1530 -248,401 -413,875 -446,1280 -4,41 -9,101 -12,133 l -6,57 -534,0 -534,0 0,-63 z"
       id="path14"
       inkscape:connector-curvature="0"
       style="fill:#003380;fill-opacity:1" />
    <path
       d="m 9841,7806 c -22,-89 -26,-84 132,-164 585,-295 1092,-677 1441,-1086 204,-239 337,-436 473,-703 180,-351 275,-661 316,-1033 l 12,-105 539,-3 538,-2 -6,67 c -56,554 -303,1063 -752,1545 -530,570 -1273,1036 -2184,1371 -196,72 -456,157 -481,157 -11,0 -20,-14 -28,-44 z"
       id="path16"
       inkscape:connector-curvature="0"
       style="fill:#003380;fill-opacity:1" />
    <path
       d="m 12220,4471 c 0,-52 -26,-290 -41,-381 -179,-1061 -989,-2030 -2206,-2639 -132,-66 -143,-73 -143,-99 0,-48 20,-102 37,-102 25,0 229,65 423,135 1170,423 2067,1051 2569,1800 231,345 362,678 416,1060 8,55 15,130 15,168 l 0,67 -535,0 c -329,0 -535,-4 -535,-9 z"
       id="path18"
       inkscape:connector-curvature="0"
       style="fill:#003380;fill-opacity:1" />
    <path
       d="m 3407,6833 c -4,-3 -7,-710 -7,-1570 l 0,-1563 450,0 450,0 2,503 3,502 428,3 427,2 0,435 0,435 -414,0 c -340,0 -416,2 -425,14 -8,9 -11,68 -9,187 l 3,174 515,3 c 283,1 518,6 522,10 4,4 -6,201 -22,437 -17,237 -30,431 -30,433 0,5 -1887,1 -1893,-5 z"
       id="path20"
       inkscape:connector-curvature="0"
       style="fill:#003380;fill-opacity:1" />
    <path
       d="m 7892,6812 c 3,-10 197,-350 433,-756 417,-722 427,-740 412,-765 -365,-636 -891,-1561 -895,-1574 -4,-16 22,-17 479,-15 l 484,3 215,377 c 118,208 219,376 223,375 4,-1 105,-171 225,-377 l 217,-375 498,-3 c 453,-2 497,-1 497,14 0,9 -208,374 -462,811 -254,438 -461,800 -461,807 0,6 187,339 416,739 230,401 417,735 417,743 0,12 -72,14 -477,14 l -478,0 -185,-320 c -102,-176 -188,-320 -191,-320 -4,0 -89,144 -189,320 l -182,320 -500,0 c -474,0 -500,-1 -496,-18 z"
       id="path22"
       inkscape:connector-curvature="0"
       style="fill:#003380;fill-opacity:1" />
    <path
       d="m 6630,6779 c -629,-78 -1144,-552 -1281,-1180 -31,-141 -42,-320 -30,-464 34,-399 178,-704 460,-978 218,-211 425,-325 712,-389 91,-20 131,-23 314,-23 167,0 227,4 295,19 307,66 537,191 756,410 219,219 353,466 420,776 27,122 27,507 1,630 -76,352 -250,641 -524,869 -198,166 -410,267 -663,316 -102,19 -355,28 -460,14 z m 292,-672 c 51,-27 69,-42 95,-86 18,-30 37,-77 43,-106 7,-35 10,-260 8,-686 -3,-585 -4,-637 -21,-674 -25,-55 -73,-103 -132,-131 -72,-34 -128,-32 -206,9 -55,28 -67,40 -98,97 l -36,65 0,675 c 0,663 0,676 21,720 42,90 124,149 211,150 39,0 66,-8 115,-33 z"
       id="path24"
       inkscape:connector-curvature="0"
       style="fill:#003380;fill-opacity:1" />
    <path
       d="m 3412,3427 -82,-82 0,-205 0,-206 68,-67 68,-67 306,0 c 265,0 309,-2 322,-16 20,-19 23,-153 4,-172 -9,-9 -100,-12 -347,-12 l -336,-1 -42,-40 -43,-40 0,-89 0,-90 478,0 477,0 83,83 82,82 0,205 0,206 -73,72 -72,72 -306,0 c -224,0 -308,3 -317,12 -16,16 -16,150 0,166 9,9 98,12 338,12 l 326,0 32,33 c 32,32 32,34 32,130 l 0,97 -458,0 -457,0 -83,-83 z"
       id="path26"
       inkscape:connector-curvature="0"
       style="fill:#003380;fill-opacity:1" />
    <path
       d="m 4630,2925 0,-585 165,0 165,0 2,183 3,182 310,3 310,2 87,87 88,88 0,225 0,225 -87,87 -88,88 -477,0 -478,0 0,-585 z m 765,300 c 23,-22 25,-31 25,-126 0,-92 -2,-105 -22,-126 -21,-23 -26,-23 -218,-23 -139,0 -199,3 -208,12 -13,13 -18,269 -5,281 3,4 96,7 205,7 198,0 199,0 223,-25 z"
       id="path28"
       inkscape:connector-curvature="0"
       style="fill:#003380;fill-opacity:1" />
    <path
       d="m 5996,3416 -86,-94 0,-404 0,-403 88,-88 87,-87 400,0 400,0 87,87 88,88 0,410 0,410 -88,88 -87,87 -401,0 -402,0 -86,-94 z m 700,-210 34,-34 0,-238 0,-238 -32,-33 -32,-33 -174,0 -174,0 -34,34 -34,34 0,238 0,238 32,33 32,33 174,0 174,0 34,-34 z"
       id="path30"
       inkscape:connector-curvature="0"
       style="fill:#003380;fill-opacity:1" />
    <path
       d="m 7250,2925 0,-585 170,0 170,0 2,208 3,207 146,3 c 109,2 149,-1 156,-10 6,-7 42,-101 80,-208 l 70,-195 187,-3 c 182,-2 186,-2 186,18 0,12 -40,117 -90,233 -49,117 -90,217 -90,223 0,5 32,41 70,79 l 70,69 0,191 0,190 -83,83 -82,82 -483,0 -482,0 0,-585 z m 765,300 c 22,-21 25,-33 25,-91 0,-56 -4,-72 -22,-91 -21,-22 -26,-23 -213,-23 -135,0 -195,4 -203,12 -13,13 -17,199 -5,211 3,4 94,7 200,7 193,0 194,0 218,-25 z"
       id="path32"
       inkscape:connector-curvature="0"
       style="fill:#003380;fill-opacity:1" />
    <path
       d="m 8470,3365 0,-145 173,0 c 121,0 177,-4 185,-12 9,-9 12,-120 12,-440 l 0,-428 165,0 165,0 2,438 3,437 183,3 182,2 0,145 0,145 -535,0 -535,0 0,-145 z"
       id="path34"
       inkscape:connector-curvature="0"
       style="fill:#003380;fill-opacity:1" />
    <path
       d="m 9707,3432 -77,-77 0,-210 0,-211 68,-67 68,-67 306,0 c 265,0 309,-2 322,-16 20,-19 23,-153 4,-172 -9,-9 -101,-12 -353,-12 l -341,0 -37,-38 -37,-38 0,-92 0,-92 478,0 477,0 78,78 77,77 0,215 0,216 -68,67 -68,67 -305,0 c -224,0 -308,3 -317,12 -7,7 -12,41 -12,83 0,42 5,76 12,83 9,9 98,12 338,12 l 326,0 32,33 c 32,32 32,34 32,130 l 0,97 -463,0 -462,0 -78,-78 z"
       id="path36"
       inkscape:connector-curvature="0"
       style="fill:#003380;fill-opacity:1" />
  </g>
</svg>
