<?xml version="1.0" encoding="UTF-8"?>
<svg width="607.08" height="161.31" version="1.0" viewBox="0 0 455.31 120.99" xmlns="http://www.w3.org/2000/svg">
 <g transform="matrix(.40323 0 0 .40323 4.3384 4.3355)" stroke-width="2.48">
  <path d="m959.26 13.7-4.9 13.8-8.3 0.3-8.2 0.3v18.9h15v45.7c0 27 0.4 48.4 1.1 52.2 2.2 13.6 8.5 22.1 19 25.7 6.6 2.2 20.1 2.5 27.7 0.5l5.2-1.3v-20.7l-4.1 1.4c-2.3 0.8-7.3 1.5-11 1.5-6.5 0-7.2-0.2-10.7-3.4l-3.7-3.4-0.6-98.2h28.1v-19h-14c-8.7 0-14-0.4-14-1 0-1.4 2.9-20.9 3.6-24.3l0.6-2.7h-15.9z"/>
  <path d="m488.46 4.7c-0.3 1.6-1 7.1-1.6 12.3-1.7 15.3-0.8 14-10 14h-8v11h15.9l0.3 53.7 0.3 53.8 3.1 6.6c3.5 7.4 7.5 11 15.4 14 5.7 2.2 15.1 2.5 23 0.8l5-1.1v-6c0-5.3-0.2-5.9-1.7-5.3-1 0.4-6.1 0.9-11.3 1.2-11.4 0.5-15.2-1-18.4-7.2-2-3.9-2.1-5.7-2.4-57.3l-0.3-53.2h32.1v-11h-32v-29h-4.4c-4 0-4.5 0.2-5 2.7z" fill="#1972a8"/>
  <path d="m75.359 13c-28.5 4.5-53 22.3-66 48-17.3 34.2-10.2 75 17.7 101.6 23.9 22.9 56.5 30.5 87.3 20.3 14.1-4.7 22.6-10 34.1-21.4 17.8-17.6 26.4-37.6 26.4-61.5 0-46.7-37.2-85.5-84-87.5-5.2-0.2-12.2 0-15.5 0.5zm24.9 57.8c17.9 16.1 32.6 29.9 32.6 30.6 0 1.6-64.4 59.9-66.6 60.4-1.2 0.3-1.4-8.8-1.4-60.3 0-51.6 0.2-60.6 1.4-60.3 0.8 0.2 16.1 13.5 34 29.6z" fill="#1972a8"/>
  <path d="m581.36 29.3c-11.9 3.1-20.6 10.3-24.7 20.6-2.2 5.5-2.3 6.6-2.6 49-0.3 41.4-0.2 43.8 1.8 50.2 2.5 8.5 7 14.5 14 18.7 7.8 4.7 12.1 5.7 24 5.6 8.4 0 11.6-0.5 16.1-2.2 8-3.2 14.2-9 18.1-16.9 2.8-5.8 3.3-7.8 3.6-16.5l0.4-9.8h-13.2v7.3c0 19.7-8.9 27.8-29 26.4-10.9-0.7-16.4-3.7-20.3-11.2-2-3.7-2.2-5.9-2.5-25.3l-0.4-21.2h65.2v-22.8c0-25.5-0.7-29.6-6.3-37.8-4.2-6.3-9-9.9-16.2-12.5-7.4-2.6-20.9-3.4-28-1.6zm22.8 11.8c2.1 0.6 5.6 2.6 7.8 4.6 5.8 5.2 6.9 10.1 6.9 30.5v16.8h-52.2l0.4-18.8c0.3-17 0.5-19.1 2.6-22.9 2.5-4.8 7.2-8.7 12.2-10.1 4.7-1.4 17.6-1.4 22.3-0.1z" fill="#1972a8"/>
  <path d="m687.86 29c-6.6 1.4-16.5 6.6-19.6 10.3-5 5.9-7.6 13.2-8.2 22.8l-0.5 8.9h13.3v-5.5c0-18.4 7.2-25.5 26-25.5 10.2 0 15.6 1.6 20 6 4.9 4.9 6 9.8 6 27.4v14.5l-8.2 2.5c-4.6 1.3-13.7 4.1-20.3 6.1-21.7 6.5-30 11.8-35.2 22.3-2.2 4.5-2.8 7.3-3.1 14.7-1.2 26 10.9 39 36.3 38.9 7.7 0 9.9-0.4 15.2-2.8 3.7-1.7 7.9-4.6 10.5-7.4l4.3-4.6 0.5 6.9 0.5 7 12.6 0.6-0.6-118.8-3.5-6.9c-4-7.8-8.9-12.1-17.7-15.4-6.6-2.5-21.1-3.5-28.3-2zm37 91.1c0 22.2-0.8 26.9-5.2 32.3-5.5 6.7-9.6 8.1-23.9 8.1-11.7 0-12.8-0.2-16.2-2.5-5.5-3.8-7.7-8.6-8.4-18.3-1-14.9 2.4-22.4 12.3-27.2 3.7-1.8 37.5-12.2 40.2-12.4 0.9-0.1 1.2 4.5 1.2 20z" fill="#1972a8"/>
  <path d="m1018.9 28.5c0 0.9 30 139.7 30.6 141.8 0.5 1.6 1.9 1.7 15.2 1.5l14.6-0.3 10.7-49c5.9-27 12.9-59.2 15.6-71.8l5-22.7h-22.4l-2.1 10.2c-9.5 46.3-16.3 81.4-18.1 92.8-1.2 7.4-2.5 14.4-3 15.4-0.4 1.2-1.9-5.3-4-18-2.7-16.7-18-93.1-19.7-98.7-0.5-1.5-1.9-1.7-11.5-1.7-6 0-10.9 0.2-10.9 0.5z"/>
  <path d="m208.86 101v71h13.9l0.3-56.8c0.3-62.2 0-59.2 6.4-65.6 6.5-6.5 18.4-9.3 28.1-6.6 5.8 1.7 11.4 7.1 13.1 12.6 0.9 3.1 1.2 18.8 1.2 60.3v56.1h13.9l0.3-55.8c0.3-51.1 0.4-56 2.1-59.7 3.8-8.5 11.4-13.5 21.5-14.3 12-0.8 19.5 2.9 23.6 11.8 2 4.4 2.1 6 2.4 61.2l0.3 56.8h13.9v-53.3c0-29.9-0.5-56.2-1-60.1-1.8-12.4-7.1-20.5-16.4-25.4-4.3-2.2-6.7-2.7-15.1-3-13.1-0.5-19.7 1.7-27 9.2-2.7 2.8-5.5 5.9-6 7-0.9 1.6-1.4 1.3-4.2-3.3-3.4-5.4-10.1-10.4-16.3-12.1-1.9-0.5-7.2-1-11.7-1-10.6 0-17.9 2.6-24.5 8.8l-4.8 4.5v-13.3h-14z"/>
  <path d="m370.26 31.7c0.2 1 8.2 31 17.7 66.8 16.3 62 17.1 65.3 16.6 72-0.7 8.5-2.6 13.2-7.5 18.7s-10.2 7.8-17.9 7.8h-6.3v13.3l7.8-0.6c10.3-0.8 17.9-3.7 24.1-9.3 9.2-8.3 10.1-10.9 30.6-93.3 10.2-41 18.5-75.1 18.5-75.8 0-0.9-1.8-1.3-6.8-1.3h-6.7l-11.3 47.2c-6.2 26-12.2 51.5-13.3 56.6-1.2 5.1-2.4 9-2.8 8.6-0.3-0.3-6.9-25.6-14.6-56.2l-14.1-55.7-7.3-0.3c-6.6-0.3-7.2-0.1-6.7 1.5z"/>
  <path d="m804.36 31.4c-6.4 2-9.9 4.2-13.8 8.5-2 2.3-4.1 4.1-4.7 4.1s-1-2.8-1-6.5v-6.5h-13l0.2 70.2 0.3 70.3h13l0.5-57.7 0.5-57.6 3-4.3c1.9-2.7 5-5.4 8.4-7.1 4.6-2.4 6.5-2.8 13.9-2.8 10.6 0 16 2.3 20 8.3l2.7 4.1 0.5 58.5 0.5 58.6 6.8 0.3 6.7 0.3v-55.3c0-36.9 0.4-56.6 1.1-59.3 1.4-5.2 9-12.6 14.5-14.3 6.3-1.9 18.1-1.5 23 0.7 5.1 2.3 9 7.2 10.3 13.1 0.7 2.8 1.1 25.4 1.1 59.7v55.3h13.1l-0.3-58.8-0.3-58.7-2.6-5.5c-5.7-12.1-14.4-18-27.8-18.8-13.3-0.8-25.1 4.4-30.8 13.3-1.5 2.5-3.3 4.4-4 4.5-0.6 0-2.3-2-3.7-4.3-5-8.6-15.3-13.8-27.3-13.6-3.8 0-8.6 0.6-10.8 1.3z" fill="#1972a8"/>
  <path d="m778.76 192.3c-4.4 2.9-6.9 8-6.9 13.9v4.8h-3.5c-3.5 0-3.5 0-3.5 4.4 0 4.3 0.1 4.5 3.3 4.8l3.2 0.3 0.3 30.7 0.2 30.8h11l0.2-30.8 0.3-30.7 5.8-0.3 5.7-0.3v-8.9h-12v-4c0-5.5 2.6-8 8.5-8h4.5v-9h-6.9c-5.4 0-7.5 0.5-10.2 2.3z"/>
  <path d="m958.86 237.1v45l15.9-0.3c18-0.3 19.5-0.9 23.9-8.4 2.2-3.8 2.2-4.5 2-28.6-0.3-23.1-0.4-24.8-2.4-27.4-3.9-5.3-6.9-6.8-13.7-6.8-6 0-12.7 2.5-12.7 4.6 0 0.4-0.4 0.8-1 0.8s-1-4.7-1-12v-12h-11zm26.3-15.9c4.4 2.3 4.6 3.3 4.7 25.1 0 20.6 0 20.8-2.4 23.2-2.7 2.6-7.2 3.8-13.1 3.3l-4-0.3v-46.7l3.3-2.9c3.5-3.1 7.7-3.8 11.5-1.7z"/>
  <path d="m1070.9 237v45h11v-90h-11z"/>
  <path d="m1097.9 237v45h11v-90h-11z"/>
  <path d="m865.16 212.1c-2.3 1.1-4.9 3.1-5.7 4.4-2.4 3.6-3.8 11.4-3.1 16.7 1.1 7.9 3.7 10.6 15.9 16.9 13.2 6.8 15 8.7 14.3 14.9-0.7 6.5-4.4 9.4-11.1 8.7-6.1-0.5-8.6-3.1-8.6-8.8v-3.9h-11v4.4c0 5.6 1.4 9.3 4.7 12.8 3.6 3.7 8.4 5.2 16.9 5.1 12.2-0.1 18.4-5.1 19.9-15.8 0.8-6.7-0.7-13.1-4.2-16.7-1.5-1.7-7.6-5.4-13.4-8.3-11.8-6-13.7-8.3-12.6-15.3 0.9-5.6 4.9-8.6 10.6-7.9 5.6 0.6 8.1 3.4 8.1 8.8v3.9h11v-4.3c0-6.5-3.6-12.7-9-15.5-6-3-16.7-3.1-22.7-0.1z"/>
  <path d="m915.16 212.1c-2.3 1.1-4.9 3.1-5.7 4.4-2.4 3.6-3.8 11.4-3.1 16.7 1.1 7.9 3.7 10.6 15.9 16.9 13.2 6.8 15 8.7 14.3 14.9-0.7 6.5-4.4 9.4-11.1 8.7-6.1-0.5-8.6-3.1-8.6-8.8v-3.9h-11v4.4c0 5.6 1.4 9.3 4.7 12.8 3.6 3.7 8.4 5.2 16.9 5.1 12.2-0.1 18.4-5.1 19.9-15.8 0.8-6.7-0.7-13.1-4.2-16.7-1.5-1.7-7.6-5.4-13.4-8.3-11.8-6-13.7-8.3-12.6-15.3 0.9-5.6 4.9-8.6 10.6-7.9 5.6 0.6 8.1 3.4 8.1 8.8v3.9h11v-4.3c0-6.5-3.6-12.7-9-15.5-6-3-16.7-3.1-22.7-0.1z"/>
  <path d="m1022.9 212.2c-5.6 3-9 9-9 16v4.8h11v-3.9c0-2.7 0.7-4.8 2.3-6.7 2-2.2 3.1-2.6 7.7-2.6s5.7 0.4 7.7 2.6c1.9 2.3 2.3 3.8 2.3 9.9v7.2l-10.3 3.2c-10.9 3.4-15.7 6.1-19.1 10.6-3 4-3 17.7-0.1 22.5 2.6 4.3 8.8 7.2 15.4 7.2 5.5 0 8.2-1 11.9-4.3l2.2-2v2.6c0 2.6 0.2 2.7 5.5 2.7h5.5v-29.3c0-26.3-0.2-29.6-1.9-33.3-2.9-6.3-7.6-8.7-18-9.2-7.6-0.3-9.1-0.1-13.1 2zm22 46.2c0 8.4-0.3 9.8-2.3 12.1-4.5 5.2-15.3 4.3-17.7-1.6-1.7-4.1-0.6-11 2-13.1 1.6-1.3 14.2-6.1 17.8-6.8 0.1 0 0.2 4.2 0.2 9.4z"/>
  <path d="m801.86 240.7c0 27.4 0.2 30.2 2 34.1 4.1 9 19 10.9 27.2 3.5 1.7-1.5 1.8-1.4 1.8 1 0 2.6 0.2 2.7 5.5 2.7h5.5v-71h-11v26.4c0 16.7-0.4 27.5-1.1 29.5-2 5.7-11.2 8.1-16 4.2l-2.4-1.9-0.6-58.2h-10.9z"/>
 </g>
</svg>
