<?xml version="1.0" encoding="UTF-8"?>
<svg xmlns="http://www.w3.org/2000/svg" xmlns:xlink="http://www.w3.org/1999/xlink" width="150px" height="76px" viewBox="0 0 149 76" version="1.1">
<g id="surface1">
<path style=" stroke:none;fill-rule:nonzero;fill:rgb(99.215686%,1.176471%,30.19608%);fill-opacity:1;" d="M 130.578125 59.386719 L 126.921875 46.003906 C 126.121094 43.1875 123.203125 41.523438 120.402344 42.386719 C 117.601562 43.1875 116 46.117188 116.800781 48.933594 L 123.03125 71.90625 C 123.832031 74.71875 126.75 76.386719 129.550781 75.523438 C 130.292969 75.292969 130.921875 74.949219 131.492188 74.488281 C 131.894531 74.203125 132.238281 73.800781 132.523438 73.398438 L 140.925781 60.417969 C 139.4375 56.628906 137.78125 53.183594 136.410156 50.425781 Z M 130.578125 59.386719 "/>
<path style=" stroke:none;fill-rule:nonzero;fill:rgb(99.607843%,14.901961%,24.313726%);fill-opacity:1;" d="M 146.757812 42.902344 C 144.640625 41.464844 141.78125 42.097656 140.355469 44.222656 L 136.351562 50.425781 C 137.78125 53.125 139.382812 56.570312 140.867188 60.417969 L 148.070312 49.335938 C 149.441406 47.210938 148.871094 44.28125 146.757812 42.902344 Z M 146.757812 42.902344 "/>
<path style=" stroke:none;fill-rule:nonzero;fill:rgb(98.431373%,1.176471%,30.19608%);fill-opacity:1;" d="M 113.886719 42.15625 L 96.050781 42.15625 C 99.425781 46.460938 102.625 51.058594 105.484375 56.054688 L 106.285156 51.976562 L 112.914062 51.976562 C 113.601562 51.976562 114.230469 51.859375 114.859375 51.574219 L 114.34375 49.621094 C 113.601562 47.09375 114.230469 44.453125 115.773438 42.5 C 115.144531 42.269531 114.515625 42.15625 113.886719 42.15625 Z M 113.886719 42.15625 "/>
<path style=" stroke:none;fill-rule:nonzero;fill:rgb(75.294119%,0.392157%,40.784314%);fill-opacity:1;" d="M 91.304688 42.15625 C 88.621094 42.15625 86.21875 44.335938 85.933594 47.035156 C 85.648438 49.734375 87.648438 51.917969 90.335938 51.917969 L 96.335938 51.917969 L 92.734375 70.238281 C 92.222656 72.882812 93.9375 75.464844 96.566406 75.925781 C 99.195312 76.386719 101.769531 74.605469 102.339844 71.960938 L 105.484375 55.996094 C 102.625 51 99.425781 46.347656 96.050781 42.097656 L 91.304688 42.097656 Z M 91.304688 42.15625 "/>
<path style=" stroke:none;fill-rule:nonzero;fill:rgb(56.470591%,0%,12.941177%);fill-opacity:1;" d="M 54.835938 47.4375 C 54.835938 48.703125 55.292969 49.851562 56.035156 50.769531 C 57.066406 51.976562 58.609375 52.722656 60.324219 52.722656 L 68.898438 52.722656 C 68.15625 53.984375 67.238281 55.136719 66.152344 56.226562 C 61.007812 61.394531 53.75 62.886719 48.320312 60.417969 C 55.292969 63.863281 62.09375 67.769531 68.039062 72.25 C 70.957031 70.757812 73.699219 68.746094 76.15625 66.277344 C 77.300781 65.128906 78.328125 63.921875 79.300781 62.601562 C 74.042969 55.996094 65.984375 49.335938 57.121094 43.132812 C 56.835938 43.359375 56.550781 43.589844 56.265625 43.820312 C 55.40625 44.738281 54.835938 46.0625 54.835938 47.4375 Z M 54.835938 47.4375 "/>
<path style=" stroke:none;fill-rule:nonzero;fill:rgb(75.294119%,0.392157%,40.784314%);fill-opacity:1;" d="M 79.359375 62.601562 C 81.761719 59.386719 83.53125 55.765625 84.5625 51.976562 C 83.359375 50.539062 82.847656 48.703125 83.015625 46.75 C 83.132812 45.660156 83.476562 44.625 83.988281 43.707031 C 83.015625 42.730469 81.644531 42.15625 80.101562 42.15625 L 60.378906 42.15625 C 59.179688 42.15625 58.09375 42.5 57.179688 43.132812 C 65.984375 49.335938 74.042969 55.996094 79.359375 62.601562 Z M 79.359375 62.601562 "/>
<path style=" stroke:none;fill-rule:nonzero;fill:rgb(34.509805%,0%,0%);fill-opacity:1;" d="M 47.574219 60.074219 C 40.660156 56.6875 33.570312 53.8125 27.167969 51.460938 C 27.738281 57.605469 30.253906 63.460938 34.769531 68 C 39.972656 73.226562 46.832031 75.753906 53.921875 75.753906 C 58.722656 75.753906 63.582031 74.546875 68.097656 72.25 C 62.152344 67.828125 55.292969 63.863281 48.375 60.417969 C 48.089844 60.304688 47.804688 60.1875 47.574219 60.074219 Z M 47.574219 60.074219 "/>
<path style=" stroke:none;fill-rule:nonzero;fill:rgb(56.470591%,0%,12.941177%);fill-opacity:1;" d="M 27.167969 51.460938 C 33.570312 53.8125 40.660156 56.6875 47.574219 60.074219 C 46.546875 59.5 45.632812 58.808594 44.773438 58.007812 C 39.34375 52.550781 40.085938 42.902344 46.488281 36.46875 C 46.546875 36.410156 46.660156 36.296875 46.71875 36.238281 C 42.542969 33.597656 38.316406 31.128906 34.3125 28.832031 C 28.882812 35.4375 26.425781 43.648438 27.167969 51.460938 Z M 27.167969 51.460938 "/>
<path style=" stroke:none;fill-rule:nonzero;fill:rgb(34.509805%,0%,0%);fill-opacity:1;" d="M 1.445312 57.433594 C -0.328125 67.082031 7.046875 75.984375 16.820312 75.984375 L 39.113281 75.984375 C 36.601562 74.605469 34.3125 72.882812 32.253906 70.8125 C 26.652344 65.183594 23.738281 57.777344 23.394531 50.082031 C 14.648438 47.035156 7.386719 44.96875 3.84375 44.050781 Z M 1.445312 57.433594 "/>
<path style=" stroke:none;fill-rule:nonzero;fill:rgb(99.215686%,1.176471%,30.19608%);fill-opacity:1;" d="M 77.1875 0 L 39.859375 0 C 45.746094 2.585938 54.550781 6.890625 64.210938 13.265625 C 70.613281 14.300781 76.445312 17.230469 81.015625 21.824219 C 81.417969 22.226562 81.761719 22.570312 82.101562 22.972656 C 83.816406 24.867188 84.789062 27.335938 84.902344 29.863281 C 86.449219 31.359375 87.992188 32.910156 89.476562 34.515625 L 92.5625 18.492188 C 94.335938 8.902344 86.960938 0 77.1875 0 Z M 77.1875 0 "/>
<path style=" stroke:none;fill-rule:nonzero;fill:rgb(56.470591%,0%,12.941177%);fill-opacity:1;" d="M 8.644531 17.863281 L 3.902344 44.050781 C 7.503906 44.96875 14.707031 47.035156 23.453125 50.082031 C 23.109375 42.097656 25.679688 33.769531 31.054688 26.9375 C 20.824219 21.25 12.246094 17.113281 8.875 15.507812 C 8.816406 16.886719 8.644531 17.863281 8.644531 17.863281 Z M 8.644531 17.863281 "/>
<path style=" stroke:none;fill-rule:nonzero;fill:rgb(75.294119%,0.392157%,40.784314%);fill-opacity:1;" d="M 77.929688 24.636719 C 72.5 19.183594 65.125 16.484375 57.179688 16.886719 C 49.519531 17.285156 42.144531 20.675781 36.484375 26.363281 C 35.742188 27.109375 35 27.910156 34.3125 28.773438 C 38.316406 31.070312 42.542969 33.539062 46.71875 36.183594 C 53.121094 29.980469 62.550781 29.289062 67.925781 34.6875 C 68.039062 34.804688 68.210938 34.976562 68.328125 35.089844 C 69.414062 36.296875 70.839844 37.042969 72.328125 37.332031 C 73.472656 37.5625 74.730469 37.445312 75.871094 36.984375 L 76.15625 36.871094 C 78.5 36.011719 79.988281 34.058594 80.503906 31.933594 C 81.015625 29.808594 80.503906 27.453125 78.84375 25.613281 C 78.558594 25.328125 78.214844 24.984375 77.929688 24.636719 Z M 77.929688 24.636719 "/>
<path style=" stroke:none;fill-rule:nonzero;fill:rgb(93.333334%,1.176471%,20.784314%);fill-opacity:1;" d="M 84.902344 29.863281 C 84.960938 30.898438 84.847656 31.933594 84.617188 32.964844 C 84.105469 35.035156 83.074219 36.8125 81.589844 38.25 C 83.015625 38.191406 85.074219 37.789062 87.191406 39.457031 C 87.761719 39.914062 88.332031 40.605469 88.332031 40.605469 L 89.535156 34.515625 C 87.992188 32.910156 86.449219 31.359375 84.902344 29.863281 Z M 84.902344 29.863281 "/>
<path style=" stroke:none;fill-rule:nonzero;fill:rgb(75.294119%,0.392157%,40.784314%);fill-opacity:1;" d="M 64.210938 13.265625 C 54.550781 6.835938 45.746094 2.527344 39.859375 0 L 0.1875 0 C 0.1875 0 6.472656 5.972656 8.304688 10.914062 C 8.875 12.460938 8.933594 14.128906 8.875 15.507812 C 12.246094 17.113281 20.765625 21.25 31.054688 26.9375 C 31.96875 25.785156 32.941406 24.636719 34.027344 23.546875 C 40.371094 17.171875 48.660156 13.382812 57.292969 12.921875 C 59.636719 12.808594 61.921875 12.921875 64.210938 13.265625 Z M 64.210938 13.265625 "/>
</g>
</svg>
