<?xml version="1.0" encoding="UTF-8" standalone="no"?>
<!-- Created with Inkscape (http://www.inkscape.org/) -->

<svg
   xmlns:dc="http://purl.org/dc/elements/1.1/"
   xmlns:cc="http://creativecommons.org/ns#"
   xmlns:rdf="http://www.w3.org/1999/02/22-rdf-syntax-ns#"
   xmlns:svg="http://www.w3.org/2000/svg"
   xmlns="http://www.w3.org/2000/svg"
   xmlns:sodipodi="http://sodipodi.sourceforge.net/DTD/sodipodi-0.dtd"
   xmlns:inkscape="http://www.inkscape.org/namespaces/inkscape"
   id="svg3331"
   version="1.1"
   inkscape:version="0.48.4 r9939"
   width="157"
   height="137"
   sodipodi:docname="ইন্ডিপেন্ডেন্ট_টিভি.svg">
  <metadata
     id="metadata3337">
    <rdf:RDF>
      <cc:Work
         rdf:about="">
        <dc:format>image/svg+xml</dc:format>
        <dc:type
           rdf:resource="http://purl.org/dc/dcmitype/StillImage" />
        <dc:title></dc:title>
      </cc:Work>
    </rdf:RDF>
  </metadata>
  <defs
     id="defs3335" />
  <sodipodi:namedview
     pagecolor="#ffffff"
     bordercolor="#666666"
     borderopacity="1"
     objecttolerance="10"
     gridtolerance="10"
     guidetolerance="10"
     inkscape:pageopacity="0"
     inkscape:pageshadow="2"
     inkscape:window-width="1600"
     inkscape:window-height="838"
     id="namedview3333"
     showgrid="false"
     inkscape:zoom="1"
     inkscape:cx="325"
     inkscape:cy="275"
     inkscape:window-x="-8"
     inkscape:window-y="-8"
     inkscape:window-maximized="1"
     inkscape:current-layer="svg3331" />
  <g
     id="g3343"
     transform="matrix(0.26150387,0,0,0.26150387,-6.0037138,-2.57107)">
    <path
       style="fill:#b70d0b"
       d="m 167,518.5 c 0.68469,-0.825 1.46989,-1.5 1.74489,-1.5 0.275,0 -0.0602,0.675 -0.74489,1.5 -0.68469,0.825 -1.46989,1.5 -1.74489,1.5 -0.275,0 0.0602,-0.675 0.74489,-1.5 z m -31.57672,-22 c 8.2e-4,-11.55 0.14638,-16.13804 0.32348,-10.19565 0.17711,5.94239 0.17644,15.39239 -0.001,21 -0.17792,5.60761 -0.32282,0.74565 -0.322,-10.80435 z m 239.11943,11.5691 c -0.31644,-0.512 -0.11799,-1.21356 0.44098,-1.55902 0.55897,-0.34546 1.01631,0.0734 1.01631,0.9309 0,1.75653 -0.60006,2.01516 -1.45729,0.62812 z m 176,0 c -0.31644,-0.512 -0.11799,-1.21356 0.44098,-1.55902 0.55897,-0.34546 1.01631,0.0734 1.01631,0.9309 0,1.75653 -0.60006,2.01516 -1.45729,0.62812 z M 439.19495,495.5 c -0.0204,-1.65 0.18706,-2.44606 0.46099,-1.76903 0.27392,0.67703 0.29059,2.02703 0.0371,3 C 439.4395,497.70394 439.21538,497.15 439.195,495.5 z M 348,483 c 0,-0.55 0.19844,-1 0.44098,-1 0.24254,0 0.7191,0.45 1.05902,1 0.33992,0.55 0.14148,1 -0.44098,1 C 348.47656,484 348,483.55 348,483 z m 176,0 c 0,-0.55 0.19844,-1 0.44098,-1 0.24254,0 0.7191,0.45 1.05902,1 0.33992,0.55 0.14148,1 -0.44098,1 C 524.47656,484 524,483.55 524,483 z m -368.12756,-2.75 c -1.24387,-1.58606 -1.2085,-1.62143 0.37756,-0.37756 0.9625,0.75485 1.75,1.54235 1.75,1.75 0,0.82304 -0.82119,0.29331 -2.12756,-1.37244 z m -16.14147,-4.90594 c 0.67703,-0.27392 2.02703,-0.29059 3,-0.0371 0.97297,0.25354 0.41903,0.47766 -1.23097,0.49804 -1.65,0.0204 -2.44606,-0.18706 -1.76903,-0.46099 z m 278,0 c 0.67703,-0.27392 2.02703,-0.29059 3,-0.0371 0.97297,0.25354 0.41903,0.47766 -1.23097,0.49804 -1.65,0.0204 -2.44606,-0.18706 -1.76903,-0.46099 z M 272.87244,471.25 c -1.24387,-1.58606 -1.2085,-1.62143 0.37756,-0.37756 1.66575,1.30637 2.19548,2.12756 1.37244,2.12756 -0.20765,0 -0.99515,-0.7875 -1.75,-1.75 z M 305.5,414.07059 C 280.54073,410.03472 256.86457,395.89497 241.7531,376 c -6.05889,-7.97683 -13.81478,-23.78305 -16.92865,-34.5 l -2.32445,-8 -0.27129,-110.95932 c -0.23951,-97.96284 -0.0851,-111.95318 1.31869,-119.44451 5.9327,-31.660777 24.93423,-56.79115 53.95426,-71.356912 22.37454,-11.230245 52.08118,-12.970434 77.09773,-4.516317 17.64074,5.961525 37.43885,20.514726 47.82635,35.156199 8.66027,12.20689 15.13117,27.743303 17.5433,42.12086 0.86512,5.15655 1.08467,36.36348 0.83367,118.5 -0.33946,111.08876 -0.34872,111.52582 -2.50892,118.5 -5.68152,18.34269 -12.70454,30.633 -24.79253,43.38702 -9.89481,10.44 -25.03524,20.30835 -37.00126,24.11697 -2.2,0.70023 -4.9,1.62238 -6,2.04922 -7.85426,3.04776 -33.97881,4.79949 -45,3.01738 z m 37.26054,-22.12484 c 24.49148,-6.56233 44.5865,-24.95781 53.18321,-48.68524 5.15567,-14.22993 5.2334,-16.31368 4.85914,-130.26051 -0.32586,-99.21296 -0.45724,-105.88735 -2.20452,-112 -10.2756,-35.947821 -40.46626,-58.995901 -77.28299,-58.999182 -37.86142,-0.0034 -69.84563,25.813745 -77.42875,62.499182 -1.74413,8.43771 -1.85994,15.46633 -1.85368,112.5 0.004,63.07163 0.39384,106.17823 0.99787,110.35649 4.36812,30.2157 27.09472,56.40566 55.75537,64.25204 13.72423,3.75726 30.72378,3.88762 43.97435,0.33722 z M 312.5,339.27545 C 305.89132,336.99973 299.88529,330.80044 297.68312,323.9818 296.1515,319.23942 296,309.75098 296,218.56667 c 0,-111.81977 -0.30517,-106.72409 6.83648,-114.15641 9.81245,-10.211835 24.00342,-11.13758 35.18939,-2.29557 3.6372,2.87503 5.2993,5.13847 6.88446,9.3752 2.06904,5.53 2.08967,6.58492 2.08967,106.86948 0,111.22618 0.26476,106.22422 -6.02669,113.85684 -6.03787,7.32498 -18.63328,10.4477 -28.47331,7.05924 z"
       id="path3347"
       inkscape:connector-curvature="0" />
    <path
       style="fill:#050505"
       d="m 125.25,527.2766 -3.25,-0.40332 0,-30.34331 0,-30.34332 9.55447,-0.71633 c 18.43923,-1.38244 29.13337,1.12228 36.57827,8.56718 6.04594,6.04594 8.32549,13.02289 7.63988,23.38312 -1.11718,16.88162 -10.34218,26.68183 -27.77864,29.5107 -6.29796,1.02177 -16.09437,1.17049 -22.74398,0.34528 z m 28.03654,-13.27077 c 5.76887,-3.95289 8.13989,-9.17219 8.17968,-18.00583 0.0414,-9.19791 -2.32285,-14.47039 -7.90463,-17.62778 -4.27771,-2.41973 -11.09601,-3.61534 -15.54418,-2.7257 L 135,476.25 l 0,20.4843 0,20.4843 7.33983,-0.37064 c 5.77105,-0.29143 8.11073,-0.89889 10.94671,-2.84213 z M 403.25,527.34479 400,526.87328 l 0,-30.34687 0,-30.34687 8.64368,-0.72002 c 22.49117,-1.8735 35.6436,2.82617 41.82033,14.94339 2.6216,5.14292 3.00592,6.94538 2.98509,14 -0.0268,9.08681 -1.37243,14.70366 -4.70839,19.65388 -3.23814,4.80508 -9.99632,9.63948 -16.03484,11.47037 -5.21881,1.58235 -23.36105,2.70185 -29.45587,1.81763 z m 24.49552,-11.88293 c 4.71366,-1.96949 7.03607,-4.10087 9.22028,-8.46186 5.34198,-10.66579 2.02431,-24.93502 -6.83492,-29.39684 -3.55411,-1.78997 -10.24221,-2.73089 -14.02858,-1.97362 L 413,476.25 l 0,20.375 0,20.375 5.53212,0 c 3.04266,0 7.18869,-0.69216 9.2134,-1.53814 z M 32,496.5 32,466 l 7,0 7,0 0,30.5 0,30.5 -7,0 -7,0 0,-30.5 z m 27,0 0,-30.5 7.9363,0 7.9363,0 5.267533,9.25 c 2.897144,5.0875 7.993038,14.65 11.324211,21.25 l 6.056676,12 -0.372202,-21.25 -0.372202,-21.25 6.111694,0 6.11169,0 0,30.54381 0,30.54381 -7.12505,-0.29381 -7.12504,-0.29381 -4.007439,-7 c -2.204091,-3.85 -7.539816,-13.75 -11.857166,-22 l -7.849728,-15 -0.01779,22.25 L 71,527 l -6,0 -6,0 0,-30.5 z m 126,0 0,-30.5 19,0 19,0 0,5.5 0,5.5 -12,0 -12,0 0,6.5 0,6.5 11.5,0 11.5,0 0,5.5 0,5.5 -11.5,0 -11.5,0 0,7.5 0,7.5 12.5,0 12.5,0 0,5.5 0,5.5 -19.5,0 -19.5,0 0,-30.5 z m 49,0.46862 c 0,-27.6609 0.13813,-30.08811 1.75,-30.75 0.9625,-0.39524 7.6,-0.71083 14.75,-0.70131 14.51853,0.0193 18.66489,1.32464 23.8745,7.51591 3.3157,3.94049 3.9666,6.57441 3.43632,13.90545 -0.79608,11.00561 -8.23945,17.0301 -22.06082,17.85548 l -7.75,0.46282 0,10.87152 0,10.87151 -7,0 -7,0 0,-30.03138 z m 24.88116,-3.07704 c 5.10314,-1.77896 7.7112,-9.0477 5.03835,-14.04198 C 262.5068,477.20994 257.08978,475 252.03212,475 L 248,475 l 0,10 0,10 3.85078,0 c 2.11792,0 5.2816,-0.49879 7.03038,-1.10842 z M 288,496.5 l 0,-30.5 18.5,0 18.5,0 0,5.5 0,5.5 -12,0 -12,0 0,6.5 0,6.5 11.5,0 11.5,0 0,5.5 0,5.5 -11.5,0 -11.5,0 0,7.5 0,7.5 13,0 13,0 0,5.5 0,5.5 -19.5,0 -19.5,0 0,-30.5 z m 48,0 0,-30.5 8.31574,0 8.31573,0 7.63594,13.75 c 4.19977,7.5625 9.28265,17.2375 11.29529,21.5 2.01264,4.2625 3.72189,7.75045 3.79832,7.75099 0.0764,5.5e-4 -0.006,-9.67445 -0.18216,-21.5 L 374.85772,466 l 6.07114,0 6.07114,0 0,30.5 0,30.5 -7.25,-0.0145 -7.25,-0.0145 -10.70394,-19.73554 C 355.9089,496.38099 350.63254,486.2625 350.07081,484.75 c -0.56172,-1.5125 -1.14576,-2.75 -1.29788,-2.75 -0.15211,0 -0.11442,10.125 0.0838,22.5 l 0.36032,22.5 -6.60851,0 -6.6085,0 0,-30.5 z m 127,0 0,-30.5 19,0 19,0 0,5.5 0,5.5 -12,0 -12,0 0,6.5 0,6.5 11.5,0 11.5,0 0,5.5 0,5.5 -11.5,0 -11.5,0 0,7.5 0,7.5 12.5,0 12.5,0 0,5.5 0,5.5 -19.5,0 -19.5,0 0,-30.5 z m 49,0 0,-30.5 8.31574,0 8.31573,0 7.63594,13.75 c 4.19977,7.5625 9.28265,17.2375 11.29529,21.5 2.01264,4.2625 3.72189,7.75045 3.79832,7.75099 0.0764,5.5e-4 -0.006,-9.67445 -0.18216,-21.5 L 550.85772,466 l 6.07114,0 6.07114,0 0,30.5 0,30.5 -7.25,-0.0145 -7.25,-0.0145 -10.70394,-19.73554 C 531.9089,496.38099 526.63254,486.2625 526.07081,484.75 c -0.56172,-1.5125 -1.14576,-2.75 -1.29788,-2.75 -0.15211,0 -0.11442,10.125 0.0838,22.5 l 0.36032,22.5 -6.60851,0 -6.6085,0 0,-30.5 z m 75,5.5 0,-25 -8,0 -8,0 0,-5.5 0,-5.5 23.5,0 23.5,0 0,5.5 0,5.5 -8.5,0 -8.5,0 0,25 0,25 -7,0 -7,0 0,-25 z"
       id="path3345"
       inkscape:connector-curvature="0" />
  </g>
</svg>
