<?xml version="1.0" encoding="UTF-8" standalone="no"?>
<svg
   xmlns:dc="http://purl.org/dc/elements/1.1/"
   xmlns:cc="http://creativecommons.org/ns#"
   xmlns:rdf="http://www.w3.org/1999/02/22-rdf-syntax-ns#"
   xmlns:svg="http://www.w3.org/2000/svg"
   xmlns="http://www.w3.org/2000/svg"
   width="100"
   height="56"
   viewBox="0 0 100 56.000004"
   id="svg2"
   version="1.1">

  <path
     style="fill:#fcd800;fill-opacity:1;stroke-width:0.0982153"
     d="M 0.66300265,21.6768 V 1.10908 H 15.015217 V 21.6768 Z M 12.938375,19.6049 V 3.18086 H 2.7296796 V 19.6049 Z"
     id="path4315" />
  <path
     id="path4319"
     style="stroke-width:0.0699954"
     d="m 41.661593,3.25167 c -1.745685,0 -3.035085,1.59513 -3.035085,3.60173 0,2.1671 1.164038,3.8377 3.035085,3.8377 v -0.035 c 1.871118,0 3.034893,-1.6655 3.034893,-3.8026 0,-2.0066 -1.289207,-3.60173 -3.034893,-3.60173 z M 20.527067,3.40704 v 7.15856 h 1.003254 V 5.4339 c 1.153735,1.851 2.312544,3.4863 3.476288,5.1317 H 25.8846 V 3.40704 H 24.881345 V 8.5089 C 23.73762,6.6678 22.578918,5.0424 21.415034,3.40704 Z m 8.196954,0 -0.03012,0.005 -2.478211,7.15336 h 1.063489 L 27.901273,8.614 h 2.157093 l 0.561669,1.9514 h 1.369644 L 29.727081,3.40686 Z m 7.941057,0 v 7.15856 h 1.21906 V 3.40704 Z m 8.763995,0 v 7.15856 h 1.003255 V 5.4339 c 1.153734,1.851 2.312542,3.4863 3.476286,5.1317 h 0.877992 V 3.40704 H 49.783159 V 8.5089 C 48.639504,6.6678 47.480662,5.0424 46.316847,3.40704 Z m 11.838787,0 v 7.15856 h 3.642026 V 9.6025 H 58.48692 V 3.40704 Z m -25.99561,0.005 V 4.3702 h 1.881245 v 6.1952 h 1.214073 V 4.3702 h 1.881246 V 3.41204 Z m 22.338623,0 -2.473224,7.15836 h 1.06368 L 52.823232,8.619 h 2.157093 l 0.56186,1.9514 h 1.369453 L 54.62909,3.41204 H 53.625835 Z M 41.661593,4.2948 c 1.229119,0 1.725675,1.2593 1.725675,2.5785 0,1.3195 -0.446438,2.7792 -1.725675,2.7792 -1.279166,0 -1.730854,-1.4096 -1.730854,-2.7792 0,-1.3695 0.501804,-2.5785 1.730854,-2.5785 z M 29.050127,4.8216 c 0.285932,1.1036 0.541748,1.9765 0.807591,2.9146 h -1.635324 c 0.285931,-0.9381 0.5719,-1.8111 0.827733,-2.9146 z m 24.916968,0 c 0.285931,1.1036 0.541539,1.9765 0.807591,2.9146 h -1.635324 c 0.286002,-0.9381 0.57197,-1.8111 0.827733,-2.9146 z m -20.658028,7.7055 c -1.745616,0 -3.034893,1.5951 -3.034893,3.6017 0,2.157 1.163776,3.8225 3.034893,3.8225 v -0.02 c 1.871118,0 3.034893,-1.6656 3.034893,-3.8026 0,-2.0066 -1.289137,-3.6017 -3.034893,-3.6017 z m -10.16855,0.02 c -2.147045,0 -3.476478,1.7104 -3.476478,3.662 0,2.1068 1.329384,3.7421 3.436385,3.7421 0.700445,-0.019 1.391129,-0.1688 2.036627,-0.4414 v -2.9547 h -1.229035 v 2.1972 c -0.267103,0.128 -0.561648,0.1885 -0.857658,0.1757 -1.07366,0 -2.076912,-1.0735 -2.076912,-2.6988 0,-1.6253 0.887975,-2.6587 2.197379,-2.6587 0.46162,0.01 0.912834,0.1392 1.309219,0.3762 l 0.396313,-0.8479 c -0.509216,-0.3559 -1.114633,-0.5483 -1.73584,-0.5517 z m 17.101365,0 c -2.147109,0 -3.476479,1.7104 -3.476479,3.662 0,2.1068 1.329455,3.7421 3.436388,3.7421 0.700443,-0.019 1.391127,-0.1688 2.036625,-0.4414 v -2.9547 h -1.229035 v 2.1972 c -0.267242,0.128 -0.561839,0.1885 -0.857849,0.1757 -1.07352,0 -2.07691,-1.0735 -2.07691,-2.6988 0,-1.6253 0.888112,-2.6587 2.197377,-2.6587 0.46169,0.01 0.912956,0.1392 1.30941,0.3762 l 0.396122,-0.8479 c -0.509216,-0.3559 -1.114509,-0.5483 -1.735649,-0.5517 z m 30.114134,0.01 c -2.13703,0 -3.456144,1.7106 -3.456144,3.662 0,2.107 1.329194,3.7423 3.436194,3.7423 0.574383,-0.015 1.133315,-0.1889 1.615374,-0.5016 l -0.336273,-0.888 c -0.368176,0.2317 -0.794083,0.3551 -1.229034,0.3562 -1.183903,0 -2.18721,-1.0737 -2.18721,-2.699 0,-1.6253 0.907885,-2.6585 2.157093,-2.6585 0.446921,0.02 0.880966,0.1569 1.259151,0.3961 l 0.38634,-0.8576 c -0.482479,-0.3416 -1.054799,-0.5336 -1.645491,-0.5519 z m -44.105027,0.1053 v 7.1686 h 3.641834 v -0.9632 h -2.41299 v -2.3127 h 2.0067 V 15.592 h -2.0067 v -1.9617 h 2.046792 -0.0048 v -0.9632 z m 23.943639,0 -2.473032,7.1584 h 1.068475 l 0.622095,-1.9515 h 2.156902 l 0.56186,1.9515 h 1.369644 l -2.282548,-7.1584 h -1.003255 z m 3.707246,0 v 7.1584 h 1.229035 V 17.127 h 0.551886 c 1.290995,0.01 2.344722,-1.0308 2.353332,-2.3219 2.95e-4,-0.024 -1.6e-5,-0.047 -5.89e-4,-0.071 -0.02009,-1.3896 -0.867903,-2.0717 -2.222314,-2.0717 z m 4.805839,0 v 7.1636 h 1.218868 v -3.4464 h 2.54842 v 3.4464 h 1.229034 v -0.01 -7.1385 h -1.229034 v 2.729 h -2.54842 v -2.7489 z m 6.170303,0 v 7.1584 h 1.21906 v -7.1584 z m -21.485761,0 v 7.1586 h 1.229035 v -2.699 h 0.551885 l 1.153648,2.699 h 1.374631 l -1.419711,-2.9649 c 0.77163,-0.4284 1.247181,-1.2444 1.239202,-2.127 0,-1.3896 -0.847867,-2.0667 -2.217327,-2.0667 z m -10.083188,0.9029 c 1.22408,0 1.730855,1.2591 1.730854,2.5785 -6.8e-5,1.3193 -0.451617,2.7792 -1.730854,2.7792 -1.279166,0 -1.725674,-1.4098 -1.725674,-2.7792 0,-1.3695 0.501664,-2.5785 1.725674,-2.5785 z m 22.484795,0.051 c 0.526281,0.01 0.972748,0.4106 1.02052,0.9461 0.0063,0.071 0.0052,0.1414 -0.0029,0.2116 0.09239,0.6921 -0.393817,1.328 -1.085932,1.4203 -0.03416,0 -0.0685,0.01 -0.103011,0.01 l 0.01496,-0.01 -0.501628,0.03 v -2.6034 h 0.551886 c 0.0357,0 0.071,0 0.10608,0 z m -10.554698,0 c 0.526286,0 0.976513,0.4009 1.029535,0.9361 0.0073,0.074 0.0067,0.149 -0.0019,0.2229 0.09029,0.6896 -0.39564,1.3216 -1.085165,1.4118 -0.02611,0 -0.05245,0.01 -0.07884,0.01 l -0.501628,0.03 v -2.6037 h 0.531744 c 0.03567,0 0.07119,0 0.106272,0 z m 5.311686,0.4565 c 0.285932,1.1037 0.541749,1.9716 0.807592,2.9148 h -1.635325 c 0.285931,-0.9381 0.57183,-1.8111 0.827733,-2.9148 z M 20.439017,27.2385 13.885057,42.3984 8.0086355,27.9793 H 1.8600101 l 11.3548059,26.7706 7.073048,-15.997 7.11447,15.997 11.294575,-26.7706 h -5.777058 l -5.91153,14.4191 z m 22.90087,0.7408 v 25.6824 h 5.604414 V 27.9793 Z m 12.823434,0 v 25.6824 h 14.636774 l 1.832139,-4.625 H 61.767735 V 27.9793 Z m 21.111699,6e-4 v 25.6825 h 8.379574 c 7.596171,0 13.223776,-5.6642 13.223776,-12.8395 0,-7.6698 -6.31019,-12.843 -12.897288,-12.843 z m 5.582354,4.6489 h 2.198719 c 4.895349,0 8.180457,3.522 8.180457,8.1924 0,5.3683 -4.14436,8.194 -7.87948,8.194 h -2.499696 z" />
</svg>
