<?xml version="1.0" encoding="UTF-8" standalone="no"?>
<!-- Created with Inkscape (http://www.inkscape.org/) -->

<svg
   version="1.1"
   id="svg1"
   width="194.63423"
   height="51.96217"
   viewBox="0 0 194.63423 51.96217"
   sodipodi:docname="SA TV Bangladesh Logo.svg"
   inkscape:version="1.4.3 (0d15f75, 2025-12-25)"
   xmlns:inkscape="http://www.inkscape.org/namespaces/inkscape"
   xmlns:sodipodi="http://sodipodi.sourceforge.net/DTD/sodipodi-0.dtd"
   xmlns="http://www.w3.org/2000/svg"
   xmlns:svg="http://www.w3.org/2000/svg">
  <defs
     id="defs1" />
  <sodipodi:namedview
     id="namedview1"
     pagecolor="#ffffff"
     bordercolor="#000000"
     borderopacity="0.25"
     inkscape:showpageshadow="2"
     inkscape:pageopacity="0.0"
     inkscape:pagecheckerboard="0"
     inkscape:deskcolor="#d1d1d1"
     inkscape:zoom="4"
     inkscape:cx="91.375"
     inkscape:cy="33.625"
     inkscape:window-width="1920"
     inkscape:window-height="991"
     inkscape:window-x="-9"
     inkscape:window-y="-9"
     inkscape:window-maximized="1"
     inkscape:current-layer="layer1" />
  <g
     inkscape:groupmode="layer"
     id="layer1"
     inkscape:label="Image 1"
     style="display:inline;opacity:1"
     transform="translate(-0.31107913,-0.22753539)">
    <path
       style="fill:#5c0606;fill-opacity:1;stroke:#000000;stroke-width:0"
       d="m 53.56176,9.6235195 c -0.439933,0.2199661 -10.888325,7.9187815 -10.888325,7.9187815 0,0 -3.559461,-4.815927 -11.024324,-4.984215 -2.692654,-0.0607 -9.04264,-0.383852 -8.962563,2.308295 0.15614,5.249388 11.797736,1.888862 22.904505,6.92793 7.32993,3.325541 9.5697,8.982456 6.574284,17.980679 C 49.147155,48.841607 36.835866,52.301318 27.990694,52.186971 9.8141522,51.951992 0.31107913,41.062445 0.31107913,41.062445 L 13.765251,33.285466 c 0,0 4.525128,5.939913 13.943569,6.274955 3.304016,0.117534 8.758252,0.05603 8.526372,-3.241933 C 35.848286,30.815636 23.315537,34.400318 13.454172,28.930359 8.7574522,26.325155 3.4163935,20.71762 4.5884171,15.476186 6.7160338,5.9612224 14.633516,0.01575765 29.552517,0.23330934 48.648968,0.5117774 53.56176,9.6235195 53.56176,9.6235195 Z"
       id="path1"
       sodipodi:nodetypes="ccsssssccsssssc" />
    <path
       id="path5"
       style="fill:#5c0606;fill-opacity:1;stroke:#000000;stroke-width:0"
       d="M 67.892578,1.2441406 46.505859,50.628906 46.328125,51 H 65.9375 l 2.458984,-7.285156 H 86.759766 L 89.125,50.628906 h 19.15625 l -2.82617,-5.677734 c 0,0 -10.965138,2.432923 -15.509768,-8.632813 -4.797061,-11.680388 4.810547,-18.101562 4.810547,-18.101562 L 87.490234,1.2441406 Z m 9.623047,15.4609374 5.332031,15.578125 H 72.255859 Z" />
    <ellipse
       style="fill:#5c0606;fill-opacity:1;stroke:#000000;stroke-width:0"
       id="path3"
       cx="103.29967"
       cy="29.900587"
       rx="10.337961"
       ry="10.302618" />
    <path
       style="fill:#5c0606;fill-opacity:1;stroke:#000000;stroke-width:0"
       d="m 99.289062,1.234375 h 56.716368 l 10.34144,28.729275 9.75034,-28.7372617 h 18.8481 L 175.50781,50.628906 H 156.875 L 142.5,14.25 h -10.875 v 36.382812 h -18.22275 v -9.53223 c 0,0 4.77297,-2.790725 4.77297,-11.225321 0,-8.901509 -4.77297,-10.429825 -4.77297,-10.429825 V 14.25 H 98.994949 V 1.2304687 Z"
       id="path4"
       sodipodi:nodetypes="ccccccccccccsccccc" />
  </g>
</svg>
