<svg xmlns:xlink="http://www.w3.org/1999/xlink" xmlns="http://www.w3.org/2000/svg" version="1.1" viewBox="0 0 300 70" width="300" height="70" class="uc-transition-scale-up uc-transition-opaque uc-logo w-100px text-gray-900 dark:text-white uc-svg">
  <!-- Generator: Adobe Illustrator 29.4.0, SVG Export Plug-In . SVG Version: 2.1.0 Build 152)  -->
  <defs>
    <style>
      .st0 {
        fill: #000000;
      }

      .st1 {
        fill: #333333;
      }

      .st2 {
        fill: #d92121;
      }
    </style>
  </defs>
  <path class="st0" d="M26.51,46c-1.89-.99-5.04-2.03-9.44-3.11-4-1.04-6.21-1.69-6.61-1.96-1.84-.68-2.77-1.64-2.77-2.91,0-.31.04-.63.13-.95.49-2.12,2.45-3.18,5.87-3.18h16.58v-6.96H12.14c-3.46,0-6.35,1.04-8.67,3.11-2.32,2.07-3.47,4.76-3.47,8.05,0,1.04.13,2.12.4,3.25.27,1.13.63,1.96,1.08,2.5.99,1.26,2.38,2.3,4.18,3.11,1.84.81,4.25,1.62,7.22,2.43l2.56.61c3.19.77,4.99,1.28,5.4,1.56,1.62.77,2.43,1.89,2.43,3.38,0,.95-.29,2.04-1.08,2.82-.78.78-2.3,1.73-4.36,1.74H.94v6.92h16.81c.07,0,.13,0,.2,0h.05s0,0,0,0c3.84-.21,6.89-1.19,9.13-2.96,2.29-1.8,3.64-3.9,4.05-6.29.49-2.61.28-4.89-.64-6.83-.92-1.94-2.26-3.38-4.01-4.33Z" fill="#000000"></path>
  <path class="st0" d="M44.07,58.01c-.99-.98-1.48-2.16-1.48-3.53v-20.56h8.89v-6.99h-16.31v29.08c0,2.89,1.02,5.35,3.07,7.37,2.05,2.02,4.51,3.03,7.39,3.03h9.71v-6.94h-7.69c-1.39,0-2.59-.49-3.58-1.47Z" fill="#000000"></path>
  <path class="st0" d="M92.39,36.48c-1.85-2.93-4.31-5.25-7.39-6.96-3.08-1.71-6.37-2.57-9.89-2.57s-6.92.87-9.92,2.61c-3.1,1.78-5.55,4.19-7.35,7.23-1.8,3.04-2.71,6.34-2.71,9.91s.9,6.84,2.71,9.81c1.8,3.06,4.23,5.49,7.28,7.27,3.05,1.78,6.38,2.73,9.99,2.67,8.96-.15,11.48-3.53,12.84-5.17v5.18h7.08l.07-20.37c0-3.43-.9-6.63-2.71-9.6ZM88.13,49.68c.13,3.47-4.6,10.03-13.02,9.8-2.44-.07-4.62-.58-6.54-1.73-1.97-1.15-3.54-2.71-4.71-4.68-1.17-1.96-1.76-4.08-1.76-6.34,0-2.4.61-4.55,1.83-6.45,1.13-1.94,2.7-3.49,4.71-4.64,2.02-1.15,4.17-1.73,6.47-1.73s4.5.58,6.47,1.73c1.97,1.16,3.54,2.73,4.71,4.71,1.22,1.94,1.83,4.07,1.83,6.38v2.95Z" fill="#000000"></path>
  <path class="st0" d="M119.43,26.92c-3.46,0-6.68.84-9.65,2.53-3.06,1.69-5.45,3.96-7.18,6.8-1.73,2.85-2.6,5.93-2.6,9.27l-.02,20.89h6.99v-20.25c0-2.27.58-4.31,1.75-6.13,1.12-1.87,2.83-3.36,4.74-4.47,1.91-1.11,3.97-1.67,6.17-1.67.18,0,1.01-.03,1.01-.03v-6.95h-1.21Z" fill="#000000"></path>
  <path class="st1" d="M259.34,50.99c0,6.13-5.27,11.06-11.52,10.49-5.46-.5-9.55-5.25-9.55-10.73v-23.82s-4.88,0-4.88,0v23.82c0,5.48-4.09,10.23-9.55,10.73-6.25.57-11.52-4.36-11.52-10.49v-24.06h-4.88v24.19h0c.07,8.44,6.96,15.29,15.42,15.29,5.44,0,10.23-2.83,12.98-7.1,2.75,4.27,7.54,7.1,12.98,7.1,8.39,0,15.23-6.73,15.41-15.07h0v-24.4h-4.88v24.06Z" fill="##333333"></path>
  <path class="st1" d="M147.58,26.92c-9.24,0-16.79,7.33-17.16,16.48h0v23.01h4.88v-22.75h0c.23-6.57,5.65-11.85,12.28-11.85s12.04,5.28,12.28,11.85h0v22.75h4.88v-23.01h0c-.36-9.15-7.92-16.48-17.16-16.48Z" fill="#333333"></path>
  <path class="st1" d="M299.99,53.86c-.29-6.18-8.31-8.67-8.31-8.67-5.03-1.2-12.93-3.23-12.93-3.23-4.2-1.58-3.99-5.1-3.99-5.1.5-3.4,4.24-4.44,4.24-4.44,10.14-2.2,17.17,2.99,17.17,2.99l2.24-4.23c-8.69-5.64-18.48-4.04-18.48-4.04-8.25,1.39-10.31,7.42-10.31,7.42-1.39,4.42,1.04,7.98,1.04,7.98,2.33,3.34,8.17,4.98,8.17,4.98,2.39.52,11.18,2.82,11.18,2.82,3.78,1.08,4.32,3.57,4.32,3.57.96,3.32-1.29,5.1-1.29,5.1-3.08,3.07-9.77,2.4-9.77,2.4-7.4-.33-12.72-4.77-12.72-4.77l-2.33,4.56c6.69,5.39,15.8,5.27,15.8,5.27,9.23.23,12.93-4.19,12.93-4.19,3.41-2.41,3.03-8.42,3.03-8.42Z" fill="#333333"></path>
  <path class="st1" d="M189.36,61.49c-1.04,0-2.06-.11-3.04-.31v-.02c-2.57-.54-4.99-1.76-6.98-3.58,0,0-.01-.01-.02-.02-.08-.07-.15-.14-.23-.22-.04-.04-.08-.07-.11-.11-.04-.04-.09-.09-.13-.13-.05-.05-.11-.11-.16-.16-.03-.03-.06-.06-.08-.09-.06-.06-.12-.13-.18-.19-.02-.02-.04-.04-.06-.07-.06-.07-.13-.14-.19-.21-.02-.02-.03-.04-.05-.06-.06-.07-.13-.15-.19-.22-.02-.02-.03-.04-.05-.06-.06-.07-.12-.15-.18-.22-.02-.03-.04-.06-.06-.08-.05-.07-.1-.13-.16-.2-.07-.1-.15-.2-.22-.3,0,0,0,0,0-.01-.07-.1-.15-.21-.22-.32,0,0,0,0,0,0-.15-.22-.29-.45-.43-.68-1.71-2.78-1.86-5.21-1.88-5.4h21.85l.04-4.92h-21.62c-.01-.38,0-.29.02-.7.02-.2.06-.52.07-.56,0-.03.02-.07.03-.1,1.79-6.16,7.49-10.68,14.23-10.68,4.17,0,7.95,1.74,10.65,4.52h.01c.07.07.14.15.21.23l2.28-4.55c-5.9-5.29-14.62-6.74-21.95-3.07-4.71,2.36-8.03,6.29-9.7,10.8-.02.05-.03.09-.05.14-.02.05-.03.09-.05.14-.65,1.84-1.04,3.81-1.12,5.85,0,.04,0,.08,0,.12,0,.1,0,.2,0,.3,0,.08,0,.15,0,.23,0,.03,0,.07,0,.1,0,.04,0,.08,0,.12,0,.1,0,.2,0,.3,0,.06,0,.12,0,.17,0,.11,0,.23.01.34,0,.05,0,.1,0,.15,0,.12.01.24.02.36,0,.04,0,.09,0,.13,0,.12.02.24.03.36,0,.04,0,.08.01.13.01.12.03.24.04.36,0,.04.01.09.02.13.02.12.03.23.05.35,0,.05.01.1.02.14.02.11.04.22.05.33,0,.05.02.11.03.16.02.1.04.2.06.31.01.06.02.12.04.18.02.09.04.18.06.28.02.07.03.14.05.21.02.08.04.16.06.24.02.08.04.16.06.24.02.07.04.14.06.21.02.09.05.18.07.26.02.06.04.12.05.18.03.1.06.2.09.29.02.05.03.1.05.15.03.11.07.21.11.32.01.04.03.08.04.13.04.11.08.23.12.34.01.03.03.07.04.1.05.12.09.24.14.36.01.03.02.06.04.09.05.12.1.25.15.37.01.03.02.05.04.08.05.12.11.25.17.37.01.03.02.05.04.08.06.12.12.25.18.37.01.03.03.05.04.08.06.12.12.24.18.36.02.03.03.06.05.09.06.11.12.22.18.33.02.04.04.08.07.12.06.1.11.2.17.29.02.03.03.06.05.09.01.02.03.04.04.07.05.09.11.17.16.26.04.07.08.14.13.2.03.05.07.1.1.15,1.1,1.69,2.41,3.15,3.89,4.39,3.43,2.87,7.84,4.6,12.65,4.6,5.07,0,9.7-1.92,13.2-5.08l-2.32-4.62c-2.71,2.94-6.58,4.78-10.88,4.78Z" fill="#333333"></path>
  <path class="st2" d="M97.67,3.53s-1.31,12.63-16.07,16.35c14.76,3.72,16.07,16.35,16.07,16.35,0,0,1.31-12.63,16.07-16.35-14.76-3.72-16.07-16.35-16.07-16.35Z" fill="#FF0000"></path>
</svg>