<?xml version="1.0" encoding="utf-8"?>
<svg xmlns="http://www.w3.org/2000/svg" viewBox="0 0 1659 1292.1">
  <g transform="matrix(1, 0, 0, 1, -215.999512, -31.424984)">
    <g>
      <path d="M 628.7 337.68 C 684.1 160.21 849.79 31.43 1045.5 31.43 C 1241.21 31.43 1406.88 160.21 1462.35 337.68 L 1111.95 337.68 L 1111.95 499.228 L 1108.95 499.228 L 1020.49 361.58 C 1009.73 343.83 998.97 337.75 977.45 337.75 L 628.7 337.75 L 628.7 337.68 Z M 1381.24 401.2 L 1381.24 659.232 L 1294.24 659.232 L 1294.24 401.2 L 1194.75 401.2 L 1194.75 659.232 L 1136.68 659.232 C 1115.17 659.232 1104.89 653.151 1093.64 635.407 L 981.08 466.946 L 979.27 466.946 L 979.27 659.303 L 894.72 659.303 L 894.72 401.27 L 795.6 401.27 L 795.6 659.303 L 707.2 659.303 L 707.2 401.27 L 613.9 401.27 C 610.6 423.07 608.8 445.426 608.8 468.202 C 608.8 709.398 804.3 904.899 1045.5 904.899 C 1286.7 904.899 1482.2 709.398 1482.2 468.202 C 1482.2 445.426 1480.45 423.07 1477.09 401.27 L 1381.24 401.27 L 1381.24 401.2 Z" id="path1" style="stroke-width: 1; fill: rgb(229, 78, 246);"/>
      <path d="M 564.48 1064.94 L 460.244 1064.94 L 460.244 1320.08 L 516.35 1320.08 L 516.35 1243.57 L 558.99 1243.57 C 616.2 1243.57 662.11 1212.96 662.11 1153.92 L 662.11 1153.2 C 662.11 1101.09 625.29 1065 564.41 1065 L 564.48 1064.94 Z M 605.28 1154.97 C 605.28 1176.82 588.87 1193.17 560.81 1193.17 L 516.35 1193.17 L 516.35 1115.34 L 559.7 1115.34 C 587.76 1115.34 605.28 1129.09 605.28 1154.26 L 605.28 1154.97 Z M 1192 1149.88 L 1192 1149.15 C 1192 1096.66 1155.9 1064.94 1095.81 1064.94 L 979.17 1064.94 L 979.17 1320.08 L 1035.27 1320.08 L 1035.27 1238.41 L 1079.34 1238.41 L 1125.81 1307.83 C 1130.91 1315.48 1139.5 1320.08 1148.69 1320.08 L 1199.59 1320.08 L 1137.28 1229 C 1169.71 1216.97 1191.93 1191.07 1191.93 1149.93 L 1192 1149.88 Z M 1135.17 1152.82 C 1135.17 1174.32 1119.48 1188.08 1092.16 1188.08 L 1035.33 1188.08 L 1035.33 1115.34 L 1091.1 1115.34 C 1118.43 1115.34 1135.17 1128.03 1135.17 1152.1 L 1135.17 1152.82 Z M 1213.17 1115.34 L 1290.79 1115.34 L 1290.79 1320.08 L 1346.89 1320.08 L 1346.89 1115.34 L 1406.16 1115.34 C 1416.3 1115.34 1424.52 1107.13 1424.52 1096.98 L 1424.52 1065 L 1213.12 1065 L 1213.12 1115.39 L 1213.17 1115.34 Z M 1554.35 1167.4 C 1510.33 1156.15 1499.41 1150.65 1499.41 1133.91 L 1499.41 1133.19 C 1499.41 1120.83 1510.66 1111.01 1532.17 1111.01 C 1549.08 1111.01 1566.49 1116.89 1584.12 1127.04 C 1592.44 1131.8 1602.97 1129.47 1608.41 1121.6 L 1627.53 1093.88 C 1601.7 1073.15 1570.04 1061.51 1532.9 1061.51 C 1480.84 1061.51 1443.75 1092.05 1443.75 1138.29 L 1443.75 1139.02 C 1443.75 1189.62 1476.84 1203.77 1528.18 1216.91 C 1570.76 1227.82 1579.52 1235.09 1579.52 1249.28 L 1579.52 1250.01 C 1579.52 1264.91 1565.72 1274.01 1542.77 1274.01 C 1519.82 1274.01 1499.02 1266.19 1480.06 1253.16 C 1472.24 1247.8 1461.6 1249.18 1455.5 1256.44 L 1433.55 1282.72 C 1464.09 1310 1503.07 1323.47 1541.66 1323.47 C 1596.6 1323.47 1635.18 1295.08 1635.18 1244.45 L 1635.18 1243.74 C 1635.18 1199.33 1606.07 1180.76 1554.4 1167.28 L 1554.35 1167.4 Z M 336.782 1167.4 C 292.761 1156.15 281.844 1150.65 281.844 1133.91 L 281.844 1133.19 C 281.844 1120.83 293.095 1111.01 314.605 1111.01 C 331.514 1111.01 348.923 1116.89 366.553 1127.04 C 374.813 1131.8 385.397 1129.47 390.841 1121.6 L 409.963 1093.88 C 384.128 1073.15 352.478 1061.51 315.327 1061.51 C 263.268 1061.51 226.175 1092.05 226.175 1138.29 L 226.175 1139.02 C 226.175 1189.62 259.278 1203.77 310.615 1216.91 C 353.191 1227.82 361.951 1235.09 361.951 1249.28 L 361.951 1250.01 C 361.951 1264.91 348.145 1274.01 325.198 1274.01 C 302.243 1274.01 281.455 1266.19 262.492 1253.16 C 254.676 1247.8 244.035 1249.18 237.934 1256.44 L 215.979 1282.72 C 246.527 1310 285.502 1323.47 324.087 1323.47 C 379.027 1323.47 417.612 1295.08 417.612 1244.45 L 417.612 1243.74 C 417.612 1199.33 388.508 1180.76 336.838 1167.28 L 336.782 1167.4 Z M 811.8 1061.51 C 739.44 1061.51 680.79 1120.16 680.79 1192.51 C 680.79 1264.85 739.44 1323.52 811.8 1323.52 C 884.14 1323.52 942.8 1264.85 942.8 1192.51 C 942.8 1120.16 884.14 1061.51 811.8 1061.51 Z M 811.8 1270.57 C 768.72 1270.57 733.79 1235.64 733.79 1192.56 C 733.79 1149.48 768.72 1114.56 811.8 1114.56 C 854.87 1114.56 889.8 1149.48 889.8 1192.56 C 889.8 1235.64 854.87 1270.57 811.8 1270.57 Z M 1837.05 1065 L 1764.3 1086.73 L 1771.4 1114.67 C 1773.89 1124.43 1783.76 1130.42 1793.57 1127.97 L 1820.01 1121.49 L 1820.01 1320.13 L 1875.02 1320.13 L 1875.02 1065 L 1837.05 1065 Z" id="path2" style="stroke-width: 1; fill: rgb(255, 255, 255);"/>
    </g>
  </g>
</svg>