<?xml version="1.0" encoding="utf-8"?>
<svg xmlns="http://www.w3.org/2000/svg" viewBox="0 0 1745.3 1292.1">
  <path d="M 455.85 306.253 C 511.25 128.783 676.94 0.003 872.65 0.003 C 1068.36 0.003 1234.03 128.783 1289.5 306.253 L 939.1 306.253 L 939.1 467.801 L 936.1 467.801 L 847.64 330.153 C 836.88 312.403 826.12 306.323 804.6 306.323 L 455.85 306.323 L 455.85 306.253 Z M 1208.39 369.773 L 1208.39 627.805 L 1121.39 627.805 L 1121.39 369.773 L 1021.9 369.773 L 1021.9 627.805 L 963.83 627.805 C 942.32 627.805 932.04 621.724 920.79 603.98 L 808.23 435.519 L 806.42 435.519 L 806.42 627.876 L 721.87 627.876 L 721.87 369.843 L 622.75 369.843 L 622.75 627.876 L 534.35 627.876 L 534.35 369.843 L 441.05 369.843 C 437.75 391.643 435.95 413.999 435.95 436.775 C 435.95 677.971 631.45 873.472 872.65 873.472 C 1113.85 873.472 1309.35 677.971 1309.35 436.775 C 1309.35 413.999 1307.6 391.643 1304.24 369.843 L 1208.39 369.843 L 1208.39 369.773 Z" id="path1" style="stroke-width: 1; fill: rgb(229, 78, 246);"/>
  <g transform="matrix(1, 0, 0, 1, -0.012512, 0)">
    <path d="M 348.526 1033.52 L 244.29 1033.52 L 244.29 1288.65 L 300.396 1288.65 L 300.396 1212.14 L 343.036 1212.14 C 400.246 1212.14 446.156 1181.54 446.156 1122.49 L 446.156 1121.78 C 446.156 1069.66 409.336 1033.58 348.456 1033.58 L 348.526 1033.52 Z M 389.326 1123.55 C 389.326 1145.39 372.916 1161.74 344.856 1161.74 L 300.396 1161.74 L 300.396 1083.91 L 343.746 1083.91 C 371.806 1083.91 389.326 1097.66 389.326 1122.84 L 389.326 1123.55 Z M 976.046 1118.45 L 976.046 1117.72 C 976.046 1065.23 939.946 1033.52 879.856 1033.52 L 763.216 1033.52 L 763.216 1288.65 L 819.316 1288.65 L 819.316 1206.98 L 863.386 1206.98 L 909.856 1276.4 C 914.956 1284.06 923.546 1288.65 932.736 1288.65 L 983.636 1288.65 L 921.326 1197.58 C 953.756 1185.55 975.976 1159.64 975.976 1118.51 L 976.046 1118.45 Z M 919.216 1121.39 C 919.216 1142.89 903.526 1156.65 876.206 1156.65 L 819.376 1156.65 L 819.376 1083.91 L 875.146 1083.91 C 902.476 1083.91 919.216 1096.61 919.216 1120.67 L 919.216 1121.39 Z M 997.216 1083.91 L 1074.84 1083.91 L 1074.84 1288.65 L 1130.94 1288.65 L 1130.94 1083.91 L 1190.21 1083.91 C 1200.35 1083.91 1208.57 1075.7 1208.57 1065.56 L 1208.57 1033.58 L 997.166 1033.58 L 997.166 1083.96 L 997.216 1083.91 Z M 1338.4 1135.97 C 1294.38 1124.72 1283.46 1119.22 1283.46 1102.48 L 1283.46 1101.77 C 1283.46 1089.4 1294.71 1079.59 1316.22 1079.59 C 1333.13 1079.59 1350.54 1085.46 1368.17 1095.62 C 1376.49 1100.38 1387.02 1098.05 1392.46 1090.17 L 1411.58 1062.45 C 1385.75 1041.72 1354.09 1030.09 1316.95 1030.09 C 1264.89 1030.09 1227.8 1060.63 1227.8 1106.87 L 1227.8 1107.6 C 1227.8 1158.19 1260.89 1172.35 1312.23 1185.48 C 1354.81 1196.39 1363.57 1203.66 1363.57 1217.86 L 1363.57 1218.59 C 1363.57 1233.48 1349.77 1242.59 1326.82 1242.59 C 1303.87 1242.59 1283.07 1234.77 1264.11 1221.73 C 1256.29 1216.38 1245.65 1217.76 1239.55 1225.02 L 1217.6 1251.3 C 1248.14 1278.58 1287.12 1292.05 1325.71 1292.05 C 1380.65 1292.05 1419.23 1263.65 1419.23 1213.03 L 1419.23 1212.32 C 1419.23 1167.9 1390.12 1149.34 1338.45 1135.86 L 1338.4 1135.97 Z M 120.828 1135.97 C 76.807 1124.72 65.89 1119.22 65.89 1102.48 L 65.89 1101.77 C 65.89 1089.4 77.141 1079.59 98.651 1079.59 C 115.56 1079.59 132.969 1085.46 150.599 1095.62 C 158.859 1100.38 169.443 1098.05 174.887 1090.17 L 194.009 1062.45 C 168.174 1041.72 136.524 1030.09 99.373 1030.09 C 47.314 1030.09 10.221 1060.63 10.221 1106.87 L 10.221 1107.6 C 10.221 1158.19 43.324 1172.35 94.661 1185.48 C 137.237 1196.39 145.997 1203.66 145.997 1217.86 L 145.997 1218.59 C 145.997 1233.48 132.191 1242.59 109.244 1242.59 C 86.289 1242.59 65.501 1234.77 46.538 1221.73 C 38.722 1216.38 28.081 1217.76 21.98 1225.02 L 0.025 1251.3 C 30.573 1278.58 69.548 1292.05 108.133 1292.05 C 163.073 1292.05 201.658 1263.65 201.658 1213.03 L 201.658 1212.32 C 201.658 1167.9 172.554 1149.34 120.884 1135.86 L 120.828 1135.97 Z M 595.846 1030.09 C 523.486 1030.09 464.836 1088.73 464.836 1161.09 C 464.836 1233.42 523.486 1292.1 595.846 1292.1 C 668.186 1292.1 726.846 1233.42 726.846 1161.09 C 726.846 1088.73 668.186 1030.09 595.846 1030.09 Z M 595.846 1239.14 C 552.766 1239.14 517.836 1204.21 517.836 1161.13 C 517.836 1118.06 552.766 1083.13 595.846 1083.13 C 638.916 1083.13 673.846 1118.06 673.846 1161.13 C 673.846 1204.21 638.916 1239.14 595.846 1239.14 Z" id="path2" style="stroke-width: 1; fill: rgb(255, 255, 255);"/>
    <g id="svg2" transform="matrix(1, 0, 0, 1, -3, 0)">
      <path d="M 1713.76 1188.24 L 1713.76 1030.7 L 1657.49 1030.7 C 1646.3 1030.7 1635.66 1035.76 1628.63 1044.54 L 1531.96 1164.72 C 1526.67 1171.31 1523.8 1179.47 1523.8 1187.9 L 1523.8 1234.15 L 1659.8 1234.15 L 1659.8 1289.64 L 1713.76 1289.64 L 1713.76 1234.15 L 1748.3 1234.15 L 1748.3 1188.24 L 1713.76 1188.24 Z M 1659.8 1188.24 L 1576.02 1188.24 L 1659.8 1084.09 L 1659.8 1188.24 Z" id="path-2" style="stroke-width: 1; fill: rgb(255, 255, 255);"/>
    </g>
  </g>
</svg>