<?xml version="1.0" encoding="utf-8"?>
<svg xmlns="http://www.w3.org/2000/svg" viewBox="0 0 1728.3 1292.1">
  <path d="M 447.35 306.253 C 502.75 128.783 668.44 0.003 864.15 0.003 C 1059.86 0.003 1225.53 128.783 1281 306.253 L 930.6 306.253 L 930.6 467.801 L 927.6 467.801 L 839.14 330.153 C 828.38 312.403 817.62 306.323 796.1 306.323 L 447.35 306.323 L 447.35 306.253 Z M 1199.89 369.773 L 1199.89 627.805 L 1112.89 627.805 L 1112.89 369.773 L 1013.4 369.773 L 1013.4 627.805 L 955.33 627.805 C 933.82 627.805 923.54 621.724 912.29 603.98 L 799.73 435.519 L 797.92 435.519 L 797.92 627.876 L 713.37 627.876 L 713.37 369.843 L 614.25 369.843 L 614.25 627.876 L 525.85 627.876 L 525.85 369.843 L 432.55 369.843 C 429.25 391.643 427.45 413.999 427.45 436.775 C 427.45 677.971 622.95 873.472 864.15 873.472 C 1105.35 873.472 1300.85 677.971 1300.85 436.775 C 1300.85 413.999 1299.1 391.643 1295.74 369.843 L 1199.89 369.843 L 1199.89 369.773 Z" id="path1" style="stroke-width: 1; fill: rgb(229, 78, 246);"/>
  <path d="M 348.526 1033.52 L 244.29 1033.52 L 244.29 1288.65 L 300.396 1288.65 L 300.396 1212.14 L 343.036 1212.14 C 400.246 1212.14 446.156 1181.54 446.156 1122.49 L 446.156 1121.78 C 446.156 1069.66 409.336 1033.58 348.456 1033.58 L 348.526 1033.52 Z M 389.326 1123.55 C 389.326 1145.39 372.916 1161.74 344.856 1161.74 L 300.396 1161.74 L 300.396 1083.91 L 343.746 1083.91 C 371.806 1083.91 389.326 1097.66 389.326 1122.84 L 389.326 1123.55 Z M 976.046 1118.45 L 976.046 1117.72 C 976.046 1065.23 939.946 1033.52 879.856 1033.52 L 763.216 1033.52 L 763.216 1288.65 L 819.316 1288.65 L 819.316 1206.98 L 863.386 1206.98 L 909.856 1276.4 C 914.956 1284.06 923.546 1288.65 932.736 1288.65 L 983.636 1288.65 L 921.326 1197.58 C 953.756 1185.55 975.976 1159.64 975.976 1118.51 L 976.046 1118.45 Z M 919.216 1121.39 C 919.216 1142.89 903.526 1156.65 876.206 1156.65 L 819.376 1156.65 L 819.376 1083.91 L 875.146 1083.91 C 902.476 1083.91 919.216 1096.61 919.216 1120.67 L 919.216 1121.39 Z M 997.216 1083.91 L 1074.84 1083.91 L 1074.84 1288.65 L 1130.94 1288.65 L 1130.94 1083.91 L 1190.21 1083.91 C 1200.35 1083.91 1208.57 1075.7 1208.57 1065.56 L 1208.57 1033.58 L 997.166 1033.58 L 997.166 1083.96 L 997.216 1083.91 Z M 1338.4 1135.97 C 1294.38 1124.72 1283.46 1119.22 1283.46 1102.48 L 1283.46 1101.77 C 1283.46 1089.4 1294.71 1079.59 1316.22 1079.59 C 1333.13 1079.59 1350.54 1085.46 1368.17 1095.62 C 1376.49 1100.38 1387.02 1098.05 1392.46 1090.17 L 1411.58 1062.45 C 1385.75 1041.72 1354.09 1030.09 1316.95 1030.09 C 1264.89 1030.09 1227.8 1060.63 1227.8 1106.87 L 1227.8 1107.6 C 1227.8 1158.19 1260.89 1172.35 1312.23 1185.48 C 1354.81 1196.39 1363.57 1203.66 1363.57 1217.86 L 1363.57 1218.59 C 1363.57 1233.48 1349.77 1242.59 1326.82 1242.59 C 1303.87 1242.59 1283.07 1234.77 1264.11 1221.73 C 1256.29 1216.38 1245.65 1217.76 1239.55 1225.02 L 1217.6 1251.3 C 1248.14 1278.58 1287.12 1292.05 1325.71 1292.05 C 1380.65 1292.05 1419.23 1263.65 1419.23 1213.03 L 1419.23 1212.32 C 1419.23 1167.9 1390.12 1149.34 1338.45 1135.86 L 1338.4 1135.97 Z M 120.828 1135.97 C 76.807 1124.72 65.89 1119.22 65.89 1102.48 L 65.89 1101.77 C 65.89 1089.4 77.141 1079.59 98.651 1079.59 C 115.56 1079.59 132.969 1085.46 150.599 1095.62 C 158.859 1100.38 169.443 1098.05 174.887 1090.17 L 194.009 1062.45 C 168.174 1041.72 136.524 1030.09 99.373 1030.09 C 47.314 1030.09 10.221 1060.63 10.221 1106.87 L 10.221 1107.6 C 10.221 1158.19 43.324 1172.35 94.661 1185.48 C 137.237 1196.39 145.997 1203.66 145.997 1217.86 L 145.997 1218.59 C 145.997 1233.48 132.191 1242.59 109.244 1242.59 C 86.289 1242.59 65.501 1234.77 46.538 1221.73 C 38.722 1216.38 28.081 1217.76 21.98 1225.02 L 0.025 1251.3 C 30.573 1278.58 69.548 1292.05 108.133 1292.05 C 163.073 1292.05 201.658 1263.65 201.658 1213.03 L 201.658 1212.32 C 201.658 1167.9 172.554 1149.34 120.884 1135.86 L 120.828 1135.97 Z M 595.846 1030.09 C 523.486 1030.09 464.836 1088.73 464.836 1161.09 C 464.836 1233.42 523.486 1292.1 595.846 1292.1 C 668.186 1292.1 726.846 1233.42 726.846 1161.09 C 726.846 1088.73 668.186 1030.09 595.846 1030.09 Z M 595.846 1239.14 C 552.766 1239.14 517.836 1204.21 517.836 1161.13 C 517.836 1118.06 552.766 1083.13 595.846 1083.13 C 638.916 1083.13 673.846 1118.06 673.846 1161.13 C 673.846 1204.21 638.916 1239.14 595.846 1239.14 Z" id="path2" style="stroke-width: 1; fill: rgb(255, 255, 255);"/>
  <path d="M 1659.72 1134.53 L 1724.37 1072.84 L 1724.37 1030.48 L 1551.67 1030.48 L 1551.67 1060.18 C 1551.67 1070.39 1559.93 1078.63 1570.13 1078.63 L 1652.04 1078.63 L 1591.08 1139.93 L 1599.83 1175.7 L 1623.17 1175.7 C 1654.54 1175.7 1673.16 1187.41 1673.16 1208.2 L 1673.16 1208.92 C 1673.16 1227.87 1658.16 1239.97 1636.99 1239.97 C 1615.82 1239.97 1601.06 1233.22 1586.84 1220.79 C 1579.76 1214.66 1569.12 1215.17 1562.33 1221.63 L 1536.58 1246.15 C 1558.47 1272.06 1590.24 1290.34 1636.21 1290.34 C 1693.18 1290.34 1728.22 1254.95 1728.22 1206.75 L 1728.22 1206.03 C 1728.22 1158.61 1694.27 1140.33 1659.56 1134.47 L 1659.72 1134.53 Z" id="path-3" style="stroke-width: 1; fill: rgb(255, 255, 255);"/>
</svg>