<?xml version="1.0" encoding="utf-8"?>
<svg xmlns="http://www.w3.org/2000/svg" viewBox="0 0 1728.3 1292.1">
  <g transform="matrix(1, 0, 0, 1, 34.650002, -0.002485)">
    <path d="M 412.7 306.255 C 468.1 128.785 633.79 0.005 829.5 0.005 C 1025.21 0.005 1190.88 128.785 1246.35 306.255 L 895.95 306.255 L 895.95 467.803 L 892.95 467.803 L 804.49 330.155 C 793.73 312.405 782.97 306.325 761.45 306.325 L 412.7 306.325 L 412.7 306.255 Z M 1165.24 369.775 L 1165.24 627.807 L 1078.24 627.807 L 1078.24 369.775 L 978.75 369.775 L 978.75 627.807 L 920.68 627.807 C 899.17 627.807 888.89 621.726 877.64 603.982 L 765.08 435.521 L 763.27 435.521 L 763.27 627.878 L 678.72 627.878 L 678.72 369.845 L 579.6 369.845 L 579.6 627.878 L 491.2 627.878 L 491.2 369.845 L 397.9 369.845 C 394.6 391.645 392.8 414.001 392.8 436.777 C 392.8 677.973 588.3 873.474 829.5 873.474 C 1070.7 873.474 1266.2 677.973 1266.2 436.777 C 1266.2 414.001 1264.45 391.645 1261.09 369.845 L 1165.24 369.845 L 1165.24 369.775 Z" id="path1" style="stroke-width: 1; fill: rgb(229, 78, 246);"/>
    <g transform="matrix(1, 0, 0, 1, -34.604488, 0)">
      <path d="M 348.48 1033.52 L 244.244 1033.52 L 244.244 1288.65 L 300.35 1288.65 L 300.35 1212.14 L 342.99 1212.14 C 400.2 1212.14 446.11 1181.54 446.11 1122.49 L 446.11 1121.78 C 446.11 1069.66 409.29 1033.58 348.41 1033.58 L 348.48 1033.52 Z M 389.28 1123.55 C 389.28 1145.39 372.87 1161.74 344.81 1161.74 L 300.35 1161.74 L 300.35 1083.91 L 343.7 1083.91 C 371.76 1083.91 389.28 1097.66 389.28 1122.84 L 389.28 1123.55 Z M 976 1118.45 L 976 1117.72 C 976 1065.23 939.9 1033.52 879.81 1033.52 L 763.17 1033.52 L 763.17 1288.65 L 819.27 1288.65 L 819.27 1206.98 L 863.34 1206.98 L 909.81 1276.4 C 914.91 1284.06 923.5 1288.65 932.69 1288.65 L 983.59 1288.65 L 921.28 1197.58 C 953.71 1185.55 975.93 1159.64 975.93 1118.51 L 976 1118.45 Z M 919.17 1121.39 C 919.17 1142.89 903.48 1156.65 876.16 1156.65 L 819.33 1156.65 L 819.33 1083.91 L 875.1 1083.91 C 902.43 1083.91 919.17 1096.61 919.17 1120.67 L 919.17 1121.39 Z M 997.17 1083.91 L 1074.79 1083.91 L 1074.79 1288.65 L 1130.89 1288.65 L 1130.89 1083.91 L 1190.16 1083.91 C 1200.3 1083.91 1208.52 1075.7 1208.52 1065.56 L 1208.52 1033.58 L 997.12 1033.58 L 997.12 1083.96 L 997.17 1083.91 Z M 1338.35 1135.97 C 1294.33 1124.72 1283.41 1119.22 1283.41 1102.48 L 1283.41 1101.77 C 1283.41 1089.4 1294.66 1079.59 1316.17 1079.59 C 1333.08 1079.59 1350.49 1085.46 1368.12 1095.62 C 1376.44 1100.38 1386.97 1098.05 1392.41 1090.17 L 1411.53 1062.45 C 1385.7 1041.72 1354.04 1030.09 1316.9 1030.09 C 1264.84 1030.09 1227.75 1060.63 1227.75 1106.87 L 1227.75 1107.6 C 1227.75 1158.19 1260.84 1172.35 1312.18 1185.48 C 1354.76 1196.39 1363.52 1203.66 1363.52 1217.86 L 1363.52 1218.59 C 1363.52 1233.48 1349.72 1242.59 1326.77 1242.59 C 1303.82 1242.59 1283.02 1234.77 1264.06 1221.73 C 1256.24 1216.38 1245.6 1217.76 1239.5 1225.02 L 1217.55 1251.3 C 1248.09 1278.58 1287.07 1292.05 1325.66 1292.05 C 1380.6 1292.05 1419.18 1263.65 1419.18 1213.03 L 1419.18 1212.32 C 1419.18 1167.9 1390.07 1149.34 1338.4 1135.86 L 1338.35 1135.97 Z M 120.782 1135.97 C 76.761 1124.72 65.844 1119.22 65.844 1102.48 L 65.844 1101.77 C 65.844 1089.4 77.095 1079.59 98.605 1079.59 C 115.514 1079.59 132.923 1085.46 150.553 1095.62 C 158.813 1100.38 169.397 1098.05 174.841 1090.17 L 193.963 1062.45 C 168.128 1041.72 136.478 1030.09 99.327 1030.09 C 47.268 1030.09 10.175 1060.63 10.175 1106.87 L 10.175 1107.6 C 10.175 1158.19 43.278 1172.35 94.615 1185.48 C 137.191 1196.39 145.951 1203.66 145.951 1217.86 L 145.951 1218.59 C 145.951 1233.48 132.145 1242.59 109.198 1242.59 C 86.243 1242.59 65.455 1234.77 46.492 1221.73 C 38.676 1216.38 28.035 1217.76 21.934 1225.02 L -0.021 1251.3 C 30.527 1278.58 69.502 1292.05 108.087 1292.05 C 163.027 1292.05 201.612 1263.65 201.612 1213.03 L 201.612 1212.32 C 201.612 1167.9 172.508 1149.34 120.838 1135.86 L 120.782 1135.97 Z M 595.8 1030.09 C 523.44 1030.09 464.79 1088.73 464.79 1161.09 C 464.79 1233.42 523.44 1292.1 595.8 1292.1 C 668.14 1292.1 726.8 1233.42 726.8 1161.09 C 726.8 1088.73 668.14 1030.09 595.8 1030.09 Z M 595.8 1239.14 C 552.72 1239.14 517.79 1204.21 517.79 1161.13 C 517.79 1118.06 552.72 1083.13 595.8 1083.13 C 638.87 1083.13 673.8 1118.06 673.8 1161.13 C 673.8 1204.21 638.87 1239.14 595.8 1239.14 Z" id="path2" style="stroke-width: 1; fill: rgb(255, 255, 255);"/>
      <g id="svg2" transform="matrix(1, 0, 0, 1, -1003.570007, 38.531483)">
        <path d="M 2619.72 1203.47 L 2661.6 1171.14 C 2707.19 1135.87 2729.23 1114.55 2729.23 1071.6 L 2729.23 1070.87 C 2729.23 1022.71 2693.93 991.498 2640.7 991.498 C 2594.78 991.498 2570.17 1010.24 2544.78 1044.8 L 2570.56 1065.57 C 2578.17 1071.66 2589.13 1070.76 2595.84 1063.65 C 2609.54 1049.12 2621.34 1042.23 2636.99 1042.23 C 2657.19 1042.23 2671.55 1053.99 2671.55 1075.68 C 2671.55 1097.38 2659.09 1110.98 2627.11 1137.43 L 2554.95 1196.53 C 2546.46 1203.53 2541.48 1213.98 2541.48 1225.01 L 2541.48 1252.41 L 2731.8 1252.41 L 2731.8 1203.53 L 2619.72 1203.53 L 2619.72 1203.47 Z" id="path-2" style="stroke-width: 1; fill: rgb(255, 255, 255);"/>
      </g>
    </g>
  </g>
</svg>