<?xml version="1.0" encoding="UTF-8" standalone="no"?>
<!-- Created with Inkscape (http://www.inkscape.org/) -->

<svg
   xmlns:dc="http://purl.org/dc/elements/1.1/"
   xmlns:cc="http://creativecommons.org/ns#"
   xmlns:rdf="http://www.w3.org/1999/02/22-rdf-syntax-ns#"
   xmlns:svg="http://www.w3.org/2000/svg"
   xmlns="http://www.w3.org/2000/svg"
   xmlns:sodipodi="http://sodipodi.sourceforge.net/DTD/sodipodi-0.dtd"
   xmlns:inkscape="http://www.inkscape.org/namespaces/inkscape"
   width="105.83475"
   height="17.438499"
   id="svg2"
   version="1.1"
   inkscape:version="0.48.2 r9819"
   sodipodi:docname="TSN1.svg">
  <defs
     id="defs4" />
  <sodipodi:namedview
     id="base"
     pagecolor="#ffffff"
     bordercolor="#666666"
     borderopacity="1.0"
     inkscape:pageopacity="0.0"
     inkscape:pageshadow="2"
     inkscape:zoom="5.12"
     inkscape:cx="37.136435"
     inkscape:cy="13.706534"
     inkscape:document-units="px"
     inkscape:current-layer="layer1"
     showgrid="false"
     fit-margin-top="0"
     fit-margin-left="0"
     fit-margin-right="0"
     fit-margin-bottom="0"
     inkscape:window-width="1140"
     inkscape:window-height="425"
     inkscape:window-x="621"
     inkscape:window-y="180"
     inkscape:window-maximized="0" />
  <metadata
     id="metadata7">
    <rdf:RDF>
      <cc:Work
         rdf:about="">
        <dc:format>image/svg+xml</dc:format>
        <dc:type
           rdf:resource="http://purl.org/dc/dcmitype/StillImage" />
      </cc:Work>
    </rdf:RDF>
  </metadata>
  <g
     inkscape:label="Layer 1"
     inkscape:groupmode="layer"
     id="layer1"
     transform="translate(-340.41077,-411.66625)">
    <g
       id="g11201"
       transform="matrix(1.25,0,0,-1.25,444.06052,411.66625)">
      <path
         inkscape:connector-curvature="0"
         d="m 0,0 -16.972,0 5.43,-5.431 -5.434,-5.426 16.976,0 c 0.961,0 1.748,0.786 1.748,1.748 l 0,7.361 C 1.748,-0.787 0.961,0 0,0"
         style="fill:#ed1d24;fill-opacity:1;fill-rule:nonzero;stroke:none"
         id="path11203" />
    </g>
    <g
       id="g11205"
       transform="matrix(1.25,0,0,-1.25,414.08127,411.66625)">
      <path
         inkscape:connector-curvature="0"
         d="M 0,0 5.431,-5.433 0,-10.86 l 4.381,0 5.431,5.429 L 4.381,0 0,0 z"
         style="fill:#434344;fill-opacity:1;fill-rule:nonzero;stroke:none"
         id="path11207" />
    </g>
    <g
       id="g11209"
       transform="matrix(1.25,0,0,-1.25,435.02552,413.35012)">
      <path
         inkscape:connector-curvature="0"
         d="m 0,0 3.641,0 -0.004,-8.186 -2.564,0 0.002,6.332 -2.731,0 L 0,0 z"
         style="fill:#ffffff;fill-opacity:1;fill-rule:nonzero;stroke:none"
         id="path11211" />
    </g>
    <g
       id="g11213"
       transform="matrix(1.25,0,0,-1.25,362.92952,416.04975)">
      <path
         inkscape:connector-curvature="0"
         d="m 0,0 1.672,3.503 -18.017,0 -1.67,-3.504 L 0,0 z"
         style="fill:#ed1d24;fill-opacity:1;fill-rule:nonzero;stroke:none"
         id="path11215" />
    </g>
    <g
       id="g11217"
       transform="matrix(1.25,0,0,-1.25,348.51552,418.21713)">
      <path
         inkscape:connector-curvature="0"
         d="m 0,0 4.94,0 -4.175,-8.71 -4.94,0 L 0,0 z"
         style="fill:#ed1d24;fill-opacity:1;fill-rule:nonzero;stroke:none"
         id="path11219" />
    </g>
    <g
       id="g11221"
       transform="matrix(1.25,0,0,-1.25,358.95377,429.1045)">
      <path
         inkscape:connector-curvature="0"
         d="m 0,0 1.69,3.571 12.667,0 1.048,2.026 c 0,0 -6.771,10e-4 -7.622,0 C 6.744,5.595 4.421,5.521 3.859,6.668 c -0.372,0.761 0.36,2.044 0.36,2.044 0,0 13.267,-0.002 14.172,-0.002 0.903,0 1.664,-0.19 2.087,-0.727 0.4,-0.504 0.371,-1.228 -0.23,-2.386 C 19.903,4.931 18.996,2.896 18.784,2.469 18.571,2.044 18.125,1.297 16.989,0.763 15.851,0.23 14.927,0 13.434,0 L 0,0 z"
         style="fill:#ed1d24;fill-opacity:1;fill-rule:nonzero;stroke:none"
         id="path11223" />
    </g>
    <g
       id="g11225"
       transform="matrix(1.25,0,0,-1.25,365.23115,416.04975)">
      <path
         inkscape:connector-curvature="0"
         d="m 0,0 c 0,0 0.704,1.896 2.307,2.736 1.53,0.8 4.621,0.767 4.897,0.767 l 11.769,0 L 17.314,0 0,0 z"
         style="fill:#ed1d24;fill-opacity:1;fill-rule:nonzero;stroke:none"
         id="path11227" />
    </g>
    <g
       id="g11229"
       transform="matrix(1.25,0,0,-1.25,389.89552,416.04975)">
      <path
         inkscape:connector-curvature="0"
         d="m 0,0 1.58,3.503 11.114,0 c 0,0 4.498,0.255 5.315,-3.503 0.367,-1.693 -0.44,-3.121 -0.465,-3.177 -0.026,-0.053 -3.45,-7.267 -3.45,-7.267 l -4.966,0 3.839,7.937 c 0,0 0.586,0.946 0.189,1.761 C 12.759,0.065 11.583,0.007 11.483,0 11.387,-0.007 0,0 0,0"
         style="fill:#ed1d24;fill-opacity:1;fill-rule:nonzero;stroke:none"
         id="path11231" />
    </g>
    <g
       id="g11233"
       transform="matrix(1.25,0,0,-1.25,388.89452,418.21713)">
      <path
         inkscape:connector-curvature="0"
         d="m 0,0 4.943,0 -4.17,-8.71 -4.943,0 L 0,0 z"
         style="fill:#ed1d24;fill-opacity:1;fill-rule:nonzero;stroke:none"
         id="path11235" />
    </g>
  </g>
</svg>
