<?xml version="1.0" encoding="UTF-8" standalone="no"?>
<!-- Created with Inkscape (http://www.inkscape.org/) -->

<svg
   xmlns:dc="http://purl.org/dc/elements/1.1/"
   xmlns:cc="http://creativecommons.org/ns#"
   xmlns:rdf="http://www.w3.org/1999/02/22-rdf-syntax-ns#"
   xmlns:svg="http://www.w3.org/2000/svg"
   xmlns="http://www.w3.org/2000/svg"
   xmlns:sodipodi="http://sodipodi.sourceforge.net/DTD/sodipodi-0.dtd"
   xmlns:inkscape="http://www.inkscape.org/namespaces/inkscape"
   width="105.83387"
   height="17.431305"
   id="svg2"
   version="1.1"
   inkscape:version="0.48.2 r9819"
   sodipodi:docname="TSN3.svg">
  <defs
     id="defs4" />
  <sodipodi:namedview
     id="base"
     pagecolor="#ffffff"
     bordercolor="#666666"
     borderopacity="1.0"
     inkscape:pageopacity="0.0"
     inkscape:pageshadow="2"
     inkscape:zoom="5.12"
     inkscape:cx="33.976907"
     inkscape:cy="5.3263556"
     inkscape:document-units="px"
     inkscape:current-layer="layer1"
     showgrid="false"
     fit-margin-top="0"
     fit-margin-left="0"
     fit-margin-right="0"
     fit-margin-bottom="0"
     inkscape:window-width="1140"
     inkscape:window-height="425"
     inkscape:window-x="621"
     inkscape:window-y="180"
     inkscape:window-maximized="0" />
  <metadata
     id="metadata7">
    <rdf:RDF>
      <cc:Work
         rdf:about="">
        <dc:format>image/svg+xml</dc:format>
        <dc:type
           rdf:resource="http://purl.org/dc/dcmitype/StillImage" />
        <dc:title></dc:title>
      </cc:Work>
    </rdf:RDF>
  </metadata>
  <g
     inkscape:label="Layer 1"
     inkscape:groupmode="layer"
     id="layer1"
     transform="translate(-396.95011,-372.56711)">
    <g
       id="g11093"
       transform="matrix(1.25,0,0,-1.25,500.60023,372.57167)">
      <path
         inkscape:connector-curvature="0"
         d="m 0,0 -16.976,0 5.431,-5.432 -5.434,-5.428 16.979,0 c 0.961,0 1.747,0.787 1.747,1.749 l 0,7.363 C 1.747,-0.786 0.961,0 0,0"
         style="fill:#ed1d24;fill-opacity:1;fill-rule:nonzero;stroke:none"
         id="path11095" />
    </g>
    <g
       id="g11097"
       transform="matrix(1.25,0,0,-1.25,470.61548,372.57167)">
      <path
         inkscape:connector-curvature="0"
         d="M 0,0 5.431,-5.433 0,-10.863 l 4.383,0 5.43,5.431 L 4.383,0 0,0 z"
         style="fill:#434344;fill-opacity:1;fill-rule:nonzero;stroke:none"
         id="path11099" />
    </g>
    <g
       id="g11101"
       transform="matrix(1.25,0,0,-1.25,495.11373,379.87142)">
      <path
         inkscape:connector-curvature="0"
         d="M 0,0 -3.898,0 0,2.751 0,0 z m 2.948,0 -0.967,0 0,4.556 -2.461,0 -5.014,-3.418 0,-2.882 5.494,0 -0.002,-1.994 1.959,0 10e-4,1.994 0.99,0 0,1.744 z"
         style="fill:#ffffff;fill-opacity:1;fill-rule:nonzero;stroke:none"
         id="path11103" />
    </g>
    <g
       id="g11105"
       transform="matrix(1.25,0,0,-1.25,419.45886,376.94792)">
      <path
         inkscape:connector-curvature="0"
         d="m 0,0 1.671,3.501 -18.01,0 -1.668,-3.503 L 0,0 z"
         style="fill:#ed1d24;fill-opacity:1;fill-rule:nonzero;stroke:none"
         id="path11107" />
    </g>
    <g
       id="g11109"
       transform="matrix(1.25,0,0,-1.25,405.05148,379.11579)">
      <path
         inkscape:connector-curvature="0"
         d="m 0,0 4.938,0 -4.174,-8.706 -4.939,0 L 0,0 z"
         style="fill:#ed1d24;fill-opacity:1;fill-rule:nonzero;stroke:none"
         id="path11111" />
    </g>
    <g
       id="g11113"
       transform="matrix(1.25,0,0,-1.25,415.48548,389.99842)">
      <path
         inkscape:connector-curvature="0"
         d="m 0,0 1.688,3.569 12.663,0 1.047,2.027 c 0,0 -6.769,0.001 -7.618,0 C 6.74,5.593 4.418,5.52 3.857,6.667 3.485,7.426 4.216,8.709 4.216,8.709 c 0,0 13.262,-0.003 14.167,-0.003 0.903,0 1.663,-0.19 2.087,-0.726 C 20.87,7.477 20.841,6.753 20.24,5.596 19.895,4.93 18.988,2.895 18.776,2.469 18.563,2.043 18.117,1.297 16.981,0.763 15.844,0.23 14.92,0 13.427,0 L 0,0 z"
         style="fill:#ed1d24;fill-opacity:1;fill-rule:nonzero;stroke:none"
         id="path11115" />
    </g>
    <g
       id="g11117"
       transform="matrix(1.25,0,0,-1.25,421.75923,376.94792)">
      <path
         inkscape:connector-curvature="0"
         d="m 0,0 c 0,0 0.704,1.895 2.306,2.734 1.53,0.8 4.619,0.767 4.896,0.767 l 11.763,0 L 17.307,0 0,0 z"
         style="fill:#ed1d24;fill-opacity:1;fill-rule:nonzero;stroke:none"
         id="path11119" />
    </g>
    <g
       id="g11121"
       transform="matrix(1.25,0,0,-1.25,446.41448,376.94792)">
      <path
         inkscape:connector-curvature="0"
         d="m 0,0 1.58,3.501 11.108,0 c 0,0 4.496,0.255 5.314,-3.501 0.367,-1.693 -0.44,-3.12 -0.465,-3.176 -0.027,-0.053 -3.449,-7.264 -3.449,-7.264 l -4.963,0 3.836,7.933 c 0,0 0.586,0.946 0.19,1.761 C 12.753,0.065 11.579,0.006 11.479,0 11.383,-0.006 0,0 0,0"
         style="fill:#ed1d24;fill-opacity:1;fill-rule:nonzero;stroke:none"
         id="path11123" />
    </g>
    <g
       id="g11125"
       transform="matrix(1.25,0,0,-1.25,445.41348,379.11579)">
      <path
         inkscape:connector-curvature="0"
         d="m 0,0 4.94,0 -4.167,-8.706 -4.941,0 L 0,0 z"
         style="fill:#ed1d24;fill-opacity:1;fill-rule:nonzero;stroke:none"
         id="path11127" />
    </g>
  </g>
</svg>
